<?xml version="1.0" encoding="UTF-8" standalone="no"?>
<!-- Created with Inkscape (http://www.inkscape.org/) -->

<svg
   xmlns:dc="http://purl.org/dc/elements/1.1/"
   xmlns:cc="http://creativecommons.org/ns#"
   xmlns:rdf="http://www.w3.org/1999/02/22-rdf-syntax-ns#"
   xmlns:svg="http://www.w3.org/2000/svg"
   xmlns="http://www.w3.org/2000/svg"
   xmlns:sodipodi="http://sodipodi.sourceforge.net/DTD/sodipodi-0.dtd"
   xmlns:inkscape="http://www.inkscape.org/namespaces/inkscape"
   width="210mm"
   height="100mm"
   viewBox="0 0 744.09449 354.33071"
   id="svg2"
   version="1.1"
   inkscape:version="0.91 r13725"
   sodipodi:docname="anon_vma.svg">
  <defs
     id="defs4" />
  <sodipodi:namedview
     id="base"
     pagecolor="#ffffff"
     bordercolor="#666666"
     borderopacity="1.0"
     inkscape:pageopacity="0.0"
     inkscape:pageshadow="2"
     inkscape:zoom="0.98994949"
     inkscape:cx="213.38773"
     inkscape:cy="165.88366"
     inkscape:document-units="px"
     inkscape:current-layer="layer1"
     showgrid="false"
     inkscape:window-width="2880"
     inkscape:window-height="1577"
     inkscape:window-x="0"
     inkscape:window-y="0"
     inkscape:window-maximized="1" />
  <metadata
     id="metadata7">
    <rdf:RDF>
      <cc:Work
         rdf:about="">
        <dc:format>image/svg+xml</dc:format>
        <dc:type
           rdf:resource="http://purl.org/dc/dcmitype/StillImage" />
        <dc:title></dc:title>
      </cc:Work>
    </rdf:RDF>
  </metadata>
  <g
     inkscape:label="Layer 1"
     inkscape:groupmode="layer"
     id="layer1"
     transform="translate(0,-698.0315)">
    <g
       id="g9901"
       transform="matrix(1.7908843,0,0,1.563484,-1125.9026,25.770136)">
      <g
         id="g9445">
        <ellipse
           id="ellipse9447"
           ry="40.272499"
           rx="56.109798"
           cy="536.14099"
           cx="820.07599"
           style="fill:#ffffff" />
        <ellipse
           id="ellipse9449"
           ry="40.272499"
           rx="56.109798"
           cy="536.14099"
           cx="820.07599"
           style="fill:none;fill-opacity:0;stroke:#000000;stroke-width:1;stroke-dasharray:4" />
      </g>
      <g
         id="g9451">
        <rect
           id="rect9453"
           height="35.524899"
           width="93.1222"
           y="443.87201"
           x="654.04602"
           style="fill:#ffffff" />
        <rect
           id="rect9455"
           height="35.524899"
           width="93.1222"
           y="443.87201"
           x="654.04602"
           style="fill:none;fill-opacity:0;stroke:#000000;stroke-width:1" />
      </g>
      <g
         id="g9457">
        <path
           id="path9459"
           d="m 663.03,449.342 c 2.472,0 14.833,0 17.305,0 2.472,0 2.472,0 2.472,4 0,4 0,12 0,16 0,4 0,4 -2.472,4 -2.472,0 -14.833,0 -17.305,0 -2.472,0 -2.472,0 -2.472,-4 0,-4 0,-12 0,-16 0,-4 0,-4 2.472,-4 z"
           style="fill:#ffffff"
           inkscape:connector-curvature="0" />
        <path
           id="path9461"
           d="m 663.03,449.342 c 2.472,0 14.833,0 17.305,0 2.472,0 2.472,0 2.472,4 0,4 0,12 0,16 0,4 0,4 -2.472,4 -2.472,0 -14.833,0 -17.305,0 -2.472,0 -2.472,0 -2.472,-4 0,-4 0,-12 0,-16 0,-4 0,-4 2.472,-4"
           style="fill:none;fill-opacity:0;stroke:#000000;stroke-width:1"
           inkscape:connector-curvature="0" />
        <path
           id="path9463"
           d="m 663.03,449.342 c 2.472,0 14.833,0 17.305,0 2.472,0 2.472,0 2.472,4 0,4 0,12 0,16 0,4 0,4 -2.472,4 -2.472,0 -14.833,0 -17.305,0 -2.472,0 -2.472,0 -2.472,-4 0,-4 0,-12 0,-16 0,-4 0,-4 2.472,-4"
           style="fill:none;fill-opacity:0;stroke:#000000;stroke-width:0.1"
           inkscape:connector-curvature="0" />
        <line
           id="line9465"
           y2="473.34201"
           x2="680.33502"
           y1="473.34201"
           x1="663.03003"
           style="fill:none;fill-opacity:0;stroke:#000000;stroke-width:0.1" />
        <line
           id="line9467"
           y2="469.34201"
           x2="682.80701"
           y1="453.34201"
           x1="682.80701"
           style="fill:none;fill-opacity:0;stroke:#000000;stroke-width:0.1" />
        <line
           id="line9469"
           y2="469.34201"
           x2="660.55798"
           y1="453.34201"
           x1="660.55798"
           style="fill:none;fill-opacity:0;stroke:#000000;stroke-width:0.1" />
        <line
           id="line9471"
           y2="449.34201"
           x2="680.33502"
           y1="449.34201"
           x1="663.03003"
           style="fill:none;fill-opacity:0;stroke:#000000;stroke-width:0.1" />
        <text
           id="text9473"
           y="465.34201"
           x="671.68201"
           style="font-style:normal;font-weight:normal;font-size:12.80000019px;font-family:sans-serif;text-anchor:middle;fill:#000000"
           font-size="12.8">
          <tspan
             id="tspan9475"
             y="465.34201"
             x="671.68201" />
        </text>
      </g>
      <text
         id="text9477"
         y="459.96799"
         x="688.26801"
         style="font-style:normal;font-weight:normal;font-size:6.77333021px;font-family:sans-serif;text-anchor:start;fill:#000000"
         font-size="6.77333">
        <tspan
           id="tspan9479"
           y="459.96799"
           x="688.26801">struct</tspan>
        <tspan
           id="tspan9481"
           y="468.435"
           x="688.26801">vma_area_struct</tspan>
      </text>
      <text
         id="text9483"
         y="504.10001"
         x="667.146"
         style="font-style:normal;font-weight:normal;font-size:7.90221977px;font-family:'TeX Gyre Bonum';text-anchor:start;fill:#000000"
         font-size="7.90222">
        <tspan
           id="tspan9485"
           y="504.10001"
           x="667.146">struct</tspan>
        <tspan
           id="tspan9487"
           y="513.97803"
           x="667.146">address_space</tspan>
      </text>
      <text
         id="text9489"
         y="482.82999"
         x="685.43799"
         style="font-style:normal;font-weight:normal;font-size:12.80000019px;font-family:sans-serif;text-anchor:start;fill:#000000"
         font-size="12.8">
        <tspan
           id="tspan9491"
           y="482.82999"
           x="685.43799" />
      </text>
      <text
         id="text9493"
         y="440.466"
         x="795.85999"
         style="font-style:normal;font-weight:normal;font-size:7.90221977px;font-family:'TeX Gyre Bonum';text-anchor:start;fill:#000000"
         font-size="7.90222">
        <tspan
           id="tspan9495"
           y="440.466"
           x="795.85999">struct</tspan>
        <tspan
           id="tspan9497"
           y="450.34399"
           x="795.85999">inode</tspan>
      </text>
      <g
         id="g9499">
        <rect
           id="rect9501"
           height="18.265699"
           width="21.264601"
           y="518.052"
           x="796.966"
           style="fill:#ffffff" />
        <rect
           id="rect9503"
           height="18.265699"
           width="21.264601"
           y="518.052"
           x="796.966"
           style="fill:none;fill-opacity:0;stroke:#000000;stroke-width:2" />
      </g>
      <g
         id="g9505">
        <rect
           id="rect9507"
           height="18.265699"
           width="21.264601"
           y="517.49402"
           x="833.60797"
           style="fill:#ffffff" />
        <rect
           id="rect9509"
           height="18.265699"
           width="21.264601"
           y="517.49402"
           x="833.60797"
           style="fill:none;fill-opacity:0;stroke:#000000;stroke-width:2" />
      </g>
      <line
         id="line9511"
         y2="498.87799"
         x2="825.69598"
         y1="518.052"
         x1="807.59998"
         style="fill:none;fill-opacity:0;stroke:#000000;stroke-width:2" />
      <line
         id="line9513"
         y2="498.23001"
         x2="825.85797"
         y1="517.49402"
         x1="844.23999"
         style="fill:none;fill-opacity:0;stroke:#000000;stroke-width:2" />
      <g
         id="g9515">
        <path
           id="path9517"
           d="m 796.411,454.354 c 4.893,0 29.358,0 34.251,0 4.893,0 4.893,0 4.893,5.172 0,5.172 0,15.517 0,20.689 0,5.172 0,5.172 -4.893,5.172 -4.893,0 -29.358,0 -34.251,0 -4.893,0 -4.893,0 -4.893,-5.172 0,-5.172 0,-15.517 0,-20.689 0,-5.172 0,-5.172 4.893,-5.172 z"
           style="fill:#ffffff"
           inkscape:connector-curvature="0" />
        <path
           id="path9519"
           d="m 796.411,454.354 c 4.893,0 29.358,0 34.251,0 4.893,0 4.893,0 4.893,5.172 0,5.172 0,15.517 0,20.689 0,5.172 0,5.172 -4.893,5.172 -4.893,0 -29.358,0 -34.251,0 -4.893,0 -4.893,0 -4.893,-5.172 0,-5.172 0,-15.517 0,-20.689 0,-5.172 0,-5.172 4.893,-5.172"
           style="fill:none;fill-opacity:0;stroke:#000000;stroke-width:2"
           inkscape:connector-curvature="0" />
        <path
           id="path9521"
           d="m 796.411,454.354 c 4.893,0 29.358,0 34.251,0 4.893,0 4.893,0 4.893,5.172 0,5.172 0,15.517 0,20.689 0,5.172 0,5.172 -4.893,5.172 -4.893,0 -29.358,0 -34.251,0 -4.893,0 -4.893,0 -4.893,-5.172 0,-5.172 0,-15.517 0,-20.689 0,-5.172 0,-5.172 4.893,-5.172"
           style="fill:none;fill-opacity:0;stroke:#000000;stroke-width:0.2"
           inkscape:connector-curvature="0" />
        <line
           id="line9523"
           y2="485.38699"
           x2="830.66199"
           y1="485.38699"
           x1="796.41101"
           style="fill:none;fill-opacity:0;stroke:#000000;stroke-width:0.2" />
        <line
           id="line9525"
           y2="480.215"
           x2="835.55499"
           y1="459.526"
           x1="835.55499"
           style="fill:none;fill-opacity:0;stroke:#000000;stroke-width:0.2" />
        <line
           id="line9527"
           y2="480.215"
           x2="791.51801"
           y1="459.526"
           x1="791.51801"
           style="fill:none;fill-opacity:0;stroke:#000000;stroke-width:0.2" />
        <line
           id="line9529"
           y2="454.354"
           x2="830.66199"
           y1="454.354"
           x1="796.41101"
           style="fill:none;fill-opacity:0;stroke:#000000;stroke-width:0.2" />
        <text
           id="text9531"
           y="473.871"
           x="813.53699"
           style="font-style:normal;font-weight:normal;font-size:12.80000019px;font-family:sans-serif;text-anchor:middle;fill:#000000"
           font-size="12.8">
          <tspan
             id="tspan9533"
             y="473.871"
             x="813.53699" />
        </text>
      </g>
      <g
         id="g9535">
        <path
           id="path9537"
           d="m 665.863,521.35 c 7.819,0 46.915,0 54.734,0 7.819,0 7.819,0 7.819,11.195 0,11.195 0,33.585 0,44.78 0,11.195 0,11.195 -7.819,11.195 -7.819,0 -46.915,0 -54.734,0 -7.819,0 -7.819,0 -7.819,-11.195 0,-11.195 0,-33.585 0,-44.78 0,-11.195 0,-11.195 7.819,-11.195 z"
           style="fill:#ffffff"
           inkscape:connector-curvature="0" />
        <path
           id="path9539"
           d="m 665.863,521.35 c 7.819,0 46.915,0 54.734,0 7.819,0 7.819,0 7.819,11.195 0,11.195 0,33.585 0,44.78 0,11.195 0,11.195 -7.819,11.195 -7.819,0 -46.915,0 -54.734,0 -7.819,0 -7.819,0 -7.819,-11.195 0,-11.195 0,-33.585 0,-44.78 0,-11.195 0,-11.195 7.819,-11.195"
           style="fill:none;fill-opacity:0;stroke:#000000;stroke-width:1"
           inkscape:connector-curvature="0" />
        <path
           id="path9541"
           d="m 665.863,521.35 c 7.819,0 46.915,0 54.734,0 7.819,0 7.819,0 7.819,11.195 0,11.195 0,33.585 0,44.78 0,11.195 0,11.195 -7.819,11.195 -7.819,0 -46.915,0 -54.734,0 -7.819,0 -7.819,0 -7.819,-11.195 0,-11.195 0,-33.585 0,-44.78 0,-11.195 0,-11.195 7.819,-11.195"
           style="fill:none;fill-opacity:0;stroke:#000000;stroke-width:0.1"
           inkscape:connector-curvature="0" />
        <line
           id="line9543"
           y2="588.52002"
           x2="720.59698"
           y1="588.52002"
           x1="665.86298"
           style="fill:none;fill-opacity:0;stroke:#000000;stroke-width:0.1" />
        <line
           id="line9545"
           y2="577.32501"
           x2="728.41602"
           y1="532.54498"
           x1="728.41602"
           style="fill:none;fill-opacity:0;stroke:#000000;stroke-width:0.1" />
        <line
           id="line9547"
           y2="577.32501"
           x2="658.04401"
           y1="532.54498"
           x1="658.04401"
           style="fill:none;fill-opacity:0;stroke:#000000;stroke-width:0.1" />
        <line
           id="line9549"
           y2="521.34998"
           x2="720.59698"
           y1="521.34998"
           x1="665.86298"
           style="fill:none;fill-opacity:0;stroke:#000000;stroke-width:0.1" />
        <text
           id="text9551"
           y="558.935"
           x="693.22998"
           style="font-style:normal;font-weight:normal;font-size:12.80000019px;font-family:sans-serif;text-anchor:middle;fill:#000000"
           font-size="12.8">
          <tspan
             id="tspan9553"
             y="558.935"
             x="693.22998" />
        </text>
      </g>
      <line
         id="line9555"
         y2="537.29602"
         x2="803.76801"
         y1="546.07599"
         x1="800.44202"
         style="fill:none;fill-opacity:0;stroke:#000000;stroke-width:2" />
      <g
         id="g9557">
        <rect
           id="rect9559"
           height="18.265699"
           width="21.264601"
           y="547.05402"
           x="785.97998"
           style="fill:#ffffff" />
        <rect
           id="rect9561"
           height="18.265699"
           width="21.264601"
           y="547.05402"
           x="785.97998"
           style="fill:none;fill-opacity:0;stroke:#000000;stroke-width:2" />
      </g>
      <line
         id="line9563"
         y2="543.09601"
         x2="728.95203"
         y1="542.98798"
         x1="658.77802"
         style="fill:none;fill-opacity:0;stroke:#000000;stroke-width:1" />
      <g
         id="g9565">
        <path
           id="path9567"
           d="m 738.472,532.848 c 12.13,0 31.18,-62.978 43.31,-62.978"
           style="fill:none;fill-opacity:0;stroke:#000000;stroke-width:2"
           inkscape:connector-curvature="0" />
        <polygon
           id="polygon9569"
           points="740.972,527.848 738.472,532.848 740.972,537.848 730.972,532.848 "
           style="fill:#000000" />
        <polygon
           id="polygon9571"
           points="740.972,527.848 738.472,532.848 740.972,537.848 730.972,532.848 "
           style="fill:none;fill-opacity:0;stroke:#000000;stroke-width:2" />
        <polygon
           id="polygon9573"
           points="779.282,474.87 781.782,469.87 779.282,464.87 789.282,469.87 "
           style="fill:#000000" />
        <polygon
           id="polygon9575"
           points="779.282,474.87 781.782,469.87 779.282,464.87 789.282,469.87 "
           style="fill:none;fill-opacity:0;stroke:#000000;stroke-width:2" />
      </g>
      <line
         id="line9577"
         y2="566.80402"
         x2="728.77399"
         y1="566.69598"
         x1="658.59802"
         style="fill:none;fill-opacity:0;stroke:#000000;stroke-width:1" />
      <line
         id="line9579"
         y2="497.84601"
         x2="826.85199"
         y1="552.98602"
         x1="729.07397"
         style="fill:none;fill-opacity:0;stroke:#000000;stroke-width:2" />
      <text
         id="text9581"
         y="580.37402"
         x="668.64001"
         style="font-style:normal;font-weight:normal;font-size:7.90221977px;font-family:sans-serif;text-anchor:start;fill:#000000"
         font-size="7.90222">
        <tspan
           id="tspan9583"
           y="580.37402"
           x="668.64001">LOG HEAD</tspan>
      </text>
      <g
         id="g9585">
        <rect
           id="rect9587"
           height="18.265699"
           width="21.264601"
           y="606.12402"
           x="744.19"
           style="fill:#ffffff" />
        <rect
           id="rect9589"
           height="18.265699"
           width="21.264601"
           y="606.12402"
           x="744.19"
           style="fill:none;fill-opacity:0;stroke:#000000;stroke-width:2" />
      </g>
      <g
         id="g9591">
        <rect
           id="rect9593"
           height="18.265699"
           width="21.264601"
           y="606.12402"
           x="780.28198"
           style="fill:#ffffff" />
        <rect
           id="rect9595"
           height="18.265699"
           width="21.264601"
           y="606.12402"
           x="780.28198"
           style="fill:none;fill-opacity:0;stroke:#000000;stroke-width:2" />
      </g>
      <g
         id="g9597">
        <rect
           id="rect9599"
           height="18.265699"
           width="21.264601"
           y="606.12402"
           x="816.07599"
           style="fill:#ffffff" />
        <rect
           id="rect9601"
           height="18.265699"
           width="21.264601"
           y="606.12402"
           x="816.07599"
           style="fill:none;fill-opacity:0;stroke:#000000;stroke-width:2" />
      </g>
      <text
         id="text9603"
         y="558.66602"
         x="678.646"
         style="font-style:normal;font-weight:normal;font-size:7.90221977px;font-family:sans-serif;text-anchor:start;fill:#000000"
         font-size="7.90222">
        <tspan
           id="tspan9605"
           y="558.66602"
           x="678.646">ROOT</tspan>
      </text>
      <g
         id="g9607">
        <path
           id="path9609"
           d="m 930.934,447.956 c 3.59,0 21.54,0 25.131,0 3.59,0 3.59,0 3.59,4 0,4 0,12 0,16 0,4 0,4 -3.59,4 -3.591,0 -21.541,0 -25.131,0 -3.59,0 -3.59,0 -3.59,-4 0,-4 0,-12 0,-16 0,-4 0,-4 3.59,-4 z"
           style="fill:#ffffff"
           inkscape:connector-curvature="0" />
        <path
           id="path9611"
           d="m 930.934,447.956 c 3.59,0 21.54,0 25.131,0 3.59,0 3.59,0 3.59,4 0,4 0,12 0,16 0,4 0,4 -3.59,4 -3.591,0 -21.541,0 -25.131,0 -3.59,0 -3.59,0 -3.59,-4 0,-4 0,-12 0,-16 0,-4 0,-4 3.59,-4"
           style="fill:none;fill-opacity:0;stroke:#000000;stroke-width:2"
           inkscape:connector-curvature="0" />
        <path
           id="path9613"
           d="m 930.934,447.956 c 3.59,0 21.54,0 25.131,0 3.59,0 3.59,0 3.59,4 0,4 0,12 0,16 0,4 0,4 -3.59,4 -3.591,0 -21.541,0 -25.131,0 -3.59,0 -3.59,0 -3.59,-4 0,-4 0,-12 0,-16 0,-4 0,-4 3.59,-4"
           style="fill:none;fill-opacity:0;stroke:#000000;stroke-width:0.2"
           inkscape:connector-curvature="0" />
        <line
           id="line9615"
           y2="471.95599"
           x2="956.065"
           y1="471.95599"
           x1="930.93402"
           style="fill:none;fill-opacity:0;stroke:#000000;stroke-width:0.2" />
        <line
           id="line9617"
           y2="467.95599"
           x2="959.65503"
           y1="451.95599"
           x1="959.65503"
           style="fill:none;fill-opacity:0;stroke:#000000;stroke-width:0.2" />
        <line
           id="line9619"
           y2="467.95599"
           x2="927.34399"
           y1="451.95599"
           x1="927.34399"
           style="fill:none;fill-opacity:0;stroke:#000000;stroke-width:0.2" />
        <line
           id="line9621"
           y2="447.95599"
           x2="956.065"
           y1="447.95599"
           x1="930.93402"
           style="fill:none;fill-opacity:0;stroke:#000000;stroke-width:0.2" />
        <text
           id="text9623"
           y="463.95599"
           x="943.49902"
           style="font-style:normal;font-weight:normal;font-size:12.80000019px;font-family:sans-serif;text-anchor:middle;fill:#000000"
           font-size="12.8">
          <tspan
             id="tspan9625"
             y="463.95599"
             x="943.49902" />
        </text>
      </g>
      <g
         id="g9627">
        <path
           id="path9629"
           d="m 931.35,477.016 c 3.59,0 21.54,0 25.131,0 3.59,0 3.59,0 3.59,4 0,4 0,12 0,16 0,4 0,4 -3.59,4 -3.591,0 -21.541,0 -25.131,0 -3.59,0 -3.59,0 -3.59,-4 0,-4 0,-12 0,-16 0,-4 0,-4 3.59,-4 z"
           style="fill:#ffffff"
           inkscape:connector-curvature="0" />
        <path
           id="path9631"
           d="m 931.35,477.016 c 3.59,0 21.54,0 25.131,0 3.59,0 3.59,0 3.59,4 0,4 0,12 0,16 0,4 0,4 -3.59,4 -3.591,0 -21.541,0 -25.131,0 -3.59,0 -3.59,0 -3.59,-4 0,-4 0,-12 0,-16 0,-4 0,-4 3.59,-4"
           style="fill:none;fill-opacity:0;stroke:#000000;stroke-width:2"
           inkscape:connector-curvature="0" />
        <path
           id="path9633"
           d="m 931.35,477.016 c 3.59,0 21.54,0 25.131,0 3.59,0 3.59,0 3.59,4 0,4 0,12 0,16 0,4 0,4 -3.59,4 -3.591,0 -21.541,0 -25.131,0 -3.59,0 -3.59,0 -3.59,-4 0,-4 0,-12 0,-16 0,-4 0,-4 3.59,-4"
           style="fill:none;fill-opacity:0;stroke:#000000;stroke-width:0.2"
           inkscape:connector-curvature="0" />
        <line
           id="line9635"
           y2="501.01599"
           x2="956.48102"
           y1="501.01599"
           x1="931.34998"
           style="fill:none;fill-opacity:0;stroke:#000000;stroke-width:0.2" />
        <line
           id="line9637"
           y2="497.01599"
           x2="960.07098"
           y1="481.01599"
           x1="960.07098"
           style="fill:none;fill-opacity:0;stroke:#000000;stroke-width:0.2" />
        <line
           id="line9639"
           y2="497.01599"
           x2="927.76001"
           y1="481.01599"
           x1="927.76001"
           style="fill:none;fill-opacity:0;stroke:#000000;stroke-width:0.2" />
        <line
           id="line9641"
           y2="477.01599"
           x2="956.48102"
           y1="477.01599"
           x1="931.34998"
           style="fill:none;fill-opacity:0;stroke:#000000;stroke-width:0.2" />
        <text
           id="text9643"
           y="493.01599"
           x="943.91498"
           style="font-style:normal;font-weight:normal;font-size:12.80000019px;font-family:sans-serif;text-anchor:middle;fill:#000000"
           font-size="12.8">
          <tspan
             id="tspan9645"
             y="493.01599"
             x="943.91498" />
        </text>
      </g>
      <g
         id="g9647">
        <path
           id="path9649"
           d="m 932.362,505.78 c 3.59,0 21.54,0 25.131,0 3.59,0 3.59,0 3.59,4 0,4 0,12 0,16 0,4 0,4 -3.59,4 -3.591,0 -21.541,0 -25.131,0 -3.59,0 -3.59,0 -3.59,-4 0,-4 0,-12 0,-16 0,-4 0,-4 3.59,-4 z"
           style="fill:#ffffff"
           inkscape:connector-curvature="0" />
        <path
           id="path9651"
           d="m 932.362,505.78 c 3.59,0 21.54,0 25.131,0 3.59,0 3.59,0 3.59,4 0,4 0,12 0,16 0,4 0,4 -3.59,4 -3.591,0 -21.541,0 -25.131,0 -3.59,0 -3.59,0 -3.59,-4 0,-4 0,-12 0,-16 0,-4 0,-4 3.59,-4"
           style="fill:none;fill-opacity:0;stroke:#000000;stroke-width:2"
           inkscape:connector-curvature="0" />
        <path
           id="path9653"
           d="m 932.362,505.78 c 3.59,0 21.54,0 25.131,0 3.59,0 3.59,0 3.59,4 0,4 0,12 0,16 0,4 0,4 -3.59,4 -3.591,0 -21.541,0 -25.131,0 -3.59,0 -3.59,0 -3.59,-4 0,-4 0,-12 0,-16 0,-4 0,-4 3.59,-4"
           style="fill:none;fill-opacity:0;stroke:#000000;stroke-width:0.2"
           inkscape:connector-curvature="0" />
        <line
           id="line9655"
           y2="529.78003"
           x2="957.49298"
           y1="529.78003"
           x1="932.362"
           style="fill:none;fill-opacity:0;stroke:#000000;stroke-width:0.2" />
        <line
           id="line9657"
           y2="525.78003"
           x2="961.08301"
           y1="509.78"
           x1="961.08301"
           style="fill:none;fill-opacity:0;stroke:#000000;stroke-width:0.2" />
        <line
           id="line9659"
           y2="525.78003"
           x2="928.77197"
           y1="509.78"
           x1="928.77197"
           style="fill:none;fill-opacity:0;stroke:#000000;stroke-width:0.2" />
        <line
           id="line9661"
           y2="505.78"
           x2="957.49298"
           y1="505.78"
           x1="932.362"
           style="fill:none;fill-opacity:0;stroke:#000000;stroke-width:0.2" />
        <text
           id="text9663"
           y="521.78003"
           x="944.927"
           style="font-style:normal;font-weight:normal;font-size:12.80000019px;font-family:sans-serif;text-anchor:middle;fill:#000000"
           font-size="12.8">
          <tspan
             id="tspan9665"
             y="521.78003"
             x="944.927" />
        </text>
      </g>
      <g
         id="g9667">
        <path
           id="path9669"
           d="m 883.31,571 c 3.59,0 21.54,0 25.131,0 3.59,0 3.59,0 3.59,4 0,4 0,12 0,16 0,4 0,4 -3.59,4 -3.591,0 -21.541,0 -25.131,0 -3.59,0 -3.59,0 -3.59,-4 0,-4 0,-12 0,-16 0,-4 0,-4 3.59,-4 z"
           style="fill:#ffffff"
           inkscape:connector-curvature="0" />
        <path
           id="path9671"
           d="m 883.31,571 c 3.59,0 21.54,0 25.131,0 3.59,0 3.59,0 3.59,4 0,4 0,12 0,16 0,4 0,4 -3.59,4 -3.591,0 -21.541,0 -25.131,0 -3.59,0 -3.59,0 -3.59,-4 0,-4 0,-12 0,-16 0,-4 0,-4 3.59,-4"
           style="fill:none;fill-opacity:0;stroke:#000000;stroke-width:2"
           inkscape:connector-curvature="0" />
        <path
           id="path9673"
           d="m 883.31,571 c 3.59,0 21.54,0 25.131,0 3.59,0 3.59,0 3.59,4 0,4 0,12 0,16 0,4 0,4 -3.59,4 -3.591,0 -21.541,0 -25.131,0 -3.59,0 -3.59,0 -3.59,-4 0,-4 0,-12 0,-16 0,-4 0,-4 3.59,-4"
           style="fill:none;fill-opacity:0;stroke:#000000;stroke-width:0.2"
           inkscape:connector-curvature="0" />
        <line
           id="line9675"
           y2="595"
           x2="908.44098"
           y1="595"
           x1="883.31"
           style="fill:none;fill-opacity:0;stroke:#000000;stroke-width:0.2" />
        <line
           id="line9677"
           y2="591"
           x2="912.03101"
           y1="575"
           x1="912.03101"
           style="fill:none;fill-opacity:0;stroke:#000000;stroke-width:0.2" />
        <line
           id="line9679"
           y2="591"
           x2="879.71997"
           y1="575"
           x1="879.71997"
           style="fill:none;fill-opacity:0;stroke:#000000;stroke-width:0.2" />
        <line
           id="line9681"
           y2="571"
           x2="908.44098"
           y1="571"
           x1="883.31"
           style="fill:none;fill-opacity:0;stroke:#000000;stroke-width:0.2" />
        <text
           id="text9683"
           y="587"
           x="895.875"
           style="font-style:normal;font-weight:normal;font-size:12.80000019px;font-family:sans-serif;text-anchor:middle;fill:#000000"
           font-size="12.8">
          <tspan
             id="tspan9685"
             y="587"
             x="895.875" />
        </text>
      </g>
      <g
         id="g9687">
        <path
           id="path9689"
           d="m 883.31,600.06 c 3.59,0 21.54,0 25.131,0 3.59,0 3.59,0 3.59,4 0,4 0,12 0,16 0,4 0,4 -3.59,4 -3.591,0 -21.541,0 -25.131,0 -3.59,0 -3.59,0 -3.59,-4 0,-4 0,-12 0,-16 0,-4 0,-4 3.59,-4 z"
           style="fill:#ffffff"
           inkscape:connector-curvature="0" />
        <path
           id="path9691"
           d="m 883.31,600.06 c 3.59,0 21.54,0 25.131,0 3.59,0 3.59,0 3.59,4 0,4 0,12 0,16 0,4 0,4 -3.59,4 -3.591,0 -21.541,0 -25.131,0 -3.59,0 -3.59,0 -3.59,-4 0,-4 0,-12 0,-16 0,-4 0,-4 3.59,-4"
           style="fill:none;fill-opacity:0;stroke:#000000;stroke-width:2"
           inkscape:connector-curvature="0" />
        <path
           id="path9693"
           d="m 883.31,600.06 c 3.59,0 21.54,0 25.131,0 3.59,0 3.59,0 3.59,4 0,4 0,12 0,16 0,4 0,4 -3.59,4 -3.591,0 -21.541,0 -25.131,0 -3.59,0 -3.59,0 -3.59,-4 0,-4 0,-12 0,-16 0,-4 0,-4 3.59,-4"
           style="fill:none;fill-opacity:0;stroke:#000000;stroke-width:0.2"
           inkscape:connector-curvature="0" />
        <line
           id="line9695"
           y2="624.06"
           x2="908.44098"
           y1="624.06"
           x1="883.31"
           style="fill:none;fill-opacity:0;stroke:#000000;stroke-width:0.2" />
        <line
           id="line9697"
           y2="620.06"
           x2="912.03101"
           y1="604.06"
           x1="912.03101"
           style="fill:none;fill-opacity:0;stroke:#000000;stroke-width:0.2" />
        <line
           id="line9699"
           y2="620.06"
           x2="879.71997"
           y1="604.06"
           x1="879.71997"
           style="fill:none;fill-opacity:0;stroke:#000000;stroke-width:0.2" />
        <line
           id="line9701"
           y2="600.06"
           x2="908.44098"
           y1="600.06"
           x1="883.31"
           style="fill:none;fill-opacity:0;stroke:#000000;stroke-width:0.2" />
        <text
           id="text9703"
           y="616.06"
           x="895.875"
           style="font-style:normal;font-weight:normal;font-size:12.80000019px;font-family:sans-serif;text-anchor:middle;fill:#000000"
           font-size="12.8">
          <tspan
             id="tspan9705"
             y="616.06"
             x="895.875" />
        </text>
      </g>
      <g
         id="g9707">
        <path
           id="path9709"
           d="m 883.31,628.822 c 3.59,0 21.54,0 25.131,0 3.59,0 3.59,0 3.59,4 0,4 0,12 0,16 0,4 0,4 -3.59,4 -3.591,0 -21.541,0 -25.131,0 -3.59,0 -3.59,0 -3.59,-4 0,-4 0,-12 0,-16 0,-4 0,-4 3.59,-4 z"
           style="fill:#ffffff"
           inkscape:connector-curvature="0" />
        <path
           id="path9711"
           d="m 883.31,628.822 c 3.59,0 21.54,0 25.131,0 3.59,0 3.59,0 3.59,4 0,4 0,12 0,16 0,4 0,4 -3.59,4 -3.591,0 -21.541,0 -25.131,0 -3.59,0 -3.59,0 -3.59,-4 0,-4 0,-12 0,-16 0,-4 0,-4 3.59,-4"
           style="fill:none;fill-opacity:0;stroke:#000000;stroke-width:2"
           inkscape:connector-curvature="0" />
        <path
           id="path9713"
           d="m 883.31,628.822 c 3.59,0 21.54,0 25.131,0 3.59,0 3.59,0 3.59,4 0,4 0,12 0,16 0,4 0,4 -3.59,4 -3.591,0 -21.541,0 -25.131,0 -3.59,0 -3.59,0 -3.59,-4 0,-4 0,-12 0,-16 0,-4 0,-4 3.59,-4"
           style="fill:none;fill-opacity:0;stroke:#000000;stroke-width:0.2"
           inkscape:connector-curvature="0" />
        <line
           id="line9715"
           y2="652.82202"
           x2="908.44098"
           y1="652.82202"
           x1="883.31"
           style="fill:none;fill-opacity:0;stroke:#000000;stroke-width:0.2" />
        <line
           id="line9717"
           y2="648.82202"
           x2="912.03101"
           y1="632.82202"
           x1="912.03101"
           style="fill:none;fill-opacity:0;stroke:#000000;stroke-width:0.2" />
        <line
           id="line9719"
           y2="648.82202"
           x2="879.71997"
           y1="632.82202"
           x1="879.71997"
           style="fill:none;fill-opacity:0;stroke:#000000;stroke-width:0.2" />
        <line
           id="line9721"
           y2="628.82202"
           x2="908.44098"
           y1="628.82202"
           x1="883.31"
           style="fill:none;fill-opacity:0;stroke:#000000;stroke-width:0.2" />
        <text
           id="text9723"
           y="644.82202"
           x="895.875"
           style="font-style:normal;font-weight:normal;font-size:12.80000019px;font-family:sans-serif;text-anchor:middle;fill:#000000"
           font-size="12.8">
          <tspan
             id="tspan9725"
             y="644.82202"
             x="895.875" />
        </text>
      </g>
      <path
         id="path9727"
         d="m 819.231,520.837 c 46.838,-25.568 67.789,-60.881 108.113,-60.881"
         style="fill:none;fill-opacity:0;stroke:#000000;stroke-width:2;stroke-dasharray:4"
         inkscape:connector-curvature="0" />
      <path
         id="path9729"
         d="m 855.806,518.045 c 31.304,-23.226 44.226,-29.029 71.954,-29.029"
         style="fill:none;fill-opacity:0;stroke:#000000;stroke-width:2;stroke-dasharray:4"
         inkscape:connector-curvature="0" />
      <path
         id="path9731"
         d="m 808.246,556.186 c 43.878,0 76.648,-38.406 120.526,-38.406"
         style="fill:none;fill-opacity:0;stroke:#000000;stroke-width:2;stroke-dasharray:4"
         inkscape:connector-curvature="0" />
      <path
         id="path9733"
         d="M 754.822,606.124 C 801.66,580.556 839.396,583 879.72,583"
         style="fill:none;fill-opacity:0;stroke:#000000;stroke-width:2;stroke-dasharray:4"
         inkscape:connector-curvature="0" />
      <path
         id="path9735"
         d="m 790.914,606.124 c 35.022,-17.756 46.484,-12.714 88.806,5.936"
         style="fill:none;fill-opacity:0;stroke:#000000;stroke-width:2;stroke-dasharray:4"
         inkscape:connector-curvature="0" />
      <line
         id="line9737"
         y2="588.52197"
         x2="693.22998"
         y1="615.01398"
         x1="693.25201"
         style="fill:none;fill-opacity:0;stroke:#000000;stroke-width:2" />
      <line
         id="line9739"
         y2="614.19598"
         x2="743.40601"
         y1="614.354"
         x1="692.25598"
         style="fill:none;fill-opacity:0;stroke:#000000;stroke-width:2" />
      <g
         id="g9741">
        <path
           id="path9743"
           d="m 999.396,547.552 c 3.594,0 21.544,0 25.134,0 3.59,0 3.59,0 3.59,4 0,4 0,12 0,16 0,4 0,4 -3.59,4 -3.59,0 -21.54,0 -25.134,0 -3.59,0 -3.59,0 -3.59,-4 0,-4 0,-12 0,-16 0,-4 0,-4 3.59,-4 z"
           style="fill:#ffffff"
           inkscape:connector-curvature="0" />
        <path
           id="path9745"
           d="m 999.396,547.552 c 3.594,0 21.544,0 25.134,0 3.59,0 3.59,0 3.59,4 0,4 0,12 0,16 0,4 0,4 -3.59,4 -3.59,0 -21.54,0 -25.134,0 -3.59,0 -3.59,0 -3.59,-4 0,-4 0,-12 0,-16 0,-4 0,-4 3.59,-4"
           style="fill:none;fill-opacity:0;stroke:#000000;stroke-width:2"
           inkscape:connector-curvature="0" />
        <path
           id="path9747"
           d="m 999.396,547.552 c 3.594,0 21.544,0 25.134,0 3.59,0 3.59,0 3.59,4 0,4 0,12 0,16 0,4 0,4 -3.59,4 -3.59,0 -21.54,0 -25.134,0 -3.59,0 -3.59,0 -3.59,-4 0,-4 0,-12 0,-16 0,-4 0,-4 3.59,-4"
           style="fill:none;fill-opacity:0;stroke:#000000;stroke-width:0.2"
           inkscape:connector-curvature="0" />
        <line
           id="line9749"
           y2="571.552"
           x2="1024.53"
           y1="571.552"
           x1="999.396"
           style="fill:none;fill-opacity:0;stroke:#000000;stroke-width:0.2" />
        <line
           id="line9751"
           y2="567.552"
           x2="1028.12"
           y1="551.552"
           x1="1028.12"
           style="fill:none;fill-opacity:0;stroke:#000000;stroke-width:0.2" />
        <line
           id="line9753"
           y2="567.552"
           x2="995.80603"
           y1="551.552"
           x1="995.80603"
           style="fill:none;fill-opacity:0;stroke:#000000;stroke-width:0.2" />
        <line
           id="line9755"
           y2="547.552"
           x2="1024.53"
           y1="547.552"
           x1="999.396"
           style="fill:none;fill-opacity:0;stroke:#000000;stroke-width:0.2" />
        <text
           id="text9757"
           y="563.552"
           x="1011.96"
           style="font-style:normal;font-weight:normal;font-size:12.80000019px;font-family:sans-serif;text-anchor:middle;fill:#000000"
           font-size="12.8">
          <tspan
             id="tspan9759"
             y="563.552"
             x="1011.96" />
        </text>
      </g>
      <g
         id="g9761">
        <path
           id="path9763"
           d="m 822.373,493.662 0,-0.965 0.195,-0.779 0.193,-0.488 0.383,-0.58 0.385,-0.392 0.68,-0.587 0.388,-0.192 0.486,-0.193 0.483,-0.094 0.388,0 0.577,0.094 0.388,0.096 0.775,0.289 0.582,0.587 0.387,0.392 0.39,0.676 0.19,0.586 0.193,0.773 0,0.295 0,0.58 -1.16,-0.098 0,-0.482 0,-0.295 -0.099,-0.484 -0.192,-0.289 -0.191,-0.391 -0.199,-0.291 -0.287,-0.292 -0.389,-0.197 -0.388,-0.192 -0.291,-0.096 -0.385,0 -0.483,0 -0.386,0.197 -0.584,0.387 -0.387,0.484 -0.287,0.584 -0.096,0.484 -0.195,0.584 0.092,0.584 -1.156,-0.295 z"
           style="fill:#b7b79d"
           inkscape:connector-curvature="0" />
        <path
           id="path9765"
           d="m 819.758,497.452 2.226,-2.136 10.358,0 -2.228,2.136 -10.356,0 z"
           style="fill:#c9c9b6"
           inkscape:connector-curvature="0" />
        <path
           id="path9767"
           d="m 819.758,497.452 2.226,-2.136 10.358,0 -2.228,2.136 -10.356,0"
           style="fill:none;fill-opacity:0;stroke:#494936;stroke-width:0.02"
           inkscape:connector-curvature="0" />
        <path
           id="path9769"
           d="m 830.114,505.23 2.324,-2.241 0,-7.771 -2.324,2.331 0,7.681 z"
           style="fill:#7a7a5a"
           inkscape:connector-curvature="0" />
        <path
           id="path9771"
           d="m 830.114,505.23 2.324,-2.241 0,-7.771 -2.324,2.331 0,7.681"
           style="fill:none;fill-opacity:0;stroke:#494936;stroke-width:0.02"
           inkscape:connector-curvature="0" />
        <path
           id="path9773"
           d="m 819.758,497.452 0,7.872 10.356,0 0,-7.872 -10.356,0 z"
           style="fill:#b7b79d"
           inkscape:connector-curvature="0" />
        <path
           id="path9775"
           d="m 819.758,497.452 0,7.872 10.356,0 0,-7.872 -10.356,0"
           style="fill:none;fill-opacity:0;stroke:#494936;stroke-width:0.02"
           inkscape:connector-curvature="0" />
        <path
           id="path9777"
           d="m 826.433,500.757 0,-0.059 -0.004,-0.061 -0.007,-0.057 -0.013,-0.057 -0.011,-0.061 -0.018,-0.055 -0.019,-0.057 -0.02,-0.053 -0.024,-0.054 -0.028,-0.051 -0.031,-0.05 -0.031,-0.053 -0.037,-0.043 -0.037,-0.048 -0.04,-0.046 -0.039,-0.042 -0.046,-0.037 -0.044,-0.04 -0.048,-0.032 -0.05,-0.031 -0.053,-0.033 -0.05,-0.024 -0.055,-0.026 -0.054,-0.022 -0.055,-0.02 -0.055,-0.017 -0.059,-0.009 -0.057,-0.011 -0.059,-0.011 -0.057,0 -0.059,-0.004 0,0 -0.057,0.004 -0.063,0 -0.057,0.011 -0.059,0.011 -0.057,0.009 -0.055,0.017 -0.055,0.02 -0.054,0.022 -0.055,0.026 -0.053,0.024 -0.05,0.033 -0.052,0.031 -0.044,0.032 -0.044,0.04 -0.048,0.037 -0.042,0.042 -0.037,0.046 -0.037,0.048 -0.035,0.043 -0.031,0.053 -0.03,0.05 -0.031,0.051 -0.024,0.054 -0.02,0.053 -0.022,0.057 -0.013,0.055 -0.013,0.061 -0.011,0.057 -0.006,0.057 -0.007,0.061 0,0.059 0,0 0,0.057 0.007,0.059 0.006,0.059 0.011,0.059 0.013,0.055 0.013,0.057 0.022,0.057 0.02,0.052 0.024,0.055 0.031,0.052 0.03,0.053 0.031,0.046 0.035,0.05 0.037,0.044 0.037,0.044 0.042,0.041 0.048,0.04 0.044,0.039 0.044,0.035 0.052,0.033 0.05,0.028 0.053,0.027 0.055,0.026 0.054,0.024 0.055,0.018 0.055,0.015 0.057,0.013 0.059,0.011 0.057,0.007 0.063,0.004 0.057,0.002 0,0 0.059,-0.002 0.057,-0.004 0.059,-0.007 0.057,-0.011 0.059,-0.013 0.055,-0.015 0.055,-0.018 0.054,-0.024 0.055,-0.026 0.05,-0.027 0.053,-0.028 0.05,-0.033 0.048,-0.035 0.044,-0.039 0.046,-0.04 0.039,-0.041 0.04,-0.044 0.037,-0.044 0.037,-0.05 0.031,-0.046 0.031,-0.053 0.028,-0.052 0.024,-0.055 0.02,-0.052 0.019,-0.057 0.018,-0.057 0.011,-0.055 0.013,-0.059 0.007,-0.059 0.004,-0.059 0,-0.057 z"
           style="fill:#000000"
           inkscape:connector-curvature="0" />
        <path
           id="path9779"
           d="m 826.337,500.661 0,-0.062 -0.007,-0.056 -0.006,-0.06 -0.007,-0.056 -0.015,-0.062 -0.02,-0.054 -0.02,-0.055 -0.022,-0.055 -0.019,-0.055 -0.029,-0.05 -0.03,-0.05 -0.033,-0.053 -0.031,-0.046 -0.035,-0.048 -0.044,-0.044 -0.041,-0.039 -0.044,-0.042 -0.048,-0.037 -0.046,-0.033 -0.05,-0.035 -0.049,-0.03 -0.05,-0.029 -0.055,-0.024 -0.054,-0.02 -0.055,-0.017 -0.059,-0.022 -0.055,-0.011 -0.057,-0.011 -0.063,-0.004 -0.057,-0.007 -0.059,0 0,0 -0.061,0 -0.055,0.007 -0.057,0.004 -0.059,0.011 -0.055,0.011 -0.061,0.022 -0.055,0.017 -0.055,0.02 -0.054,0.024 -0.048,0.029 -0.055,0.03 -0.044,0.035 -0.048,0.033 -0.044,0.037 -0.046,0.042 -0.044,0.039 -0.037,0.044 -0.041,0.048 -0.031,0.046 -0.035,0.053 -0.026,0.05 -0.031,0.05 -0.024,0.055 -0.022,0.055 -0.015,0.055 -0.018,0.054 -0.017,0.062 -0.007,0.056 -0.006,0.06 -0.011,0.056 0,0.062 0,0 0,0.059 0.011,0.057 0.006,0.059 0.007,0.059 0.017,0.059 0.018,0.055 0.015,0.054 0.022,0.055 0.024,0.055 0.031,0.052 0.026,0.053 0.035,0.052 0.031,0.044 0.041,0.044 0.037,0.048 0.044,0.039 0.046,0.038 0.044,0.039 0.048,0.037 0.044,0.031 0.055,0.033 0.048,0.028 0.054,0.02 0.055,0.024 0.055,0.017 0.061,0.02 0.055,0.011 0.059,0.011 0.057,0.007 0.055,0.006 0.061,0 0,0 0.059,0 0.057,-0.006 0.063,-0.007 0.057,-0.011 0.055,-0.011 0.059,-0.02 0.055,-0.017 0.054,-0.024 0.055,-0.02 0.05,-0.028 0.049,-0.033 0.05,-0.031 0.046,-0.037 0.048,-0.039 0.044,-0.038 0.041,-0.039 0.044,-0.048 0.035,-0.044 0.031,-0.044 0.033,-0.052 0.03,-0.053 0.029,-0.052 0.019,-0.055 0.022,-0.055 0.02,-0.054 0.02,-0.055 0.015,-0.059 0.007,-0.059 0.006,-0.059 0.007,-0.057 0,-0.059"
           style="fill:none;fill-opacity:0;stroke:#000000;stroke-width:0.02"
           inkscape:connector-curvature="0" />
        <path
           id="path9781"
           d="m 824.89,500.468 0.676,0 0,3.495 -0.676,0 0,-3.495 z"
           style="fill:#000000"
           inkscape:connector-curvature="0" />
        <path
           id="path9783"
           d="m 824.89,500.468 0.674,0 0,3.493 -0.674,0 0,-3.493"
           style="fill:none;fill-opacity:0;stroke:#000000;stroke-width:0.02"
           inkscape:connector-curvature="0" />
        <path
           id="path9785"
           d="m 822.373,496.478 1.156,-1.065 1.166,0 -1.166,1.065 -1.156,0 z"
           style="fill:#93936c"
           inkscape:connector-curvature="0" />
        <path
           id="path9787"
           d="m 828.374,496.478 1.158,-1.065 1.162,0 -1.162,1.065 -1.158,0 z"
           style="fill:#93936c"
           inkscape:connector-curvature="0" />
        <path
           id="path9789"
           d="m 829.532,496.478 0,-0.015 0,-0.022 -0.007,-0.019 -0.006,-0.018 -0.007,-0.022 -0.006,-0.017 -0.009,-0.02 -0.013,-0.018 -0.013,-0.017 -0.016,-0.015 -0.019,-0.022 -0.013,-0.016 -0.022,-0.013 -0.02,-0.017 -0.02,-0.013 -0.022,-0.014 -0.022,-0.013 -0.026,-0.011 -0.026,-0.015 -0.029,-0.013 -0.026,-0.009 -0.028,-0.009 -0.029,-0.008 -0.033,-0.005 -0.026,-0.008 -0.03,-0.003 -0.031,-0.004 -0.031,-0.007 -0.033,-0.002 -0.032,0 -0.033,0 0,0 -0.031,0 -0.033,0 -0.032,0.002 -0.029,0.007 -0.033,0.004 -0.028,0.003 -0.033,0.008 -0.031,0.005 -0.026,0.008 -0.031,0.009 -0.028,0.009 -0.024,0.013 -0.026,0.015 -0.024,0.011 -0.024,0.013 -0.02,0.014 -0.024,0.013 -0.018,0.017 -0.019,0.013 -0.018,0.016 -0.017,0.022 -0.018,0.015 -0.013,0.017 -0.011,0.018 -0.011,0.02 -0.009,0.017 -0.004,0.022 -0.007,0.018 -0.006,0.019 0,0.022 0,0.015 0,0 0,0.022 0,0.018 0.006,0.022 0.007,0.019 0.004,0.016 0.009,0.022 0.011,0.017 0.011,0.022 0.013,0.015 0.018,0.018 0.017,0.017 0.018,0.018 0.019,0.015 0.018,0.015 0.024,0.016 0.02,0.013 0.024,0.013 0.024,0.011 0.026,0.013 0.024,0.009 0.028,0.011 0.031,0.011 0.026,0.006 0.031,0.009 0.033,0.004 0.028,0.007 0.033,0.002 0.029,0.002 0.032,0.007 0.033,0.002 0.031,0 0,0 0.033,0 0.032,-0.002 0.033,-0.007 0.031,-0.002 0.031,-0.002 0.03,-0.007 0.026,-0.004 0.033,-0.009 0.029,-0.006 0.028,-0.011 0.026,-0.011 0.029,-0.009 0.026,-0.013 0.026,-0.011 0.022,-0.013 0.022,-0.013 0.02,-0.016 0.02,-0.015 0.022,-0.015 0.013,-0.018 0.019,-0.017 0.016,-0.018 0.013,-0.015 0.013,-0.022 0.009,-0.017 0.006,-0.022 0.007,-0.016 0.006,-0.019 0.007,-0.022 0,-0.018 0,-0.022 z"
           style="fill:#b7b79d"
           inkscape:connector-curvature="0" />
        <path
           id="path9791"
           d="m 829.436,496.387 0,-0.02 0,-0.022 -0.007,-0.018 -0.002,-0.017 -0.011,-0.024 -0.002,-0.018 -0.013,-0.019 -0.009,-0.018 -0.011,-0.017 -0.015,-0.014 -0.018,-0.021 -0.015,-0.018 -0.016,-0.013 -0.019,-0.013 -0.02,-0.018 -0.02,-0.013 -0.022,-0.011 -0.026,-0.015 -0.022,-0.011 -0.026,-0.013 -0.026,-0.011 -0.024,-0.004 -0.024,-0.011 -0.029,-0.005 -0.026,-0.011 -0.028,-0.004 -0.033,-0.007 -0.029,-0.002 -0.028,0 -0.029,-0.002 -0.033,0 0,0 -0.026,0 -0.028,0.002 -0.033,0 -0.028,0.002 -0.031,0.007 -0.031,0.004 -0.024,0.011 -0.03,0.005 -0.025,0.011 -0.024,0.004 -0.028,0.011 -0.02,0.013 -0.024,0.011 -0.024,0.015 -0.024,0.011 -0.02,0.013 -0.022,0.018 -0.015,0.013 -0.017,0.013 -0.014,0.018 -0.017,0.021 -0.013,0.014 -0.011,0.017 -0.011,0.018 -0.013,0.019 -0.007,0.018 -0.006,0.024 -0.005,0.017 -0.006,0.018 0,0.022 0,0.02 0,0 0,0.017 0,0.02 0.006,0.022 0.005,0.017 0.006,0.024 0.007,0.016 0.013,0.017 0.011,0.022 0.011,0.017 0.013,0.014 0.017,0.017 0.014,0.022 0.017,0.013 0.015,0.015 0.022,0.016 0.02,0.013 0.024,0.011 0.024,0.015 0.024,0.013 0.02,0.011 0.028,0.009 0.024,0.006 0.025,0.007 0.03,0.009 0.024,0.004 0.031,0.011 0.031,0 0.028,0.009 0.033,0 0.028,0.002 0.026,0 0,0 0.033,0 0.029,-0.002 0.028,0 0.029,-0.009 0.033,0 0.028,-0.011 0.026,-0.004 0.029,-0.009 0.024,-0.007 0.024,-0.006 0.026,-0.009 0.026,-0.011 0.022,-0.013 0.026,-0.015 0.022,-0.011 0.02,-0.013 0.02,-0.016 0.019,-0.015 0.016,-0.013 0.015,-0.022 0.018,-0.017 0.015,-0.014 0.011,-0.017 0.009,-0.022 0.013,-0.017 0.002,-0.016 0.011,-0.024 0.002,-0.017 0.007,-0.022 0,-0.02 0,-0.017"
           style="fill:none;fill-opacity:0;stroke:#494936;stroke-width:0.02"
           inkscape:connector-curvature="0" />
        <path
           id="path9793"
           d="m 829.525,493.469 -0.002,-0.208 -0.017,-0.203 -0.022,-0.206 -0.035,-0.206 -0.042,-0.199 -0.046,-0.199 -0.063,-0.195 -0.066,-0.195 -0.076,-0.183 -0.088,-0.182 -0.09,-0.186 -0.103,-0.169 -0.109,-0.164 -0.114,-0.164 -0.127,-0.149 -0.127,-0.148 -0.135,-0.138 -0.14,-0.134 -0.156,-0.12 -0.149,-0.114 -0.157,-0.105 -0.169,-0.096 -0.16,-0.086 -0.175,-0.074 -0.17,-0.068 -0.182,-0.061 -0.177,-0.044 -0.182,-0.037 -0.184,-0.022 -0.179,-0.022 -0.184,0 -0.184,0 -0.181,0.022 -0.187,0.022 -0.179,0.037 -0.175,0.044 -0.182,0.061 -0.17,0.068 -0.171,0.074 -0.169,0.086 -0.164,0.096 -0.157,0.105 -0.149,0.114 -0.151,0.12 -0.145,0.134 -0.135,0.138 -0.127,0.148 -0.127,0.149 -0.116,0.164 -0.105,0.164 -0.103,0.169 -0.09,0.186 -0.085,0.182 -0.079,0.183 -0.068,0.195 -0.061,0.195 -0.048,0.199 -0.046,0.199 -0.033,0.206 -0.022,0.206 -0.015,0.203 -0.005,0.208"
           style="fill:none;fill-opacity:0;stroke:#494936;stroke-width:0.02"
           inkscape:connector-curvature="0" />
        <path
           id="path9795"
           d="m 828.374,493.662 1.062,0 0,2.816 -1.062,0 0,-2.816 z"
           style="fill:#b7b79d"
           inkscape:connector-curvature="0" />
        <path
           id="path9797"
           d="m 829.436,496.382 0,-2.913"
           style="fill:none;fill-opacity:0;stroke:#494936;stroke-width:0.02"
           inkscape:connector-curvature="0" />
        <path
           id="path9799"
           d="m 828.276,496.382 0,-2.913"
           style="fill:none;fill-opacity:0;stroke:#000000;stroke-width:0.02"
           inkscape:connector-curvature="0" />
        <path
           id="path9801"
           d="m 823.527,496.478 0,-0.015 0,-0.022 -0.009,-0.019 -0.002,-0.018 -0.007,-0.022 -0.011,-0.017 -0.011,-0.02 -0.009,-0.018 -0.015,-0.017 -0.015,-0.015 -0.018,-0.022 -0.017,-0.016 -0.018,-0.013 -0.019,-0.017 -0.022,-0.013 -0.02,-0.014 -0.026,-0.013 -0.024,-0.011 -0.029,-0.015 -0.024,-0.013 -0.026,-0.009 -0.031,-0.009 -0.028,-0.008 -0.031,-0.005 -0.03,-0.008 -0.031,-0.003 -0.029,-0.004 -0.03,-0.007 -0.033,-0.002 -0.031,0 -0.03,0 0,0 -0.035,0 -0.031,0 -0.035,0.002 -0.026,0.007 -0.031,0.004 -0.03,0.003 -0.031,0.008 -0.031,0.005 -0.028,0.008 -0.031,0.009 -0.028,0.009 -0.022,0.013 -0.029,0.015 -0.026,0.011 -0.022,0.013 -0.024,0.014 -0.02,0.013 -0.017,0.017 -0.02,0.013 -0.017,0.016 -0.018,0.022 -0.017,0.015 -0.013,0.017 -0.011,0.018 -0.009,0.02 -0.011,0.017 -0.007,0.022 -0.004,0.018 -0.007,0.019 -0.002,0.022 0,0.015 0,0 0,0.022 0.002,0.018 0.007,0.022 0.004,0.019 0.007,0.016 0.011,0.022 0.009,0.017 0.011,0.022 0.013,0.015 0.017,0.018 0.018,0.017 0.017,0.018 0.02,0.015 0.017,0.015 0.02,0.016 0.024,0.013 0.022,0.013 0.026,0.011 0.029,0.013 0.022,0.009 0.028,0.011 0.031,0.011 0.028,0.006 0.031,0.009 0.031,0.004 0.03,0.007 0.031,0.002 0.026,0.002 0.035,0.007 0.031,0.002 0.035,0 0,0 0.03,0 0.031,-0.002 0.033,-0.007 0.03,-0.002 0.029,-0.002 0.031,-0.007 0.03,-0.004 0.031,-0.009 0.028,-0.006 0.031,-0.011 0.026,-0.011 0.024,-0.009 0.029,-0.013 0.024,-0.011 0.026,-0.013 0.02,-0.013 0.022,-0.016 0.019,-0.015 0.018,-0.015 0.017,-0.018 0.018,-0.017 0.015,-0.018 0.015,-0.015 0.009,-0.022 0.011,-0.017 0.011,-0.022 0.007,-0.016 0.002,-0.019 0.009,-0.022 0,-0.018 0,-0.022 z"
           style="fill:#b7b79d"
           inkscape:connector-curvature="0" />
        <path
           id="path9803"
           d="m 823.437,496.387 0,-0.02 -0.007,-0.022 0,-0.018 -0.006,-0.017 -0.007,-0.024 -0.009,-0.018 -0.008,-0.019 -0.011,-0.018 -0.011,-0.017 -0.013,-0.014 -0.013,-0.021 -0.018,-0.018 -0.017,-0.013 -0.02,-0.013 -0.022,-0.018 -0.02,-0.013 -0.019,-0.011 -0.025,-0.015 -0.024,-0.011 -0.024,-0.013 -0.028,-0.011 -0.024,-0.004 -0.026,-0.011 -0.031,-0.005 -0.024,-0.011 -0.031,-0.004 -0.03,-0.007 -0.025,-0.002 -0.03,0 -0.031,-0.002 -0.03,0 0,0 -0.031,0 -0.024,0.002 -0.031,0 -0.03,0.002 -0.024,0.007 -0.031,0.004 -0.024,0.011 -0.031,0.005 -0.028,0.011 -0.027,0.004 -0.024,0.011 -0.024,0.013 -0.024,0.011 -0.028,0.015 -0.02,0.011 -0.017,0.013 -0.02,0.018 -0.022,0.013 -0.02,0.013 -0.013,0.018 -0.015,0.021 -0.015,0.014 -0.011,0.017 -0.011,0.018 -0.009,0.019 -0.009,0.018 -0.009,0.024 0,0.017 -0.006,0.018 -0.005,0.022 0,0.02 0,0 0,0.017 0.005,0.02 0.006,0.022 0,0.017 0.009,0.024 0.009,0.016 0.009,0.017 0.011,0.022 0.011,0.017 0.015,0.014 0.015,0.017 0.013,0.022 0.02,0.013 0.022,0.015 0.02,0.016 0.017,0.013 0.02,0.011 0.028,0.015 0.024,0.013 0.024,0.011 0.024,0.009 0.027,0.006 0.028,0.007 0.031,0.009 0.024,0.004 0.031,0.011 0.024,0 0.03,0.009 0.031,0 0.024,0.002 0.031,0 0,0 0.03,0 0.031,-0.002 0.03,0 0.025,-0.009 0.03,0 0.031,-0.011 0.024,-0.004 0.031,-0.009 0.026,-0.007 0.024,-0.006 0.028,-0.009 0.024,-0.011 0.024,-0.013 0.025,-0.015 0.019,-0.011 0.02,-0.013 0.022,-0.016 0.02,-0.015 0.017,-0.013 0.018,-0.022 0.013,-0.017 0.013,-0.014 0.011,-0.017 0.011,-0.022 0.008,-0.017 0.009,-0.016 0.007,-0.024 0.006,-0.017 0,-0.022 0.007,-0.02 0,-0.017"
           style="fill:none;fill-opacity:0;stroke:#494936;stroke-width:0.02"
           inkscape:connector-curvature="0" />
        <path
           id="path9805"
           d="m 822.373,493.662 1.064,0 0,2.816 -1.064,0 0,-2.816 z"
           style="fill:#7a7a5a"
           inkscape:connector-curvature="0" />
        <path
           id="path9807"
           d="m 828.368,493.66 0,-0.154 -0.011,-0.153 -0.013,-0.157 -0.02,-0.149 -0.031,-0.151 -0.035,-0.151 -0.037,-0.145 -0.044,-0.144 -0.054,-0.142 -0.055,-0.136 -0.061,-0.136 -0.066,-0.131 -0.072,-0.127 -0.075,-0.123 -0.083,-0.111 -0.085,-0.11 -0.092,-0.109 -0.096,-0.098 -0.092,-0.095 -0.103,-0.089 -0.11,-0.083 -0.105,-0.07 -0.114,-0.068 -0.109,-0.055 -0.116,-0.055 -0.116,-0.046 -0.12,-0.039 -0.123,-0.033 -0.12,-0.02 -0.123,-0.017 -0.122,-0.009 -0.125,0 -0.123,0.009 -0.118,0.017 -0.125,0.02 -0.118,0.033 -0.125,0.039 -0.118,0.046 -0.109,0.055 -0.114,0.055 -0.116,0.068 -0.103,0.07 -0.109,0.083 -0.099,0.089 -0.096,0.095 -0.098,0.098 -0.09,0.109 -0.086,0.11 -0.078,0.111 -0.075,0.123 -0.076,0.127 -0.064,0.131 -0.063,0.136 -0.055,0.136 -0.05,0.142 -0.044,0.144 -0.042,0.145 -0.03,0.151 -0.031,0.151 -0.024,0.149 -0.013,0.157 -0.009,0.153 -0.002,0.154"
           style="fill:none;fill-opacity:0;stroke:#494936;stroke-width:0.02"
           inkscape:connector-curvature="0" />
        <path
           id="path9809"
           d="m 822.373,493.662 1.064,0 0,2.816 -1.064,0 0,-2.816 z"
           style="fill:#b7b79d"
           inkscape:connector-curvature="0" />
        <path
           id="path9811"
           d="m 822.27,496.382 0,-2.913"
           style="fill:none;fill-opacity:0;stroke:#494936;stroke-width:0.02"
           inkscape:connector-curvature="0" />
        <path
           id="path9813"
           d="m 823.437,496.382 0,-2.913"
           style="fill:none;fill-opacity:0;stroke:#000000;stroke-width:0.02"
           inkscape:connector-curvature="0" />
        <path
           id="path9815"
           d="m 825.79,489.681 -0.171,-0.002 -0.171,0.011 -0.171,0.019 -0.175,0.027 -0.164,0.048 -0.164,0.054 -0.164,0.062 -0.158,0.079 -0.159,0.083 -0.156,0.096 -0.146,0.107 -0.14,0.114 -0.138,0.129 -0.136,0.134 -0.127,0.144 -0.116,0.151 -0.116,0.16 -0.107,0.166 -0.101,0.177 -0.09,0.178 -0.085,0.186"
           style="fill:none;fill-opacity:0;stroke:#dbdbce;stroke-width:0.63999999"
           inkscape:connector-curvature="0" />
      </g>
      <g
         id="g9817">
        <path
           id="path9819"
           d="m 686.497,528.029 0,-0.822 0.166,-0.664 0.164,-0.416 0.327,-0.494 0.328,-0.333 0.579,-0.5 0.33,-0.164 0.414,-0.164 0.412,-0.08 0.33,0 0.492,0.08 0.33,0.082 0.66,0.246 0.495,0.5 0.33,0.333 0.332,0.576 0.162,0.5 0.164,0.658 0,0.251 0,0.494 -0.988,-0.083 0,-0.411 0,-0.251 -0.083,-0.412 -0.164,-0.246 -0.163,-0.334 -0.169,-0.248 -0.244,-0.248 -0.332,-0.167 -0.33,-0.164 -0.248,-0.082 -0.328,0 -0.412,0 -0.328,0.167 -0.498,0.33 -0.33,0.412 -0.244,0.498 -0.082,0.412 -0.166,0.497 0.079,0.498 -0.985,-0.251 z"
           style="fill:#b7b79d"
           inkscape:connector-curvature="0" />
        <path
           id="path9821"
           d="m 684.27,531.257 1.896,-1.819 8.822,0 -1.898,1.819 -8.82,0 z"
           style="fill:#c9c9b6"
           inkscape:connector-curvature="0" />
        <path
           id="path9823"
           d="m 684.27,531.257 1.896,-1.819 8.822,0 -1.898,1.819 -8.82,0"
           style="fill:none;fill-opacity:0;stroke:#494936;stroke-width:0.02"
           inkscape:connector-curvature="0" />
        <path
           id="path9825"
           d="m 693.09,537.881 1.98,-1.908 0,-6.619 -1.98,1.985 0,6.542 z"
           style="fill:#7a7a5a"
           inkscape:connector-curvature="0" />
        <path
           id="path9827"
           d="m 693.09,537.881 1.98,-1.908 0,-6.619 -1.98,1.985 0,6.542"
           style="fill:none;fill-opacity:0;stroke:#494936;stroke-width:0.02"
           inkscape:connector-curvature="0" />
        <path
           id="path9829"
           d="m 684.27,531.257 0,6.704 8.82,0 0,-6.704 -8.82,0 z"
           style="fill:#b7b79d"
           inkscape:connector-curvature="0" />
        <path
           id="path9831"
           d="m 684.27,531.257 0,6.704 8.82,0 0,-6.704 -8.82,0"
           style="fill:none;fill-opacity:0;stroke:#494936;stroke-width:0.02"
           inkscape:connector-curvature="0" />
        <path
           id="path9833"
           d="m 689.955,534.071 0,-0.05 -0.004,-0.052 -0.005,-0.049 -0.011,-0.048 -0.01,-0.052 -0.015,-0.047 -0.017,-0.048 -0.016,-0.045 -0.021,-0.047 -0.024,-0.042 -0.026,-0.043 -0.026,-0.045 -0.032,-0.037 -0.032,-0.041 -0.033,-0.04 -0.034,-0.035 -0.039,-0.032 -0.037,-0.033 -0.041,-0.028 -0.043,-0.026 -0.045,-0.028 -0.043,-0.021 -0.046,-0.022 -0.047,-0.019 -0.046,-0.016 -0.047,-0.015 -0.05,-0.008 -0.049,-0.009 -0.05,-0.009 -0.049,0 -0.05,-0.004 0,0 -0.048,0.004 -0.054,0 -0.049,0.009 -0.05,0.009 -0.049,0.008 -0.046,0.015 -0.047,0.016 -0.046,0.019 -0.047,0.022 -0.045,0.021 -0.043,0.028 -0.044,0.026 -0.038,0.028 -0.037,0.033 -0.041,0.032 -0.035,0.035 -0.032,0.04 -0.032,0.041 -0.03,0.037 -0.026,0.045 -0.026,0.043 -0.026,0.042 -0.02,0.047 -0.017,0.045 -0.019,0.048 -0.011,0.047 -0.011,0.052 -0.009,0.048 -0.006,0.049 -0.006,0.052 0,0.05 0,0 0,0.049 0.006,0.05 0.006,0.051 0.009,0.05 0.011,0.046 0.011,0.049 0.019,0.048 0.017,0.045 0.02,0.047 0.026,0.044 0.026,0.045 0.026,0.039 0.03,0.043 0.032,0.037 0.032,0.038 0.035,0.035 0.041,0.034 0.037,0.033 0.038,0.03 0.044,0.028 0.043,0.024 0.045,0.023 0.047,0.022 0.046,0.021 0.047,0.014 0.046,0.013 0.049,0.012 0.05,0.009 0.049,0.006 0.054,0.003 0.048,0.002 0,0 0.05,-0.002 0.049,-0.003 0.05,-0.006 0.049,-0.009 0.05,-0.012 0.047,-0.013 0.046,-0.014 0.047,-0.021 0.046,-0.022 0.043,-0.023 0.045,-0.024 0.043,-0.028 0.041,-0.03 0.037,-0.033 0.039,-0.034 0.034,-0.035 0.033,-0.038 0.032,-0.037 0.032,-0.043 0.026,-0.039 0.026,-0.045 0.024,-0.044 0.021,-0.047 0.016,-0.045 0.017,-0.048 0.015,-0.049 0.01,-0.046 0.011,-0.05 0.005,-0.051 0.004,-0.05 0,-0.049 z"
           style="fill:#000000"
           inkscape:connector-curvature="0" />
        <path
           id="path9835"
           d="m 689.873,533.989 0,-0.052 -0.006,-0.048 -0.005,-0.051 -0.006,-0.048 -0.013,-0.052 -0.017,-0.047 -0.016,-0.046 -0.019,-0.047 -0.017,-0.047 -0.024,-0.042 -0.026,-0.043 -0.028,-0.045 -0.026,-0.039 -0.03,-0.041 -0.037,-0.038 -0.036,-0.033 -0.037,-0.035 -0.041,-0.032 -0.039,-0.028 -0.043,-0.03 -0.041,-0.026 -0.043,-0.024 -0.046,-0.021 -0.047,-0.017 -0.047,-0.014 -0.05,-0.019 -0.047,-0.009 -0.048,-0.01 -0.054,-0.003 -0.049,-0.006 -0.05,0 0,0 -0.052,0 -0.047,0.006 -0.048,0.003 -0.05,0.01 -0.047,0.009 -0.052,0.019 -0.047,0.014 -0.046,0.017 -0.047,0.021 -0.041,0.024 -0.047,0.026 -0.037,0.03 -0.041,0.028 -0.037,0.032 -0.039,0.035 -0.038,0.033 -0.031,0.038 -0.036,0.041 -0.026,0.039 -0.03,0.045 -0.022,0.043 -0.026,0.042 -0.021,0.047 -0.018,0.047 -0.013,0.046 -0.015,0.047 -0.015,0.052 -0.006,0.048 -0.005,0.051 -0.01,0.048 0,0.052 0,0 0,0.051 0.01,0.048 0.005,0.051 0.006,0.05 0.015,0.05 0.015,0.047 0.013,0.046 0.018,0.047 0.021,0.047 0.026,0.044 0.022,0.045 0.03,0.045 0.026,0.037 0.036,0.037 0.031,0.041 0.038,0.034 0.039,0.032 0.037,0.033 0.041,0.032 0.037,0.026 0.047,0.028 0.041,0.024 0.047,0.017 0.046,0.02 0.047,0.015 0.052,0.017 0.047,0.009 0.05,0.01 0.048,0.005 0.047,0.006 0.052,0 0,0 0.05,0 0.049,-0.006 0.054,-0.005 0.048,-0.01 0.047,-0.009 0.05,-0.017 0.047,-0.015 0.047,-0.02 0.046,-0.017 0.043,-0.024 0.041,-0.028 0.043,-0.026 0.039,-0.032 0.041,-0.033 0.037,-0.032 0.036,-0.034 0.037,-0.041 0.03,-0.037 0.026,-0.037 0.028,-0.045 0.026,-0.045 0.024,-0.044 0.017,-0.047 0.019,-0.047 0.016,-0.046 0.017,-0.047 0.013,-0.05 0.006,-0.05 0.005,-0.051 0.006,-0.048 0,-0.051"
           style="fill:none;fill-opacity:0;stroke:#000000;stroke-width:0.02"
           inkscape:connector-curvature="0" />
        <path
           id="path9837"
           d="m 688.641,533.825 0.576,0 0,2.977 -0.576,0 0,-2.977 z"
           style="fill:#000000"
           inkscape:connector-curvature="0" />
        <path
           id="path9839"
           d="m 688.641,533.825 0.574,0 0,2.975 -0.574,0 0,-2.975"
           style="fill:none;fill-opacity:0;stroke:#000000;stroke-width:0.02"
           inkscape:connector-curvature="0" />
        <path
           id="path9841"
           d="m 686.497,530.427 0.985,-0.907 0.993,0 -0.993,0.907 -0.985,0 z"
           style="fill:#93936c"
           inkscape:connector-curvature="0" />
        <path
           id="path9843"
           d="m 691.608,530.427 0.986,-0.907 0.99,0 -0.99,0.907 -0.986,0 z"
           style="fill:#93936c"
           inkscape:connector-curvature="0" />
        <path
           id="path9845"
           d="m 692.594,530.427 0,-0.013 0,-0.018 -0.005,-0.017 -0.006,-0.015 -0.005,-0.019 -0.006,-0.014 -0.007,-0.017 -0.012,-0.015 -0.011,-0.015 -0.013,-0.013 -0.017,-0.019 -0.011,-0.013 -0.018,-0.011 -0.017,-0.015 -0.017,-0.011 -0.019,-0.011 -0.018,-0.011 -0.023,-0.01 -0.022,-0.013 -0.024,-0.011 -0.023,-0.007 -0.024,-0.008 -0.024,-0.007 -0.028,-0.004 -0.022,-0.008 -0.027,-10e-4 -0.026,-0.004 -0.026,-0.006 -0.028,-0.002 -0.028,0 -0.028,0 0,0 -0.026,0 -0.028,0 -0.028,0.002 -0.024,0.006 -0.028,0.004 -0.024,10e-4 -0.028,0.008 -0.026,0.004 -0.022,0.007 -0.027,0.008 -0.024,0.007 -0.02,0.011 -0.023,0.013 -0.02,0.01 -0.021,0.011 -0.016,0.011 -0.021,0.011 -0.015,0.015 -0.017,0.011 -0.015,0.013 -0.014,0.019 -0.015,0.013 -0.012,0.015 -0.009,0.015 -0.009,0.017 -0.008,0.014 -0.003,0.019 -0.006,0.015 -0.006,0.017 0,0.018 0,0.013 0,0 0,0.019 0,0.015 0.006,0.019 0.006,0.016 0.003,0.013 0.008,0.019 0.009,0.015 0.009,0.019 0.012,0.013 0.015,0.015 0.014,0.014 0.015,0.015 0.017,0.013 0.015,0.014 0.021,0.013 0.016,0.011 0.021,0.011 0.02,0.009 0.023,0.011 0.02,0.008 0.024,0.009 0.027,0.01 0.022,0.005 0.026,0.008 0.028,0.003 0.024,0.006 0.028,0.002 0.024,0.002 0.028,0.005 0.028,0.002 0.026,0 0,0 0.028,0 0.028,-0.002 0.028,-0.005 0.026,-0.002 0.026,-0.002 0.027,-0.006 0.022,-0.003 0.028,-0.008 0.024,-0.005 0.024,-0.01 0.023,-0.009 0.024,-0.008 0.022,-0.011 0.023,-0.009 0.018,-0.011 0.019,-0.011 0.017,-0.013 0.017,-0.014 0.018,-0.013 0.011,-0.015 0.017,-0.014 0.013,-0.015 0.011,-0.013 0.012,-0.019 0.007,-0.015 0.006,-0.019 0.005,-0.013 0.006,-0.016 0.005,-0.019 0,-0.015 0,-0.019 z"
           style="fill:#b7b79d"
           inkscape:connector-curvature="0" />
        <path
           id="path9847"
           d="m 692.512,530.349 0,-0.017 0,-0.018 -0.005,-0.015 -0.002,-0.015 -0.009,-0.021 -0.002,-0.015 -0.011,-0.016 -0.008,-0.015 -0.009,-0.015 -0.013,-0.011 -0.015,-0.019 -0.013,-0.015 -0.013,-0.011 -0.017,-0.011 -0.017,-0.015 -0.017,-0.011 -0.018,-0.01 -0.023,-0.013 -0.018,-0.009 -0.023,-0.011 -0.022,-0.009 -0.021,-0.004 -0.02,-0.01 -0.024,-0.003 -0.023,-0.01 -0.024,-0.003 -0.028,-0.006 -0.024,-0.002 -0.024,0 -0.025,-0.002 -0.027,0 0,0 -0.023,0 -0.024,0.002 -0.028,0 -0.024,0.002 -0.026,0.006 -0.026,0.003 -0.021,0.01 -0.026,0.003 -0.021,0.01 -0.02,0.004 -0.024,0.009 -0.017,0.011 -0.021,0.009 -0.02,0.013 -0.021,0.01 -0.016,0.011 -0.019,0.015 -0.013,0.011 -0.015,0.011 -0.011,0.015 -0.015,0.019 -0.011,0.011 -0.01,0.015 -0.009,0.015 -0.011,0.016 -0.006,0.015 -0.005,0.021 -0.004,0.015 -0.006,0.015 0,0.018 0,0.017 0,0 0,0.015 0,0.017 0.006,0.018 0.004,0.015 0.005,0.021 0.006,0.013 0.011,0.015 0.009,0.018 0.01,0.015 0.011,0.012 0.015,0.014 0.011,0.019 0.015,0.011 0.013,0.013 0.019,0.013 0.016,0.012 0.021,0.009 0.02,0.013 0.021,0.011 0.017,0.009 0.024,0.008 0.02,0.006 0.021,0.005 0.026,0.008 0.021,0.003 0.026,0.01 0.026,0 0.024,0.007 0.028,0 0.024,0.002 0.023,0 0,0 0.027,0 0.025,-0.002 0.024,0 0.024,-0.007 0.028,0 0.024,-0.01 0.023,-0.003 0.024,-0.008 0.02,-0.005 0.021,-0.006 0.022,-0.008 0.023,-0.009 0.018,-0.011 0.023,-0.013 0.018,-0.009 0.017,-0.012 0.017,-0.013 0.017,-0.013 0.013,-0.011 0.013,-0.019 0.015,-0.014 0.013,-0.012 0.009,-0.015 0.008,-0.018 0.011,-0.015 0.002,-0.013 0.009,-0.021 0.002,-0.015 0.005,-0.018 0,-0.017 0,-0.015"
           style="fill:none;fill-opacity:0;stroke:#494936;stroke-width:0.02"
           inkscape:connector-curvature="0" />
        <path
           id="path9849"
           d="m 692.589,527.865 -0.002,-0.178 -0.015,-0.173 -0.019,-0.175 -0.029,-0.175 -0.036,-0.17 -0.039,-0.17 -0.054,-0.165 -0.056,-0.166 -0.065,-0.157 -0.075,-0.155 -0.076,-0.158 -0.088,-0.144 -0.093,-0.139 -0.097,-0.14 -0.108,-0.127 -0.108,-0.127 -0.116,-0.117 -0.119,-0.114 -0.132,-0.102 -0.127,-0.097 -0.134,-0.09 -0.144,-0.082 -0.136,-0.072 -0.149,-0.064 -0.145,-0.058 -0.155,-0.052 -0.151,-0.037 -0.155,-0.032 -0.156,-0.018 -0.153,-0.019 -0.157,0 -0.156,0 -0.155,0.019 -0.159,0.018 -0.152,0.032 -0.149,0.037 -0.155,0.052 -0.146,0.058 -0.145,0.064 -0.143,0.072 -0.14,0.082 -0.134,0.09 -0.127,0.097 -0.129,0.102 -0.123,0.114 -0.115,0.117 -0.109,0.127 -0.108,0.127 -0.098,0.14 -0.09,0.139 -0.087,0.144 -0.077,0.158 -0.073,0.155 -0.067,0.157 -0.057,0.166 -0.053,0.165 -0.041,0.17 -0.039,0.17 -0.028,0.175 -0.018,0.175 -0.013,0.173 -0.004,0.178"
           style="fill:none;fill-opacity:0;stroke:#494936;stroke-width:0.02"
           inkscape:connector-curvature="0" />
        <path
           id="path9851"
           d="m 691.608,528.029 0.904,0 0,2.398 -0.904,0 0,-2.398 z"
           style="fill:#b7b79d"
           inkscape:connector-curvature="0" />
        <path
           id="path9853"
           d="m 692.512,530.345 0,-2.48"
           style="fill:none;fill-opacity:0;stroke:#494936;stroke-width:0.02"
           inkscape:connector-curvature="0" />
        <path
           id="path9855"
           d="m 691.524,530.345 0,-2.48"
           style="fill:none;fill-opacity:0;stroke:#000000;stroke-width:0.02"
           inkscape:connector-curvature="0" />
        <path
           id="path9857"
           d="m 687.48,530.427 0,-0.013 0,-0.018 -0.008,-0.017 -0.002,-0.015 -0.005,-0.019 -0.01,-0.014 -0.009,-0.017 -0.007,-0.015 -0.013,-0.015 -0.013,-0.013 -0.015,-0.019 -0.015,-0.013 -0.015,-0.011 -0.017,-0.015 -0.019,-0.011 -0.016,-0.011 -0.023,-0.011 -0.02,-0.01 -0.024,-0.013 -0.021,-0.011 -0.022,-0.007 -0.026,-0.008 -0.025,-0.007 -0.026,-0.004 -0.026,-0.008 -0.026,-10e-4 -0.024,-0.004 -0.026,-0.006 -0.028,-0.002 -0.026,0 -0.026,0 0,0 -0.03,0 -0.026,0 -0.03,0.002 -0.022,0.006 -0.027,0.004 -0.026,10e-4 -0.026,0.008 -0.026,0.004 -0.024,0.007 -0.026,0.008 -0.024,0.007 -0.019,0.011 -0.024,0.013 -0.023,0.01 -0.018,0.011 -0.021,0.011 -0.017,0.011 -0.015,0.015 -0.016,0.011 -0.015,0.013 -0.015,0.019 -0.015,0.013 -0.011,0.015 -0.01,0.015 -0.007,0.017 -0.009,0.014 -0.006,0.019 -0.004,0.015 -0.005,0.017 -0.002,0.018 0,0.013 0,0 0,0.019 0.002,0.015 0.005,0.019 0.004,0.016 0.006,0.013 0.009,0.019 0.007,0.015 0.01,0.019 0.011,0.013 0.015,0.015 0.015,0.014 0.015,0.015 0.016,0.013 0.015,0.014 0.017,0.013 0.021,0.011 0.018,0.011 0.023,0.009 0.024,0.011 0.019,0.008 0.024,0.009 0.026,0.01 0.024,0.005 0.026,0.008 0.026,0.003 0.026,0.006 0.027,0.002 0.022,0.002 0.03,0.005 0.026,0.002 0.03,0 0,0 0.026,0 0.026,-0.002 0.028,-0.005 0.026,-0.002 0.024,-0.002 0.026,-0.006 0.026,-0.003 0.026,-0.008 0.025,-0.005 0.026,-0.01 0.022,-0.009 0.021,-0.008 0.024,-0.011 0.02,-0.009 0.023,-0.011 0.016,-0.011 0.019,-0.013 0.017,-0.014 0.015,-0.013 0.015,-0.015 0.015,-0.014 0.013,-0.015 0.013,-0.013 0.007,-0.019 0.009,-0.015 0.01,-0.019 0.005,-0.013 0.002,-0.016 0.008,-0.019 0,-0.015 0,-0.019 z"
           style="fill:#b7b79d"
           inkscape:connector-curvature="0" />
        <path
           id="path9859"
           d="m 687.403,530.349 0,-0.017 -0.005,-0.018 0,-0.015 -0.006,-0.015 -0.005,-0.021 -0.008,-0.015 -0.007,-0.016 -0.01,-0.015 -0.009,-0.015 -0.011,-0.011 -0.011,-0.019 -0.015,-0.015 -0.015,-0.011 -0.017,-0.011 -0.019,-0.015 -0.016,-0.011 -0.017,-0.01 -0.021,-0.013 -0.02,-0.009 -0.021,-0.011 -0.024,-0.009 -0.02,-0.004 -0.023,-0.01 -0.026,-0.003 -0.02,-0.01 -0.027,-0.003 -0.026,-0.006 -0.02,-0.002 -0.026,0 -0.026,-0.002 -0.026,0 0,0 -0.026,0 -0.021,0.002 -0.026,0 -0.026,0.002 -0.021,0.006 -0.026,0.003 -0.02,0.01 -0.026,0.003 -0.025,0.01 -0.022,0.004 -0.02,0.009 -0.021,0.011 -0.02,0.009 -0.025,0.013 -0.016,0.01 -0.015,0.011 -0.017,0.015 -0.019,0.011 -0.017,0.011 -0.011,0.015 -0.013,0.019 -0.013,0.011 -0.009,0.015 -0.01,0.015 -0.007,0.016 -0.007,0.015 -0.008,0.021 0,0.015 -0.005,0.015 -0.004,0.018 0,0.017 0,0 0,0.015 0.004,0.017 0.005,0.018 0,0.015 0.008,0.021 0.007,0.013 0.007,0.015 0.01,0.018 0.009,0.015 0.013,0.012 0.013,0.014 0.011,0.019 0.017,0.011 0.019,0.013 0.017,0.013 0.015,0.012 0.016,0.009 0.025,0.013 0.02,0.011 0.021,0.009 0.02,0.008 0.022,0.006 0.025,0.005 0.026,0.008 0.02,0.003 0.026,0.01 0.021,0 0.026,0.007 0.026,0 0.021,0.002 0.026,0 0,0 0.026,0 0.026,-0.002 0.026,0 0.02,-0.007 0.026,0 0.027,-0.01 0.02,-0.003 0.026,-0.008 0.023,-0.005 0.02,-0.006 0.024,-0.008 0.021,-0.009 0.02,-0.011 0.021,-0.013 0.017,-0.009 0.016,-0.012 0.019,-0.013 0.017,-0.013 0.015,-0.011 0.015,-0.019 0.011,-0.014 0.011,-0.012 0.009,-0.015 0.01,-0.018 0.007,-0.015 0.008,-0.013 0.005,-0.021 0.006,-0.015 0,-0.018 0.005,-0.017 0,-0.015"
           style="fill:none;fill-opacity:0;stroke:#494936;stroke-width:0.02"
           inkscape:connector-curvature="0" />
        <path
           id="path9861"
           d="m 686.497,528.029 0.906,0 0,2.398 -0.906,0 0,-2.398 z"
           style="fill:#7a7a5a"
           inkscape:connector-curvature="0" />
        <path
           id="path9863"
           d="m 691.603,528.027 0,-0.131 -0.01,-0.13 -0.011,-0.134 -0.017,-0.127 -0.026,-0.129 -0.029,-0.128 -0.032,-0.123 -0.037,-0.123 -0.047,-0.122 -0.047,-0.115 -0.052,-0.116 -0.056,-0.112 -0.061,-0.108 -0.064,-0.104 -0.07,-0.095 -0.073,-0.093 -0.078,-0.094 -0.082,-0.083 -0.079,-0.081 -0.087,-0.076 -0.094,-0.071 -0.089,-0.059 -0.097,-0.058 -0.093,-0.047 -0.099,-0.046 -0.099,-0.04 -0.102,-0.033 -0.105,-0.028 -0.102,-0.017 -0.104,-0.015 -0.105,-0.007 -0.106,0 -0.105,0.007 -0.1,0.015 -0.106,0.017 -0.101,0.028 -0.106,0.033 -0.101,0.04 -0.093,0.046 -0.097,0.047 -0.099,0.058 -0.087,0.059 -0.094,0.071 -0.084,0.076 -0.082,0.081 -0.083,0.083 -0.077,0.094 -0.073,0.093 -0.067,0.095 -0.063,0.104 -0.065,0.108 -0.054,0.112 -0.054,0.116 -0.047,0.115 -0.043,0.122 -0.037,0.123 -0.036,0.123 -0.026,0.128 -0.026,0.129 -0.02,0.127 -0.011,0.134 -0.008,0.13 -0.002,0.131"
           style="fill:none;fill-opacity:0;stroke:#494936;stroke-width:0.02"
           inkscape:connector-curvature="0" />
        <path
           id="path9865"
           d="m 686.497,528.029 0.906,0 0,2.398 -0.906,0 0,-2.398 z"
           style="fill:#b7b79d"
           inkscape:connector-curvature="0" />
        <path
           id="path9867"
           d="m 686.41,530.345 0,-2.48"
           style="fill:none;fill-opacity:0;stroke:#494936;stroke-width:0.02"
           inkscape:connector-curvature="0" />
        <path
           id="path9869"
           d="m 687.403,530.345 0,-2.48"
           style="fill:none;fill-opacity:0;stroke:#000000;stroke-width:0.02"
           inkscape:connector-curvature="0" />
        <path
           id="path9871"
           d="m 689.407,524.638 -0.145,-0.002 -0.146,0.009 -0.145,0.017 -0.149,0.023 -0.14,0.041 -0.14,0.046 -0.14,0.052 -0.134,0.068 -0.136,0.07 -0.132,0.082 -0.125,0.092 -0.119,0.097 -0.118,0.11 -0.115,0.113 -0.109,0.123 -0.098,0.129 -0.099,0.136 -0.091,0.142 -0.086,0.151 -0.077,0.151 -0.072,0.158"
           style="fill:none;fill-opacity:0;stroke:#dbdbce;stroke-width:0.63999999"
           inkscape:connector-curvature="0" />
      </g>
      <line
         id="line9873"
         y2="614.25598"
         x2="779.26801"
         y1="614.258"
         x1="764.82599"
         style="fill:none;fill-opacity:0;stroke:#000000;stroke-width:2" />
      <line
         id="line9875"
         y2="614.138"
         x2="817.00201"
         y1="614.14203"
         x1="802.55798"
         style="fill:none;fill-opacity:0;stroke:#000000;stroke-width:2" />
      <text
         id="text9877"
         y="613.44"
         x="749.06799"
         style="font-style:normal;font-weight:normal;font-size:6.77333021px;font-family:sans-serif;text-anchor:start;fill:#000000"
         font-size="6.77333">
        <tspan
           id="tspan9879"
           y="613.44"
           x="749.06799">log</tspan>
        <tspan
           id="tspan9881"
           y="621.90698"
           x="749.06799">A</tspan>
      </text>
      <text
         id="text9883"
         y="617.65997"
         x="785.03003"
         style="font-style:normal;font-weight:normal;font-size:8.46667004px;font-family:sans-serif;text-anchor:start;fill:#000000"
         font-size="8.46667">
        <tspan
           id="tspan9885"
           y="617.65997"
           x="785.03003">log</tspan>
      </text>
      <text
         id="text9887"
         y="618.09998"
         x="821.25403"
         style="font-style:normal;font-weight:normal;font-size:8.46667004px;font-family:sans-serif;text-anchor:start;fill:#000000"
         font-size="8.46667">
        <tspan
           id="tspan9889"
           y="618.09998"
           x="821.25403">log</tspan>
      </text>
      <text
         id="text9891"
         y="605.57397"
         x="760.104"
         style="font-style:normal;font-weight:normal;font-size:12.80000019px;font-family:sans-serif;text-anchor:start;fill:#000000"
         font-size="12.8">
        <tspan
           id="tspan9893"
           y="605.57397"
           x="760.104" />
      </text>
    </g>
  </g>
</svg>
