<?xml version="1.0" encoding="UTF-8" standalone="no"?>
<!-- Created with Inkscape (http://www.inkscape.org/) -->

<svg
   xmlns:dc="http://purl.org/dc/elements/1.1/"
   xmlns:cc="http://creativecommons.org/ns#"
   xmlns:rdf="http://www.w3.org/1999/02/22-rdf-syntax-ns#"
   xmlns:svg="http://www.w3.org/2000/svg"
   xmlns="http://www.w3.org/2000/svg"
   xmlns:sodipodi="http://sodipodi.sourceforge.net/DTD/sodipodi-0.dtd"
   xmlns:inkscape="http://www.inkscape.org/namespaces/inkscape"
   width="210mm"
   height="100mm"
   viewBox="0 0 744.09449 354.33071"
   id="svg2"
   version="1.1"
   inkscape:version="0.91 r13725"
   sodipodi:docname="anon_vma.svg">
  <defs
     id="defs4" />
  <sodipodi:namedview
     id="base"
     pagecolor="#ffffff"
     bordercolor="#666666"
     borderopacity="1.0"
     inkscape:pageopacity="0.0"
     inkscape:pageshadow="2"
     inkscape:zoom="1.4"
     inkscape:cx="368.53045"
     inkscape:cy="228.91342"
     inkscape:document-units="px"
     inkscape:current-layer="g9901"
     showgrid="false"
     inkscape:window-width="2880"
     inkscape:window-height="1577"
     inkscape:window-x="0"
     inkscape:window-y="0"
     inkscape:window-maximized="1" />
  <metadata
     id="metadata7">
    <rdf:RDF>
      <cc:Work
         rdf:about="">
        <dc:format>image/svg+xml</dc:format>
        <dc:type
           rdf:resource="http://purl.org/dc/dcmitype/StillImage" />
        <dc:title></dc:title>
      </cc:Work>
    </rdf:RDF>
  </metadata>
  <g
     inkscape:label="Layer 1"
     inkscape:groupmode="layer"
     id="layer1"
     transform="translate(0,-698.0315)">
    <g
       id="g9901"
       transform="matrix(1.7908843,0,0,1.563484,-1125.9026,25.770136)">
      <text
         id="text9489"
         y="482.82999"
         x="685.43799"
         style="font-style:normal;font-weight:normal;font-size:12.80000019px;font-family:sans-serif;text-anchor:start;fill:#000000"
         font-size="12.8">
        <tspan
           id="tspan9491"
           y="482.82999"
           x="685.43799" />
      </text>
      <text
         id="text9891"
         y="605.57397"
         x="760.104"
         style="font-style:normal;font-weight:normal;font-size:12.80000019px;font-family:sans-serif;text-anchor:start;fill:#000000"
         font-size="12.8">
        <tspan
           id="tspan9893"
           y="605.57397"
           x="760.104" />
      </text>
      <g
         id="g16527"
         transform="matrix(0.85948616,0,0,0.87077227,193.60578,15.267496)">
        <g
           id="g16095">
          <ellipse
             id="ellipse16097"
             ry="97.266899"
             rx="96.810898"
             cy="605.15503"
             cx="817.763"
             style="fill:#ffffff" />
          <ellipse
             id="ellipse16099"
             ry="97.266899"
             rx="96.810898"
             cy="605.15503"
             cx="817.763"
             style="fill:none;fill-opacity:0;stroke:#000000;stroke-width:1;stroke-dasharray:4" />
        </g>
        <text
           id="text16101"
           y="485.62"
           x="671.03601"
           style="font-style:normal;font-weight:normal;font-size:7.90221977px;font-family:'TeX Gyre Bonum';text-anchor:start;fill:#000000"
           font-size="7.90222">
          <tspan
             id="tspan16103"
             y="485.62"
             x="671.03601">struct</tspan>
          <tspan
             id="tspan16105"
             y="495.49799"
             x="671.03601">anon_vma</tspan>
        </text>
        <line
           id="line16107"
           y2="498.87799"
           x2="825.69598"
           y1="518.052"
           x1="807.59998"
           style="fill:none;fill-opacity:0;stroke:#000000;stroke-width:2" />
        <line
           id="line16109"
           y2="498.23001"
           x2="825.85797"
           y1="517.49402"
           x1="844.23999"
           style="fill:none;fill-opacity:0;stroke:#000000;stroke-width:2" />
        <g
           id="g16111">
          <path
             id="path16113"
             d="m 676.942,499.628 c 6.11,0 36.661,0 42.771,0 6.111,0 6.111,0 6.111,7.174 0,7.173 0,21.52 0,28.694 0,7.173 0,7.173 -6.111,7.173 -6.11,0 -36.661,0 -42.771,0 -6.11,0 -6.11,0 -6.11,-7.173 0,-7.174 0,-21.521 0,-28.694 0,-7.174 0,-7.174 6.11,-7.174 z"
             style="fill:#ffffff"
             inkscape:connector-curvature="0" />
          <path
             id="path16115"
             d="m 676.942,499.628 c 6.11,0 36.661,0 42.771,0 6.111,0 6.111,0 6.111,7.174 0,7.173 0,21.52 0,28.694 0,7.173 0,7.173 -6.111,7.173 -6.11,0 -36.661,0 -42.771,0 -6.11,0 -6.11,0 -6.11,-7.173 0,-7.174 0,-21.521 0,-28.694 0,-7.174 0,-7.174 6.11,-7.174"
             style="fill:none;fill-opacity:0;stroke:#000000;stroke-width:1"
             inkscape:connector-curvature="0" />
          <path
             id="path16117"
             d="m 676.942,499.628 c 6.11,0 36.661,0 42.771,0 6.111,0 6.111,0 6.111,7.174 0,7.173 0,21.52 0,28.694 0,7.173 0,7.173 -6.111,7.173 -6.11,0 -36.661,0 -42.771,0 -6.11,0 -6.11,0 -6.11,-7.173 0,-7.174 0,-21.521 0,-28.694 0,-7.174 0,-7.174 6.11,-7.174"
             style="fill:none;fill-opacity:0;stroke:#000000;stroke-width:0.1"
             inkscape:connector-curvature="0" />
          <line
             id="line16119"
             y2="542.66901"
             x2="719.71301"
             y1="542.66901"
             x1="676.94202"
             style="fill:none;fill-opacity:0;stroke:#000000;stroke-width:0.1" />
          <line
             id="line16121"
             y2="535.49597"
             x2="725.82397"
             y1="506.802"
             x1="725.82397"
             style="fill:none;fill-opacity:0;stroke:#000000;stroke-width:0.1" />
          <line
             id="line16123"
             y2="535.49597"
             x2="670.83197"
             y1="506.802"
             x1="670.83197"
             style="fill:none;fill-opacity:0;stroke:#000000;stroke-width:0.1" />
          <line
             id="line16125"
             y2="499.62799"
             x2="719.71301"
             y1="499.62799"
             x1="676.94202"
             style="fill:none;fill-opacity:0;stroke:#000000;stroke-width:0.1" />
          <text
             id="text16127"
             y="525.14899"
             x="698.328"
             style="font-style:normal;font-weight:normal;font-size:12.80000019px;font-family:sans-serif;text-anchor:middle;fill:#000000"
             font-size="12.8">
            <tspan
               id="tspan16129"
               y="525.14899"
               x="698.328" />
          </text>
        </g>
        <line
           id="line16131"
           y2="537.29602"
           x2="803.76801"
           y1="546.07599"
           x1="800.44202"
           style="fill:none;fill-opacity:0;stroke:#000000;stroke-width:2" />
        <line
           id="line16133"
           y2="520.948"
           x2="726.27002"
           y1="520.29401"
           x1="674.01599"
           style="fill:none;fill-opacity:0;stroke:#000000;stroke-width:1" />
        <line
           id="line16135"
           y2="497.84601"
           x2="826.85199"
           y1="527.43201"
           x1="727.56799"
           style="fill:none;fill-opacity:0;stroke:#000000;stroke-width:2" />
        <g
           id="g16137">
          <rect
             id="rect16139"
             height="18.265699"
             width="21.264601"
             y="714.23798"
             x="852.60199"
             style="fill:#ffffff" />
          <rect
             id="rect16141"
             height="18.265699"
             width="21.264601"
             y="714.23798"
             x="852.60199"
             style="fill:none;fill-opacity:0;stroke:#000000;stroke-width:2" />
        </g>
        <g
           id="g16143">
          <rect
             id="rect16145"
             height="18.265699"
             width="21.264601"
             y="714.23798"
             x="888.69397"
             style="fill:#ffffff" />
          <rect
             id="rect16147"
             height="18.265699"
             width="21.264601"
             y="714.23798"
             x="888.69397"
             style="fill:none;fill-opacity:0;stroke:#000000;stroke-width:2" />
        </g>
        <g
           id="g16149">
          <rect
             id="rect16151"
             height="18.265699"
             width="21.264601"
             y="714.23798"
             x="924.48798"
             style="fill:#ffffff" />
          <rect
             id="rect16153"
             height="18.265699"
             width="21.264601"
             y="714.23798"
             x="924.48798"
             style="fill:none;fill-opacity:0;stroke:#000000;stroke-width:2" />
        </g>
        <text
           id="text16155"
           y="532.72998"
           x="684.15802"
           style="font-style:normal;font-weight:normal;font-size:7.90221977px;font-family:sans-serif;text-anchor:start;fill:#000000"
           font-size="7.90222">
          <tspan
             id="tspan16157"
             y="532.72998"
             x="684.15802">ROOT</tspan>
        </text>
        <line
           id="line16159"
           y2="723.37201"
           x2="852.60199"
           y1="722.46802"
           x1="800.66803"
           style="fill:none;fill-opacity:0;stroke:#000000;stroke-width:2" />
        <g
           id="g16161">
          <path
             id="path16163"
             d="m 948.896,575.552 c 3.59,0 21.54,0 25.131,0 3.59,0 3.59,0 3.59,4 0,4 0,12 0,16 0,4 0,4 -3.59,4 -3.591,0 -21.541,0 -25.131,0 -3.59,0 -3.59,0 -3.59,-4 0,-4 0,-12 0,-16 0,-4 0,-4 3.59,-4 z"
             style="fill:#ffffff"
             inkscape:connector-curvature="0" />
          <path
             id="path16165"
             d="m 948.896,575.552 c 3.59,0 21.54,0 25.131,0 3.59,0 3.59,0 3.59,4 0,4 0,12 0,16 0,4 0,4 -3.59,4 -3.591,0 -21.541,0 -25.131,0 -3.59,0 -3.59,0 -3.59,-4 0,-4 0,-12 0,-16 0,-4 0,-4 3.59,-4"
             style="fill:none;fill-opacity:0;stroke:#000000;stroke-width:2"
             inkscape:connector-curvature="0" />
          <path
             id="path16167"
             d="m 948.896,575.552 c 3.59,0 21.54,0 25.131,0 3.59,0 3.59,0 3.59,4 0,4 0,12 0,16 0,4 0,4 -3.59,4 -3.591,0 -21.541,0 -25.131,0 -3.59,0 -3.59,0 -3.59,-4 0,-4 0,-12 0,-16 0,-4 0,-4 3.59,-4"
             style="fill:none;fill-opacity:0;stroke:#000000;stroke-width:0.2"
             inkscape:connector-curvature="0" />
          <line
             id="line16169"
             y2="599.552"
             x2="974.02698"
             y1="599.552"
             x1="948.896"
             style="fill:none;fill-opacity:0;stroke:#000000;stroke-width:0.2" />
          <line
             id="line16171"
             y2="595.552"
             x2="977.617"
             y1="579.552"
             x1="977.617"
             style="fill:none;fill-opacity:0;stroke:#000000;stroke-width:0.2" />
          <line
             id="line16173"
             y2="595.552"
             x2="945.30603"
             y1="579.552"
             x1="945.30603"
             style="fill:none;fill-opacity:0;stroke:#000000;stroke-width:0.2" />
          <line
             id="line16175"
             y2="575.552"
             x2="974.02698"
             y1="575.552"
             x1="948.896"
             style="fill:none;fill-opacity:0;stroke:#000000;stroke-width:0.2" />
          <text
             id="text16177"
             y="591.552"
             x="961.461"
             style="font-style:normal;font-weight:normal;font-size:12.80000019px;font-family:sans-serif;text-anchor:middle;fill:#000000"
             font-size="12.8">
            <tspan
               id="tspan16179"
               y="591.552"
               x="961.461" />
          </text>
        </g>
        <g
           id="g16181">
          <path
             id="path16183"
             d="m 822.373,493.662 0,-0.965 0.195,-0.779 0.193,-0.488 0.383,-0.58 0.385,-0.392 0.68,-0.587 0.388,-0.192 0.486,-0.193 0.483,-0.094 0.388,0 0.577,0.094 0.388,0.096 0.775,0.289 0.582,0.587 0.387,0.392 0.39,0.676 0.19,0.586 0.193,0.773 0,0.295 0,0.58 -1.16,-0.098 0,-0.482 0,-0.295 -0.099,-0.484 -0.192,-0.289 -0.191,-0.391 -0.199,-0.291 -0.287,-0.292 -0.389,-0.197 -0.388,-0.192 -0.291,-0.096 -0.385,0 -0.483,0 -0.386,0.197 -0.584,0.387 -0.387,0.484 -0.287,0.584 -0.096,0.484 -0.195,0.584 0.092,0.584 -1.156,-0.295 z"
             style="fill:#b7b79d"
             inkscape:connector-curvature="0" />
          <path
             id="path16185"
             d="m 819.758,497.452 2.226,-2.136 10.358,0 -2.228,2.136 -10.356,0 z"
             style="fill:#c9c9b6"
             inkscape:connector-curvature="0" />
          <path
             id="path16187"
             d="m 819.758,497.452 2.226,-2.136 10.358,0 -2.228,2.136 -10.356,0"
             style="fill:none;fill-opacity:0;stroke:#494936;stroke-width:0.02"
             inkscape:connector-curvature="0" />
          <path
             id="path16189"
             d="m 830.114,505.23 2.324,-2.241 0,-7.771 -2.324,2.331 0,7.681 z"
             style="fill:#7a7a5a"
             inkscape:connector-curvature="0" />
          <path
             id="path16191"
             d="m 830.114,505.23 2.324,-2.241 0,-7.771 -2.324,2.331 0,7.681"
             style="fill:none;fill-opacity:0;stroke:#494936;stroke-width:0.02"
             inkscape:connector-curvature="0" />
          <path
             id="path16193"
             d="m 819.758,497.452 0,7.872 10.356,0 0,-7.872 -10.356,0 z"
             style="fill:#b7b79d"
             inkscape:connector-curvature="0" />
          <path
             id="path16195"
             d="m 819.758,497.452 0,7.872 10.356,0 0,-7.872 -10.356,0"
             style="fill:none;fill-opacity:0;stroke:#494936;stroke-width:0.02"
             inkscape:connector-curvature="0" />
          <path
             id="path16197"
             d="m 826.433,500.757 0,-0.059 -0.004,-0.061 -0.007,-0.057 -0.013,-0.057 -0.011,-0.061 -0.018,-0.055 -0.019,-0.057 -0.02,-0.053 -0.024,-0.054 -0.028,-0.051 -0.031,-0.05 -0.031,-0.053 -0.037,-0.043 -0.037,-0.048 -0.04,-0.046 -0.039,-0.042 -0.046,-0.037 -0.044,-0.04 -0.048,-0.032 -0.05,-0.031 -0.053,-0.033 -0.05,-0.024 -0.055,-0.026 -0.054,-0.022 -0.055,-0.02 -0.055,-0.017 -0.059,-0.009 -0.057,-0.011 -0.059,-0.011 -0.057,0 -0.059,-0.004 0,0 -0.057,0.004 -0.063,0 -0.057,0.011 -0.059,0.011 -0.057,0.009 -0.055,0.017 -0.055,0.02 -0.054,0.022 -0.055,0.026 -0.053,0.024 -0.05,0.033 -0.052,0.031 -0.044,0.032 -0.044,0.04 -0.048,0.037 -0.042,0.042 -0.037,0.046 -0.037,0.048 -0.035,0.043 -0.031,0.053 -0.03,0.05 -0.031,0.051 -0.024,0.054 -0.02,0.053 -0.022,0.057 -0.013,0.055 -0.013,0.061 -0.011,0.057 -0.006,0.057 -0.007,0.061 0,0.059 0,0 0,0.057 0.007,0.059 0.006,0.059 0.011,0.059 0.013,0.055 0.013,0.057 0.022,0.057 0.02,0.052 0.024,0.055 0.031,0.052 0.03,0.053 0.031,0.046 0.035,0.05 0.037,0.044 0.037,0.044 0.042,0.041 0.048,0.04 0.044,0.039 0.044,0.035 0.052,0.033 0.05,0.028 0.053,0.027 0.055,0.026 0.054,0.024 0.055,0.018 0.055,0.015 0.057,0.013 0.059,0.011 0.057,0.007 0.063,0.004 0.057,0.002 0,0 0.059,-0.002 0.057,-0.004 0.059,-0.007 0.057,-0.011 0.059,-0.013 0.055,-0.015 0.055,-0.018 0.054,-0.024 0.055,-0.026 0.05,-0.027 0.053,-0.028 0.05,-0.033 0.048,-0.035 0.044,-0.039 0.046,-0.04 0.039,-0.041 0.04,-0.044 0.037,-0.044 0.037,-0.05 0.031,-0.046 0.031,-0.053 0.028,-0.052 0.024,-0.055 0.02,-0.052 0.019,-0.057 0.018,-0.057 0.011,-0.055 0.013,-0.059 0.007,-0.059 0.004,-0.059 0,-0.057 z"
             style="fill:#000000"
             inkscape:connector-curvature="0" />
          <path
             id="path16199"
             d="m 826.337,500.661 0,-0.062 -0.007,-0.056 -0.006,-0.06 -0.007,-0.056 -0.015,-0.062 -0.02,-0.054 -0.02,-0.055 -0.022,-0.055 -0.019,-0.055 -0.029,-0.05 -0.03,-0.05 -0.033,-0.053 -0.031,-0.046 -0.035,-0.048 -0.044,-0.044 -0.041,-0.039 -0.044,-0.042 -0.048,-0.037 -0.046,-0.033 -0.05,-0.035 -0.049,-0.03 -0.05,-0.029 -0.055,-0.024 -0.054,-0.02 -0.055,-0.017 -0.059,-0.022 -0.055,-0.011 -0.057,-0.011 -0.063,-0.004 -0.057,-0.007 -0.059,0 0,0 -0.061,0 -0.055,0.007 -0.057,0.004 -0.059,0.011 -0.055,0.011 -0.061,0.022 -0.055,0.017 -0.055,0.02 -0.054,0.024 -0.048,0.029 -0.055,0.03 -0.044,0.035 -0.048,0.033 -0.044,0.037 -0.046,0.042 -0.044,0.039 -0.037,0.044 -0.041,0.048 -0.031,0.046 -0.035,0.053 -0.026,0.05 -0.031,0.05 -0.024,0.055 -0.022,0.055 -0.015,0.055 -0.018,0.054 -0.017,0.062 -0.007,0.056 -0.006,0.06 -0.011,0.056 0,0.062 0,0 0,0.059 0.011,0.057 0.006,0.059 0.007,0.059 0.017,0.059 0.018,0.055 0.015,0.054 0.022,0.055 0.024,0.055 0.031,0.052 0.026,0.053 0.035,0.052 0.031,0.044 0.041,0.044 0.037,0.048 0.044,0.039 0.046,0.038 0.044,0.039 0.048,0.037 0.044,0.031 0.055,0.033 0.048,0.028 0.054,0.02 0.055,0.024 0.055,0.017 0.061,0.02 0.055,0.011 0.059,0.011 0.057,0.007 0.055,0.006 0.061,0 0,0 0.059,0 0.057,-0.006 0.063,-0.007 0.057,-0.011 0.055,-0.011 0.059,-0.02 0.055,-0.017 0.054,-0.024 0.055,-0.02 0.05,-0.028 0.049,-0.033 0.05,-0.031 0.046,-0.037 0.048,-0.039 0.044,-0.038 0.041,-0.039 0.044,-0.048 0.035,-0.044 0.031,-0.044 0.033,-0.052 0.03,-0.053 0.029,-0.052 0.019,-0.055 0.022,-0.055 0.02,-0.054 0.02,-0.055 0.015,-0.059 0.007,-0.059 0.006,-0.059 0.007,-0.057 0,-0.059"
             style="fill:none;fill-opacity:0;stroke:#000000;stroke-width:0.02"
             inkscape:connector-curvature="0" />
          <path
             id="path16201"
             d="m 824.89,500.468 0.676,0 0,3.495 -0.676,0 0,-3.495 z"
             style="fill:#000000"
             inkscape:connector-curvature="0" />
          <path
             id="path16203"
             d="m 824.89,500.468 0.674,0 0,3.493 -0.674,0 0,-3.493"
             style="fill:none;fill-opacity:0;stroke:#000000;stroke-width:0.02"
             inkscape:connector-curvature="0" />
          <path
             id="path16205"
             d="m 822.373,496.478 1.156,-1.065 1.166,0 -1.166,1.065 -1.156,0 z"
             style="fill:#93936c"
             inkscape:connector-curvature="0" />
          <path
             id="path16207"
             d="m 828.374,496.478 1.158,-1.065 1.162,0 -1.162,1.065 -1.158,0 z"
             style="fill:#93936c"
             inkscape:connector-curvature="0" />
          <path
             id="path16209"
             d="m 829.532,496.478 0,-0.015 0,-0.022 -0.007,-0.019 -0.006,-0.018 -0.007,-0.022 -0.006,-0.017 -0.009,-0.02 -0.013,-0.018 -0.013,-0.017 -0.016,-0.015 -0.019,-0.022 -0.013,-0.016 -0.022,-0.013 -0.02,-0.017 -0.02,-0.013 -0.022,-0.014 -0.022,-0.013 -0.026,-0.011 -0.026,-0.015 -0.029,-0.013 -0.026,-0.009 -0.028,-0.009 -0.029,-0.008 -0.033,-0.005 -0.026,-0.008 -0.03,-0.003 -0.031,-0.004 -0.031,-0.007 -0.033,-0.002 -0.032,0 -0.033,0 0,0 -0.031,0 -0.033,0 -0.032,0.002 -0.029,0.007 -0.033,0.004 -0.028,0.003 -0.033,0.008 -0.031,0.005 -0.026,0.008 -0.031,0.009 -0.028,0.009 -0.024,0.013 -0.026,0.015 -0.024,0.011 -0.024,0.013 -0.02,0.014 -0.024,0.013 -0.018,0.017 -0.019,0.013 -0.018,0.016 -0.017,0.022 -0.018,0.015 -0.013,0.017 -0.011,0.018 -0.011,0.02 -0.009,0.017 -0.004,0.022 -0.007,0.018 -0.006,0.019 0,0.022 0,0.015 0,0 0,0.022 0,0.018 0.006,0.022 0.007,0.019 0.004,0.016 0.009,0.022 0.011,0.017 0.011,0.022 0.013,0.015 0.018,0.018 0.017,0.017 0.018,0.018 0.019,0.015 0.018,0.015 0.024,0.016 0.02,0.013 0.024,0.013 0.024,0.011 0.026,0.013 0.024,0.009 0.028,0.011 0.031,0.011 0.026,0.006 0.031,0.009 0.033,0.004 0.028,0.007 0.033,0.002 0.029,0.002 0.032,0.007 0.033,0.002 0.031,0 0,0 0.033,0 0.032,-0.002 0.033,-0.007 0.031,-0.002 0.031,-0.002 0.03,-0.007 0.026,-0.004 0.033,-0.009 0.029,-0.006 0.028,-0.011 0.026,-0.011 0.029,-0.009 0.026,-0.013 0.026,-0.011 0.022,-0.013 0.022,-0.013 0.02,-0.016 0.02,-0.015 0.022,-0.015 0.013,-0.018 0.019,-0.017 0.016,-0.018 0.013,-0.015 0.013,-0.022 0.009,-0.017 0.006,-0.022 0.007,-0.016 0.006,-0.019 0.007,-0.022 0,-0.018 0,-0.022 z"
             style="fill:#b7b79d"
             inkscape:connector-curvature="0" />
          <path
             id="path16211"
             d="m 829.436,496.387 0,-0.02 0,-0.022 -0.007,-0.018 -0.002,-0.017 -0.011,-0.024 -0.002,-0.018 -0.013,-0.019 -0.009,-0.018 -0.011,-0.017 -0.015,-0.014 -0.018,-0.021 -0.015,-0.018 -0.016,-0.013 -0.019,-0.013 -0.02,-0.018 -0.02,-0.013 -0.022,-0.011 -0.026,-0.015 -0.022,-0.011 -0.026,-0.013 -0.026,-0.011 -0.024,-0.004 -0.024,-0.011 -0.029,-0.005 -0.026,-0.011 -0.028,-0.004 -0.033,-0.007 -0.029,-0.002 -0.028,0 -0.029,-0.002 -0.033,0 0,0 -0.026,0 -0.028,0.002 -0.033,0 -0.028,0.002 -0.031,0.007 -0.031,0.004 -0.024,0.011 -0.03,0.005 -0.025,0.011 -0.024,0.004 -0.028,0.011 -0.02,0.013 -0.024,0.011 -0.024,0.015 -0.024,0.011 -0.02,0.013 -0.022,0.018 -0.015,0.013 -0.017,0.013 -0.014,0.018 -0.017,0.021 -0.013,0.014 -0.011,0.017 -0.011,0.018 -0.013,0.019 -0.007,0.018 -0.006,0.024 -0.005,0.017 -0.006,0.018 0,0.022 0,0.02 0,0 0,0.017 0,0.02 0.006,0.022 0.005,0.017 0.006,0.024 0.007,0.016 0.013,0.017 0.011,0.022 0.011,0.017 0.013,0.014 0.017,0.017 0.014,0.022 0.017,0.013 0.015,0.015 0.022,0.016 0.02,0.013 0.024,0.011 0.024,0.015 0.024,0.013 0.02,0.011 0.028,0.009 0.024,0.006 0.025,0.007 0.03,0.009 0.024,0.004 0.031,0.011 0.031,0 0.028,0.009 0.033,0 0.028,0.002 0.026,0 0,0 0.033,0 0.029,-0.002 0.028,0 0.029,-0.009 0.033,0 0.028,-0.011 0.026,-0.004 0.029,-0.009 0.024,-0.007 0.024,-0.006 0.026,-0.009 0.026,-0.011 0.022,-0.013 0.026,-0.015 0.022,-0.011 0.02,-0.013 0.02,-0.016 0.019,-0.015 0.016,-0.013 0.015,-0.022 0.018,-0.017 0.015,-0.014 0.011,-0.017 0.009,-0.022 0.013,-0.017 0.002,-0.016 0.011,-0.024 0.002,-0.017 0.007,-0.022 0,-0.02 0,-0.017"
             style="fill:none;fill-opacity:0;stroke:#494936;stroke-width:0.02"
             inkscape:connector-curvature="0" />
          <path
             id="path16213"
             d="m 829.525,493.469 -0.002,-0.208 -0.017,-0.203 -0.022,-0.206 -0.035,-0.206 -0.042,-0.199 -0.046,-0.199 -0.063,-0.195 -0.066,-0.195 -0.076,-0.183 -0.088,-0.182 -0.09,-0.186 -0.103,-0.169 -0.109,-0.164 -0.114,-0.164 -0.127,-0.149 -0.127,-0.148 -0.135,-0.138 -0.14,-0.134 -0.156,-0.12 -0.149,-0.114 -0.157,-0.105 -0.169,-0.096 -0.16,-0.086 -0.175,-0.074 -0.17,-0.068 -0.182,-0.061 -0.177,-0.044 -0.182,-0.037 -0.184,-0.022 -0.179,-0.022 -0.184,0 -0.184,0 -0.181,0.022 -0.187,0.022 -0.179,0.037 -0.175,0.044 -0.182,0.061 -0.17,0.068 -0.171,0.074 -0.169,0.086 -0.164,0.096 -0.157,0.105 -0.149,0.114 -0.151,0.12 -0.145,0.134 -0.135,0.138 -0.127,0.148 -0.127,0.149 -0.116,0.164 -0.105,0.164 -0.103,0.169 -0.09,0.186 -0.085,0.182 -0.079,0.183 -0.068,0.195 -0.061,0.195 -0.048,0.199 -0.046,0.199 -0.033,0.206 -0.022,0.206 -0.015,0.203 -0.005,0.208"
             style="fill:none;fill-opacity:0;stroke:#494936;stroke-width:0.02"
             inkscape:connector-curvature="0" />
          <path
             id="path16215"
             d="m 828.374,493.662 1.062,0 0,2.816 -1.062,0 0,-2.816 z"
             style="fill:#b7b79d"
             inkscape:connector-curvature="0" />
          <path
             id="path16217"
             d="m 829.436,496.382 0,-2.913"
             style="fill:none;fill-opacity:0;stroke:#494936;stroke-width:0.02"
             inkscape:connector-curvature="0" />
          <path
             id="path16219"
             d="m 828.276,496.382 0,-2.913"
             style="fill:none;fill-opacity:0;stroke:#000000;stroke-width:0.02"
             inkscape:connector-curvature="0" />
          <path
             id="path16221"
             d="m 823.527,496.478 0,-0.015 0,-0.022 -0.009,-0.019 -0.002,-0.018 -0.007,-0.022 -0.011,-0.017 -0.011,-0.02 -0.009,-0.018 -0.015,-0.017 -0.015,-0.015 -0.018,-0.022 -0.017,-0.016 -0.018,-0.013 -0.019,-0.017 -0.022,-0.013 -0.02,-0.014 -0.026,-0.013 -0.024,-0.011 -0.029,-0.015 -0.024,-0.013 -0.026,-0.009 -0.031,-0.009 -0.028,-0.008 -0.031,-0.005 -0.03,-0.008 -0.031,-0.003 -0.029,-0.004 -0.03,-0.007 -0.033,-0.002 -0.031,0 -0.03,0 0,0 -0.035,0 -0.031,0 -0.035,0.002 -0.026,0.007 -0.031,0.004 -0.03,0.003 -0.031,0.008 -0.031,0.005 -0.028,0.008 -0.031,0.009 -0.028,0.009 -0.022,0.013 -0.029,0.015 -0.026,0.011 -0.022,0.013 -0.024,0.014 -0.02,0.013 -0.017,0.017 -0.02,0.013 -0.017,0.016 -0.018,0.022 -0.017,0.015 -0.013,0.017 -0.011,0.018 -0.009,0.02 -0.011,0.017 -0.007,0.022 -0.004,0.018 -0.007,0.019 -0.002,0.022 0,0.015 0,0 0,0.022 0.002,0.018 0.007,0.022 0.004,0.019 0.007,0.016 0.011,0.022 0.009,0.017 0.011,0.022 0.013,0.015 0.017,0.018 0.018,0.017 0.017,0.018 0.02,0.015 0.017,0.015 0.02,0.016 0.024,0.013 0.022,0.013 0.026,0.011 0.029,0.013 0.022,0.009 0.028,0.011 0.031,0.011 0.028,0.006 0.031,0.009 0.031,0.004 0.03,0.007 0.031,0.002 0.026,0.002 0.035,0.007 0.031,0.002 0.035,0 0,0 0.03,0 0.031,-0.002 0.033,-0.007 0.03,-0.002 0.029,-0.002 0.031,-0.007 0.03,-0.004 0.031,-0.009 0.028,-0.006 0.031,-0.011 0.026,-0.011 0.024,-0.009 0.029,-0.013 0.024,-0.011 0.026,-0.013 0.02,-0.013 0.022,-0.016 0.019,-0.015 0.018,-0.015 0.017,-0.018 0.018,-0.017 0.015,-0.018 0.015,-0.015 0.009,-0.022 0.011,-0.017 0.011,-0.022 0.007,-0.016 0.002,-0.019 0.009,-0.022 0,-0.018 0,-0.022 z"
             style="fill:#b7b79d"
             inkscape:connector-curvature="0" />
          <path
             id="path16223"
             d="m 823.437,496.387 0,-0.02 -0.007,-0.022 0,-0.018 -0.006,-0.017 -0.007,-0.024 -0.009,-0.018 -0.008,-0.019 -0.011,-0.018 -0.011,-0.017 -0.013,-0.014 -0.013,-0.021 -0.018,-0.018 -0.017,-0.013 -0.02,-0.013 -0.022,-0.018 -0.02,-0.013 -0.019,-0.011 -0.025,-0.015 -0.024,-0.011 -0.024,-0.013 -0.028,-0.011 -0.024,-0.004 -0.026,-0.011 -0.031,-0.005 -0.024,-0.011 -0.031,-0.004 -0.03,-0.007 -0.025,-0.002 -0.03,0 -0.031,-0.002 -0.03,0 0,0 -0.031,0 -0.024,0.002 -0.031,0 -0.03,0.002 -0.024,0.007 -0.031,0.004 -0.024,0.011 -0.031,0.005 -0.028,0.011 -0.027,0.004 -0.024,0.011 -0.024,0.013 -0.024,0.011 -0.028,0.015 -0.02,0.011 -0.017,0.013 -0.02,0.018 -0.022,0.013 -0.02,0.013 -0.013,0.018 -0.015,0.021 -0.015,0.014 -0.011,0.017 -0.011,0.018 -0.009,0.019 -0.009,0.018 -0.009,0.024 0,0.017 -0.006,0.018 -0.005,0.022 0,0.02 0,0 0,0.017 0.005,0.02 0.006,0.022 0,0.017 0.009,0.024 0.009,0.016 0.009,0.017 0.011,0.022 0.011,0.017 0.015,0.014 0.015,0.017 0.013,0.022 0.02,0.013 0.022,0.015 0.02,0.016 0.017,0.013 0.02,0.011 0.028,0.015 0.024,0.013 0.024,0.011 0.024,0.009 0.027,0.006 0.028,0.007 0.031,0.009 0.024,0.004 0.031,0.011 0.024,0 0.03,0.009 0.031,0 0.024,0.002 0.031,0 0,0 0.03,0 0.031,-0.002 0.03,0 0.025,-0.009 0.03,0 0.031,-0.011 0.024,-0.004 0.031,-0.009 0.026,-0.007 0.024,-0.006 0.028,-0.009 0.024,-0.011 0.024,-0.013 0.025,-0.015 0.019,-0.011 0.02,-0.013 0.022,-0.016 0.02,-0.015 0.017,-0.013 0.018,-0.022 0.013,-0.017 0.013,-0.014 0.011,-0.017 0.011,-0.022 0.008,-0.017 0.009,-0.016 0.007,-0.024 0.006,-0.017 0,-0.022 0.007,-0.02 0,-0.017"
             style="fill:none;fill-opacity:0;stroke:#494936;stroke-width:0.02"
             inkscape:connector-curvature="0" />
          <path
             id="path16225"
             d="m 822.373,493.662 1.064,0 0,2.816 -1.064,0 0,-2.816 z"
             style="fill:#7a7a5a"
             inkscape:connector-curvature="0" />
          <path
             id="path16227"
             d="m 828.368,493.66 0,-0.154 -0.011,-0.153 -0.013,-0.157 -0.02,-0.149 -0.031,-0.151 -0.035,-0.151 -0.037,-0.145 -0.044,-0.144 -0.054,-0.142 -0.055,-0.136 -0.061,-0.136 -0.066,-0.131 -0.072,-0.127 -0.075,-0.123 -0.083,-0.111 -0.085,-0.11 -0.092,-0.109 -0.096,-0.098 -0.092,-0.095 -0.103,-0.089 -0.11,-0.083 -0.105,-0.07 -0.114,-0.068 -0.109,-0.055 -0.116,-0.055 -0.116,-0.046 -0.12,-0.039 -0.123,-0.033 -0.12,-0.02 -0.123,-0.017 -0.122,-0.009 -0.125,0 -0.123,0.009 -0.118,0.017 -0.125,0.02 -0.118,0.033 -0.125,0.039 -0.118,0.046 -0.109,0.055 -0.114,0.055 -0.116,0.068 -0.103,0.07 -0.109,0.083 -0.099,0.089 -0.096,0.095 -0.098,0.098 -0.09,0.109 -0.086,0.11 -0.078,0.111 -0.075,0.123 -0.076,0.127 -0.064,0.131 -0.063,0.136 -0.055,0.136 -0.05,0.142 -0.044,0.144 -0.042,0.145 -0.03,0.151 -0.031,0.151 -0.024,0.149 -0.013,0.157 -0.009,0.153 -0.002,0.154"
             style="fill:none;fill-opacity:0;stroke:#494936;stroke-width:0.02"
             inkscape:connector-curvature="0" />
          <path
             id="path16229"
             d="m 822.373,493.662 1.064,0 0,2.816 -1.064,0 0,-2.816 z"
             style="fill:#b7b79d"
             inkscape:connector-curvature="0" />
          <path
             id="path16231"
             d="m 822.27,496.382 0,-2.913"
             style="fill:none;fill-opacity:0;stroke:#494936;stroke-width:0.02"
             inkscape:connector-curvature="0" />
          <path
             id="path16233"
             d="m 823.437,496.382 0,-2.913"
             style="fill:none;fill-opacity:0;stroke:#000000;stroke-width:0.02"
             inkscape:connector-curvature="0" />
          <path
             id="path16235"
             d="m 825.79,489.681 -0.171,-0.002 -0.171,0.011 -0.171,0.019 -0.175,0.027 -0.164,0.048 -0.164,0.054 -0.164,0.062 -0.158,0.079 -0.159,0.083 -0.156,0.096 -0.146,0.107 -0.14,0.114 -0.138,0.129 -0.136,0.134 -0.127,0.144 -0.116,0.151 -0.116,0.16 -0.107,0.166 -0.101,0.177 -0.09,0.178 -0.085,0.186"
             style="fill:none;fill-opacity:0;stroke:#dbdbce;stroke-width:0.63999999"
             inkscape:connector-curvature="0" />
        </g>
        <g
           id="g16237">
          <path
             id="path16239"
             d="m 693.305,506.955 0,-0.822 0.166,-0.664 0.164,-0.416 0.327,-0.494 0.328,-0.333 0.579,-0.5 0.33,-0.164 0.414,-0.164 0.412,-0.08 0.33,0 0.492,0.08 0.33,0.082 0.66,0.246 0.495,0.5 0.33,0.333 0.332,0.576 0.162,0.5 0.164,0.658 0,0.251 0,0.494 -0.988,-0.083 0,-0.411 0,-0.251 -0.083,-0.412 -0.164,-0.246 -0.163,-0.334 -0.169,-0.248 -0.244,-0.248 -0.332,-0.167 -0.33,-0.164 -0.248,-0.082 -0.328,0 -0.412,0 -0.328,0.167 -0.498,0.33 -0.33,0.412 -0.244,0.498 -0.082,0.412 -0.166,0.497 0.079,0.498 -0.985,-0.251 z"
             style="fill:#b7b79d"
             inkscape:connector-curvature="0" />
          <path
             id="path16241"
             d="m 691.078,510.183 1.896,-1.819 8.822,0 -1.898,1.819 -8.82,0 z"
             style="fill:#c9c9b6"
             inkscape:connector-curvature="0" />
          <path
             id="path16243"
             d="m 691.078,510.183 1.896,-1.819 8.822,0 -1.898,1.819 -8.82,0"
             style="fill:none;fill-opacity:0;stroke:#494936;stroke-width:0.02"
             inkscape:connector-curvature="0" />
          <path
             id="path16245"
             d="m 699.898,516.807 1.98,-1.908 0,-6.619 -1.98,1.985 0,6.542 z"
             style="fill:#7a7a5a"
             inkscape:connector-curvature="0" />
          <path
             id="path16247"
             d="m 699.898,516.807 1.98,-1.908 0,-6.619 -1.98,1.985 0,6.542"
             style="fill:none;fill-opacity:0;stroke:#494936;stroke-width:0.02"
             inkscape:connector-curvature="0" />
          <path
             id="path16249"
             d="m 691.078,510.183 0,6.704 8.82,0 0,-6.704 -8.82,0 z"
             style="fill:#b7b79d"
             inkscape:connector-curvature="0" />
          <path
             id="path16251"
             d="m 691.078,510.183 0,6.704 8.82,0 0,-6.704 -8.82,0"
             style="fill:none;fill-opacity:0;stroke:#494936;stroke-width:0.02"
             inkscape:connector-curvature="0" />
          <path
             id="path16253"
             d="m 696.763,512.997 0,-0.05 -0.004,-0.052 -0.005,-0.049 -0.011,-0.048 -0.01,-0.052 -0.015,-0.047 -0.017,-0.048 -0.016,-0.045 -0.021,-0.047 -0.024,-0.042 -0.026,-0.043 -0.026,-0.045 -0.032,-0.037 -0.032,-0.041 -0.033,-0.04 -0.034,-0.035 -0.039,-0.032 -0.037,-0.033 -0.041,-0.028 -0.043,-0.026 -0.045,-0.028 -0.043,-0.021 -0.046,-0.022 -0.047,-0.019 -0.046,-0.016 -0.047,-0.015 -0.05,-0.008 -0.049,-0.009 -0.05,-0.009 -0.049,0 -0.05,-0.004 0,0 -0.048,0.004 -0.054,0 -0.049,0.009 -0.05,0.009 -0.049,0.008 -0.046,0.015 -0.047,0.016 -0.046,0.019 -0.047,0.022 -0.045,0.021 -0.043,0.028 -0.044,0.026 -0.038,0.028 -0.037,0.033 -0.041,0.032 -0.035,0.035 -0.032,0.04 -0.032,0.041 -0.03,0.037 -0.026,0.045 -0.026,0.043 -0.026,0.042 -0.02,0.047 -0.017,0.045 -0.019,0.048 -0.011,0.047 -0.011,0.052 -0.009,0.048 -0.006,0.049 -0.006,0.052 0,0.05 0,0 0,0.049 0.006,0.05 0.006,0.051 0.009,0.05 0.011,0.046 0.011,0.049 0.019,0.048 0.017,0.045 0.02,0.047 0.026,0.044 0.026,0.045 0.026,0.039 0.03,0.043 0.032,0.037 0.032,0.038 0.035,0.035 0.041,0.034 0.037,0.033 0.038,0.03 0.044,0.028 0.043,0.024 0.045,0.023 0.047,0.022 0.046,0.021 0.047,0.014 0.046,0.013 0.049,0.012 0.05,0.009 0.049,0.006 0.054,0.003 0.048,0.002 0,0 0.05,-0.002 0.049,-0.003 0.05,-0.006 0.049,-0.009 0.05,-0.012 0.047,-0.013 0.046,-0.014 0.047,-0.021 0.046,-0.022 0.043,-0.023 0.045,-0.024 0.043,-0.028 0.041,-0.03 0.037,-0.033 0.039,-0.034 0.034,-0.035 0.033,-0.038 0.032,-0.037 0.032,-0.043 0.026,-0.039 0.026,-0.045 0.024,-0.044 0.021,-0.047 0.016,-0.045 0.017,-0.048 0.015,-0.049 0.01,-0.046 0.011,-0.05 0.005,-0.051 0.004,-0.05 0,-0.049 z"
             style="fill:#000000"
             inkscape:connector-curvature="0" />
          <path
             id="path16255"
             d="m 696.681,512.915 0,-0.052 -0.006,-0.048 -0.005,-0.051 -0.006,-0.048 -0.013,-0.052 -0.017,-0.047 -0.016,-0.046 -0.019,-0.047 -0.017,-0.047 -0.024,-0.042 -0.026,-0.043 -0.028,-0.045 -0.026,-0.039 -0.03,-0.041 -0.037,-0.038 -0.036,-0.033 -0.037,-0.035 -0.041,-0.032 -0.039,-0.028 -0.043,-0.03 -0.041,-0.026 -0.043,-0.024 -0.046,-0.021 -0.047,-0.017 -0.047,-0.014 -0.05,-0.019 -0.047,-0.009 -0.048,-0.01 -0.054,-0.003 -0.049,-0.006 -0.05,0 0,0 -0.052,0 -0.047,0.006 -0.048,0.003 -0.05,0.01 -0.047,0.009 -0.052,0.019 -0.047,0.014 -0.046,0.017 -0.047,0.021 -0.041,0.024 -0.047,0.026 -0.037,0.03 -0.041,0.028 -0.037,0.032 -0.039,0.035 -0.038,0.033 -0.031,0.038 -0.036,0.041 -0.026,0.039 -0.03,0.045 -0.022,0.043 -0.026,0.042 -0.021,0.047 -0.018,0.047 -0.013,0.046 -0.015,0.047 -0.015,0.052 -0.006,0.048 -0.005,0.051 -0.01,0.048 0,0.052 0,0 0,0.051 0.01,0.048 0.005,0.051 0.006,0.05 0.015,0.05 0.015,0.047 0.013,0.046 0.018,0.047 0.021,0.047 0.026,0.044 0.022,0.045 0.03,0.045 0.026,0.037 0.036,0.037 0.031,0.041 0.038,0.034 0.039,0.032 0.037,0.033 0.041,0.032 0.037,0.026 0.047,0.028 0.041,0.024 0.047,0.017 0.046,0.02 0.047,0.015 0.052,0.017 0.047,0.009 0.05,0.01 0.048,0.005 0.047,0.006 0.052,0 0,0 0.05,0 0.049,-0.006 0.054,-0.005 0.048,-0.01 0.047,-0.009 0.05,-0.017 0.047,-0.015 0.047,-0.02 0.046,-0.017 0.043,-0.024 0.041,-0.028 0.043,-0.026 0.039,-0.032 0.041,-0.033 0.037,-0.032 0.036,-0.034 0.037,-0.041 0.03,-0.037 0.026,-0.037 0.028,-0.045 0.026,-0.045 0.024,-0.044 0.017,-0.047 0.019,-0.047 0.016,-0.046 0.017,-0.047 0.013,-0.05 0.006,-0.05 0.005,-0.051 0.006,-0.048 0,-0.051"
             style="fill:none;fill-opacity:0;stroke:#000000;stroke-width:0.02"
             inkscape:connector-curvature="0" />
          <path
             id="path16257"
             d="m 695.449,512.751 0.576,0 0,2.977 -0.576,0 0,-2.977 z"
             style="fill:#000000"
             inkscape:connector-curvature="0" />
          <path
             id="path16259"
             d="m 695.449,512.751 0.574,0 0,2.975 -0.574,0 0,-2.975"
             style="fill:none;fill-opacity:0;stroke:#000000;stroke-width:0.02"
             inkscape:connector-curvature="0" />
          <path
             id="path16261"
             d="m 693.305,509.353 0.985,-0.907 0.993,0 -0.993,0.907 -0.985,0 z"
             style="fill:#93936c"
             inkscape:connector-curvature="0" />
          <path
             id="path16263"
             d="m 698.416,509.353 0.986,-0.907 0.99,0 -0.99,0.907 -0.986,0 z"
             style="fill:#93936c"
             inkscape:connector-curvature="0" />
          <path
             id="path16265"
             d="m 699.402,509.353 0,-0.013 0,-0.018 -0.005,-0.017 -0.006,-0.015 -0.005,-0.019 -0.006,-0.014 -0.007,-0.017 -0.012,-0.015 -0.011,-0.015 -0.013,-0.013 -0.017,-0.019 -0.011,-0.013 -0.018,-0.011 -0.017,-0.015 -0.017,-0.011 -0.019,-0.011 -0.018,-0.011 -0.023,-0.01 -0.022,-0.013 -0.024,-0.011 -0.023,-0.007 -0.024,-0.008 -0.024,-0.007 -0.028,-0.004 -0.022,-0.008 -0.027,-0.001 -0.026,-0.004 -0.026,-0.006 -0.028,-0.002 -0.028,0 -0.028,0 0,0 -0.026,0 -0.028,0 -0.028,0.002 -0.024,0.006 -0.028,0.004 -0.024,0.001 -0.028,0.008 -0.026,0.004 -0.022,0.007 -0.027,0.008 -0.024,0.007 -0.02,0.011 -0.023,0.013 -0.02,0.01 -0.021,0.011 -0.016,0.011 -0.021,0.011 -0.015,0.015 -0.017,0.011 -0.015,0.013 -0.014,0.019 -0.015,0.013 -0.012,0.015 -0.009,0.015 -0.009,0.017 -0.008,0.014 -0.003,0.019 -0.006,0.015 -0.006,0.017 0,0.018 0,0.013 0,0 0,0.019 0,0.015 0.006,0.019 0.006,0.016 0.003,0.013 0.008,0.019 0.009,0.015 0.009,0.019 0.012,0.013 0.015,0.015 0.014,0.014 0.015,0.015 0.017,0.013 0.015,0.014 0.021,0.013 0.016,0.011 0.021,0.011 0.02,0.009 0.023,0.011 0.02,0.008 0.024,0.009 0.027,0.01 0.022,0.005 0.026,0.008 0.028,0.003 0.024,0.006 0.028,0.002 0.024,0.002 0.028,0.005 0.028,0.002 0.026,0 0,0 0.028,0 0.028,-0.002 0.028,-0.005 0.026,-0.002 0.026,-0.002 0.027,-0.006 0.022,-0.003 0.028,-0.008 0.024,-0.005 0.024,-0.01 0.023,-0.009 0.024,-0.008 0.022,-0.011 0.023,-0.009 0.018,-0.011 0.019,-0.011 0.017,-0.013 0.017,-0.014 0.018,-0.013 0.011,-0.015 0.017,-0.014 0.013,-0.015 0.011,-0.013 0.012,-0.019 0.007,-0.015 0.006,-0.019 0.005,-0.013 0.006,-0.016 0.005,-0.019 0,-0.015 0,-0.019 z"
             style="fill:#b7b79d"
             inkscape:connector-curvature="0" />
          <path
             id="path16267"
             d="m 699.32,509.275 0,-0.017 0,-0.018 -0.005,-0.015 -0.002,-0.015 -0.009,-0.021 -0.002,-0.015 -0.011,-0.016 -0.008,-0.015 -0.009,-0.015 -0.013,-0.011 -0.015,-0.019 -0.013,-0.015 -0.013,-0.011 -0.017,-0.011 -0.017,-0.015 -0.017,-0.011 -0.018,-0.01 -0.023,-0.013 -0.018,-0.009 -0.023,-0.011 -0.022,-0.009 -0.021,-0.004 -0.02,-0.01 -0.024,-0.003 -0.023,-0.01 -0.024,-0.003 -0.028,-0.006 -0.024,-0.002 -0.024,0 -0.025,-0.002 -0.027,0 0,0 -0.023,0 -0.024,0.002 -0.028,0 -0.024,0.002 -0.026,0.006 -0.026,0.003 -0.021,0.01 -0.026,0.003 -0.021,0.01 -0.02,0.004 -0.024,0.009 -0.017,0.011 -0.021,0.009 -0.02,0.013 -0.021,0.01 -0.016,0.011 -0.019,0.015 -0.013,0.011 -0.015,0.011 -0.011,0.015 -0.015,0.019 -0.011,0.011 -0.01,0.015 -0.009,0.015 -0.011,0.016 -0.006,0.015 -0.005,0.021 -0.004,0.015 -0.006,0.015 0,0.018 0,0.017 0,0 0,0.015 0,0.017 0.006,0.018 0.004,0.015 0.005,0.021 0.006,0.013 0.011,0.015 0.009,0.018 0.01,0.015 0.011,0.012 0.015,0.014 0.011,0.019 0.015,0.011 0.013,0.013 0.019,0.013 0.016,0.012 0.021,0.009 0.02,0.013 0.021,0.011 0.017,0.009 0.024,0.008 0.02,0.006 0.021,0.005 0.026,0.008 0.021,0.003 0.026,0.01 0.026,0 0.024,0.007 0.028,0 0.024,0.002 0.023,0 0,0 0.027,0 0.025,-0.002 0.024,0 0.024,-0.007 0.028,0 0.024,-0.01 0.023,-0.003 0.024,-0.008 0.02,-0.005 0.021,-0.006 0.022,-0.008 0.023,-0.009 0.018,-0.011 0.023,-0.013 0.018,-0.009 0.017,-0.012 0.017,-0.013 0.017,-0.013 0.013,-0.011 0.013,-0.019 0.015,-0.014 0.013,-0.012 0.009,-0.015 0.008,-0.018 0.011,-0.015 0.002,-0.013 0.009,-0.021 0.002,-0.015 0.005,-0.018 0,-0.017 0,-0.015"
             style="fill:none;fill-opacity:0;stroke:#494936;stroke-width:0.02"
             inkscape:connector-curvature="0" />
          <path
             id="path16269"
             d="m 699.397,506.791 -0.002,-0.178 -0.015,-0.173 -0.019,-0.175 -0.029,-0.175 -0.036,-0.17 -0.039,-0.17 -0.054,-0.165 -0.056,-0.166 -0.065,-0.157 -0.075,-0.155 -0.076,-0.158 -0.088,-0.144 -0.093,-0.139 -0.097,-0.14 -0.108,-0.127 -0.108,-0.127 -0.116,-0.117 -0.119,-0.114 -0.132,-0.102 -0.127,-0.097 -0.134,-0.09 -0.144,-0.082 -0.136,-0.072 -0.149,-0.064 -0.145,-0.058 -0.155,-0.052 -0.151,-0.037 -0.155,-0.032 -0.156,-0.018 -0.153,-0.019 -0.157,0 -0.156,0 -0.155,0.019 -0.159,0.018 -0.152,0.032 -0.149,0.037 -0.155,0.052 -0.146,0.058 -0.145,0.064 -0.143,0.072 -0.14,0.082 -0.134,0.09 -0.127,0.097 -0.129,0.102 -0.123,0.114 -0.115,0.117 -0.109,0.127 -0.108,0.127 -0.098,0.14 -0.09,0.139 -0.087,0.144 -0.077,0.158 -0.073,0.155 -0.067,0.157 -0.057,0.166 -0.053,0.165 -0.041,0.17 -0.039,0.17 -0.028,0.175 -0.018,0.175 -0.013,0.173 -0.004,0.178"
             style="fill:none;fill-opacity:0;stroke:#494936;stroke-width:0.02"
             inkscape:connector-curvature="0" />
          <path
             id="path16271"
             d="m 698.416,506.955 0.904,0 0,2.398 -0.904,0 0,-2.398 z"
             style="fill:#b7b79d"
             inkscape:connector-curvature="0" />
          <path
             id="path16273"
             d="m 699.32,509.271 0,-2.48"
             style="fill:none;fill-opacity:0;stroke:#494936;stroke-width:0.02"
             inkscape:connector-curvature="0" />
          <path
             id="path16275"
             d="m 698.332,509.271 0,-2.48"
             style="fill:none;fill-opacity:0;stroke:#000000;stroke-width:0.02"
             inkscape:connector-curvature="0" />
          <path
             id="path16277"
             d="m 694.288,509.353 0,-0.013 0,-0.018 -0.008,-0.017 -0.002,-0.015 -0.005,-0.019 -0.01,-0.014 -0.009,-0.017 -0.007,-0.015 -0.013,-0.015 -0.013,-0.013 -0.015,-0.019 -0.015,-0.013 -0.015,-0.011 -0.017,-0.015 -0.019,-0.011 -0.016,-0.011 -0.023,-0.011 -0.02,-0.01 -0.024,-0.013 -0.021,-0.011 -0.022,-0.007 -0.026,-0.008 -0.025,-0.007 -0.026,-0.004 -0.026,-0.008 -0.026,-0.001 -0.024,-0.004 -0.026,-0.006 -0.028,-0.002 -0.026,0 -0.026,0 0,0 -0.03,0 -0.026,0 -0.03,0.002 -0.022,0.006 -0.027,0.004 -0.026,0.001 -0.026,0.008 -0.026,0.004 -0.024,0.007 -0.026,0.008 -0.024,0.007 -0.019,0.011 -0.024,0.013 -0.023,0.01 -0.018,0.011 -0.021,0.011 -0.017,0.011 -0.015,0.015 -0.016,0.011 -0.015,0.013 -0.015,0.019 -0.015,0.013 -0.011,0.015 -0.01,0.015 -0.007,0.017 -0.009,0.014 -0.006,0.019 -0.004,0.015 -0.005,0.017 -0.002,0.018 0,0.013 0,0 0,0.019 0.002,0.015 0.005,0.019 0.004,0.016 0.006,0.013 0.009,0.019 0.007,0.015 0.01,0.019 0.011,0.013 0.015,0.015 0.015,0.014 0.015,0.015 0.016,0.013 0.015,0.014 0.017,0.013 0.021,0.011 0.018,0.011 0.023,0.009 0.024,0.011 0.019,0.008 0.024,0.009 0.026,0.01 0.024,0.005 0.026,0.008 0.026,0.003 0.026,0.006 0.027,0.002 0.022,0.002 0.03,0.005 0.026,0.002 0.03,0 0,0 0.026,0 0.026,-0.002 0.028,-0.005 0.026,-0.002 0.024,-0.002 0.026,-0.006 0.026,-0.003 0.026,-0.008 0.025,-0.005 0.026,-0.01 0.022,-0.009 0.021,-0.008 0.024,-0.011 0.02,-0.009 0.023,-0.011 0.016,-0.011 0.019,-0.013 0.017,-0.014 0.015,-0.013 0.015,-0.015 0.015,-0.014 0.013,-0.015 0.013,-0.013 0.007,-0.019 0.009,-0.015 0.01,-0.019 0.005,-0.013 0.002,-0.016 0.008,-0.019 0,-0.015 0,-0.019 z"
             style="fill:#b7b79d"
             inkscape:connector-curvature="0" />
          <path
             id="path16279"
             d="m 694.211,509.275 0,-0.017 -0.005,-0.018 0,-0.015 -0.006,-0.015 -0.005,-0.021 -0.008,-0.015 -0.007,-0.016 -0.01,-0.015 -0.009,-0.015 -0.011,-0.011 -0.011,-0.019 -0.015,-0.015 -0.015,-0.011 -0.017,-0.011 -0.019,-0.015 -0.016,-0.011 -0.017,-0.01 -0.021,-0.013 -0.02,-0.009 -0.021,-0.011 -0.024,-0.009 -0.02,-0.004 -0.023,-0.01 -0.026,-0.003 -0.02,-0.01 -0.027,-0.003 -0.026,-0.006 -0.02,-0.002 -0.026,0 -0.026,-0.002 -0.026,0 0,0 -0.026,0 -0.021,0.002 -0.026,0 -0.026,0.002 -0.021,0.006 -0.026,0.003 -0.02,0.01 -0.026,0.003 -0.025,0.01 -0.022,0.004 -0.02,0.009 -0.021,0.011 -0.02,0.009 -0.025,0.013 -0.016,0.01 -0.015,0.011 -0.017,0.015 -0.019,0.011 -0.017,0.011 -0.011,0.015 -0.013,0.019 -0.013,0.011 -0.009,0.015 -0.01,0.015 -0.007,0.016 -0.007,0.015 -0.008,0.021 0,0.015 -0.005,0.015 -0.004,0.018 0,0.017 0,0 0,0.015 0.004,0.017 0.005,0.018 0,0.015 0.008,0.021 0.007,0.013 0.007,0.015 0.01,0.018 0.009,0.015 0.013,0.012 0.013,0.014 0.011,0.019 0.017,0.011 0.019,0.013 0.017,0.013 0.015,0.012 0.016,0.009 0.025,0.013 0.02,0.011 0.021,0.009 0.02,0.008 0.022,0.006 0.025,0.005 0.026,0.008 0.02,0.003 0.026,0.01 0.021,0 0.026,0.007 0.026,0 0.021,0.002 0.026,0 0,0 0.026,0 0.026,-0.002 0.026,0 0.02,-0.007 0.026,0 0.027,-0.01 0.02,-0.003 0.026,-0.008 0.023,-0.005 0.02,-0.006 0.024,-0.008 0.021,-0.009 0.02,-0.011 0.021,-0.013 0.017,-0.009 0.016,-0.012 0.019,-0.013 0.017,-0.013 0.015,-0.011 0.015,-0.019 0.011,-0.014 0.011,-0.012 0.009,-0.015 0.01,-0.018 0.007,-0.015 0.008,-0.013 0.005,-0.021 0.006,-0.015 0,-0.018 0.005,-0.017 0,-0.015"
             style="fill:none;fill-opacity:0;stroke:#494936;stroke-width:0.02"
             inkscape:connector-curvature="0" />
          <path
             id="path16281"
             d="m 693.305,506.955 0.906,0 0,2.398 -0.906,0 0,-2.398 z"
             style="fill:#7a7a5a"
             inkscape:connector-curvature="0" />
          <path
             id="path16283"
             d="m 698.411,506.953 0,-0.131 -0.01,-0.13 -0.011,-0.134 -0.017,-0.127 -0.026,-0.129 -0.029,-0.128 -0.032,-0.123 -0.037,-0.123 -0.047,-0.122 -0.047,-0.115 -0.052,-0.116 -0.056,-0.112 -0.061,-0.108 -0.064,-0.104 -0.07,-0.095 -0.073,-0.093 -0.078,-0.094 -0.082,-0.083 -0.079,-0.081 -0.087,-0.076 -0.094,-0.071 -0.089,-0.059 -0.097,-0.058 -0.093,-0.047 -0.099,-0.046 -0.099,-0.04 -0.102,-0.033 -0.105,-0.028 -0.102,-0.017 -0.104,-0.015 -0.105,-0.007 -0.106,0 -0.105,0.007 -0.1,0.015 -0.106,0.017 -0.101,0.028 -0.106,0.033 -0.101,0.04 -0.093,0.046 -0.097,0.047 -0.099,0.058 -0.087,0.059 -0.094,0.071 -0.084,0.076 -0.082,0.081 -0.083,0.083 -0.077,0.094 -0.073,0.093 -0.067,0.095 -0.063,0.104 -0.065,0.108 -0.054,0.112 -0.054,0.116 -0.047,0.115 -0.043,0.122 -0.037,0.123 -0.036,0.123 -0.026,0.128 -0.026,0.129 -0.02,0.127 -0.011,0.134 -0.008,0.13 -0.002,0.131"
             style="fill:none;fill-opacity:0;stroke:#494936;stroke-width:0.02"
             inkscape:connector-curvature="0" />
          <path
             id="path16285"
             d="m 693.305,506.955 0.906,0 0,2.398 -0.906,0 0,-2.398 z"
             style="fill:#b7b79d"
             inkscape:connector-curvature="0" />
          <path
             id="path16287"
             d="m 693.218,509.271 0,-2.48"
             style="fill:none;fill-opacity:0;stroke:#494936;stroke-width:0.02"
             inkscape:connector-curvature="0" />
          <path
             id="path16289"
             d="m 694.211,509.271 0,-2.48"
             style="fill:none;fill-opacity:0;stroke:#000000;stroke-width:0.02"
             inkscape:connector-curvature="0" />
          <path
             id="path16291"
             d="m 696.215,503.564 -0.145,-0.002 -0.146,0.009 -0.145,0.017 -0.149,0.023 -0.14,0.041 -0.14,0.046 -0.14,0.052 -0.134,0.068 -0.136,0.07 -0.132,0.082 -0.125,0.092 -0.119,0.097 -0.118,0.11 -0.115,0.113 -0.109,0.123 -0.098,0.129 -0.099,0.136 -0.091,0.142 -0.086,0.151 -0.077,0.151 -0.072,0.158"
             style="fill:none;fill-opacity:0;stroke:#dbdbce;stroke-width:0.63999999"
             inkscape:connector-curvature="0" />
        </g>
        <line
           id="line16293"
           y2="723.37201"
           x2="888.69397"
           y1="723.37201"
           x1="873.86603"
           style="fill:none;fill-opacity:0;stroke:#000000;stroke-width:2" />
        <line
           id="line16295"
           y2="723.37201"
           x2="924.48798"
           y1="723.37201"
           x1="909.95801"
           style="fill:none;fill-opacity:0;stroke:#000000;stroke-width:2" />
        <text
           id="text16297"
           y="721.55402"
           x="857.47998"
           style="font-style:normal;font-weight:normal;font-size:6.77333021px;font-family:sans-serif;text-anchor:start;fill:#000000"
           font-size="6.77333">
          <tspan
             id="tspan16299"
             y="721.55402"
             x="857.47998">log</tspan>
          <tspan
             id="tspan16301"
             y="730.021"
             x="857.47998">A</tspan>
        </text>
        <text
           id="text16303"
           y="725.77399"
           x="893.44202"
           style="font-style:normal;font-weight:normal;font-size:8.46667004px;font-family:sans-serif;text-anchor:start;fill:#000000"
           font-size="8.46667">
          <tspan
             id="tspan16305"
             y="725.77399"
             x="893.44202">log</tspan>
        </text>
        <text
           id="text16307"
           y="726.21399"
           x="929.66602"
           style="font-style:normal;font-weight:normal;font-size:8.46667004px;font-family:sans-serif;text-anchor:start;fill:#000000"
           font-size="8.46667">
          <tspan
             id="tspan16309"
             y="726.21399"
             x="929.66602">log</tspan>
        </text>
        <text
           id="text16311"
           y="713.68799"
           x="868.51599"
           style="font-style:normal;font-weight:normal;font-size:12.80000019px;font-family:sans-serif;text-anchor:start;fill:#000000"
           font-size="12.8">
          <tspan
             id="tspan16313"
             y="713.68799"
             x="868.51599" />
        </text>
        <text
           id="text16315"
           y="585.37"
           x="627.05603"
           style="font-style:normal;font-weight:normal;font-size:7.90221977px;font-family:'TeX Gyre Bonum';text-anchor:start;fill:#000000"
           font-size="7.90222">
          <tspan
             id="tspan16317"
             y="585.37"
             x="627.05603">struct</tspan>
          <tspan
             id="tspan16319"
             y="595.24799"
             x="627.05603">anon_vma</tspan>
        </text>
        <line
           id="line16321"
           y2="588.79602"
           x2="779.42798"
           y1="607.776"
           x1="761.69"
           style="fill:none;fill-opacity:0;stroke:#000000;stroke-width:2" />
        <line
           id="line16323"
           y2="589.09399"
           x2="779.87402"
           y1="607.21802"
           x1="798.33197"
           style="fill:none;fill-opacity:0;stroke:#000000;stroke-width:2" />
        <g
           id="g16325">
          <path
             id="path16327"
             d="m 632.96,599.378 c 6.11,0 36.661,0 42.771,0 6.111,0 6.111,0 6.111,7.174 0,7.173 0,21.52 0,28.694 0,7.173 0,7.173 -6.111,7.173 -6.11,0 -36.661,0 -42.771,0 -6.11,0 -6.11,0 -6.11,-7.173 0,-7.174 0,-21.521 0,-28.694 0,-7.174 0,-7.174 6.11,-7.174 z"
             style="fill:#ffffff"
             inkscape:connector-curvature="0" />
          <path
             id="path16329"
             d="m 632.96,599.378 c 6.11,0 36.661,0 42.771,0 6.111,0 6.111,0 6.111,7.174 0,7.173 0,21.52 0,28.694 0,7.173 0,7.173 -6.111,7.173 -6.11,0 -36.661,0 -42.771,0 -6.11,0 -6.11,0 -6.11,-7.173 0,-7.174 0,-21.521 0,-28.694 0,-7.174 0,-7.174 6.11,-7.174"
             style="fill:none;fill-opacity:0;stroke:#000000;stroke-width:1"
             inkscape:connector-curvature="0" />
          <path
             id="path16331"
             d="m 632.96,599.378 c 6.11,0 36.661,0 42.771,0 6.111,0 6.111,0 6.111,7.174 0,7.173 0,21.52 0,28.694 0,7.173 0,7.173 -6.111,7.173 -6.11,0 -36.661,0 -42.771,0 -6.11,0 -6.11,0 -6.11,-7.173 0,-7.174 0,-21.521 0,-28.694 0,-7.174 0,-7.174 6.11,-7.174"
             style="fill:none;fill-opacity:0;stroke:#000000;stroke-width:0.1"
             inkscape:connector-curvature="0" />
          <line
             id="line16333"
             y2="642.41901"
             x2="675.73102"
             y1="642.41901"
             x1="632.96002"
             style="fill:none;fill-opacity:0;stroke:#000000;stroke-width:0.1" />
          <line
             id="line16335"
             y2="635.24597"
             x2="681.84198"
             y1="606.552"
             x1="681.84198"
             style="fill:none;fill-opacity:0;stroke:#000000;stroke-width:0.1" />
          <line
             id="line16337"
             y2="635.24597"
             x2="626.84998"
             y1="606.552"
             x1="626.84998"
             style="fill:none;fill-opacity:0;stroke:#000000;stroke-width:0.1" />
          <line
             id="line16339"
             y2="599.37799"
             x2="675.73102"
             y1="599.37799"
             x1="632.96002"
             style="fill:none;fill-opacity:0;stroke:#000000;stroke-width:0.1" />
          <text
             id="text16341"
             y="624.89899"
             x="654.34601"
             style="font-style:normal;font-weight:normal;font-size:12.80000019px;font-family:sans-serif;text-anchor:middle;fill:#000000"
             font-size="12.8">
            <tspan
               id="tspan16343"
               y="624.89899"
               x="654.34601" />
          </text>
        </g>
        <line
           id="line16345"
           y2="627.02002"
           x2="757.85999"
           y1="635.79999"
           x1="754.534"
           style="fill:none;fill-opacity:0;stroke:#000000;stroke-width:2" />
        <line
           id="line16347"
           y2="620.89801"
           x2="681.84198"
           y1="620.04199"
           x1="630.03601"
           style="fill:none;fill-opacity:0;stroke:#000000;stroke-width:1" />
        <line
           id="line16349"
           y2="588.94598"
           x2="780.91602"
           y1="617.15601"
           x1="681.65997"
           style="fill:none;fill-opacity:0;stroke:#000000;stroke-width:2" />
        <text
           id="text16351"
           y="632.47803"
           x="640.17798"
           style="font-style:normal;font-weight:normal;font-size:7.90221977px;font-family:sans-serif;text-anchor:start;fill:#000000"
           font-size="7.90222">
          <tspan
             id="tspan16353"
             y="632.47803"
             x="640.17798">ROOT</tspan>
        </text>
        <line
           id="line16355"
           y2="573.664"
           x2="872.11603"
           y1="592.64398"
           x1="854.37598"
           style="fill:none;fill-opacity:0;stroke:#000000;stroke-width:2" />
        <line
           id="line16357"
           y2="573.96198"
           x2="872.56201"
           y1="592.086"
           x1="891.01801"
           style="fill:none;fill-opacity:0;stroke:#000000;stroke-width:2" />
        <line
           id="line16359"
           y2="611.90399"
           x2="850.53998"
           y1="620.66803"
           x1="847.21997"
           style="fill:none;fill-opacity:0;stroke:#000000;stroke-width:2" />
        <line
           id="line16361"
           y2="575.57397"
           x2="873.63"
           y1="575.96002"
           x1="697.43402"
           style="fill:none;fill-opacity:0;stroke:#000000;stroke-width:2" />
        <g
           id="g16363">
          <circle
             id="ellipse16365"
             cy="527.49103"
             cx="806.54498"
             style="fill:#ffffff"
             r="10.0193" />
          <circle
             id="ellipse16367"
             cy="527.49103"
             cx="806.54498"
             style="fill:none;fill-opacity:0;stroke:#000000;stroke-width:1"
             r="10.0193" />
          <circle
             id="ellipse16369"
             cy="527.49103"
             cx="806.54498"
             style="fill:none;fill-opacity:0;stroke:#000000;stroke-width:1"
             r="10.0193" />
        </g>
        <g
           id="g16371">
          <circle
             id="ellipse16373"
             cy="526.76099"
             cx="845.255"
             style="fill:#ffffff"
             r="10.0193" />
          <circle
             id="ellipse16375"
             cy="526.76099"
             cx="845.255"
             style="fill:none;fill-opacity:0;stroke:#000000;stroke-width:1"
             r="10.0193" />
          <circle
             id="ellipse16377"
             cy="526.76099"
             cx="845.255"
             style="fill:none;fill-opacity:0;stroke:#000000;stroke-width:1"
             r="10.0193" />
        </g>
        <g
           id="g16379">
          <circle
             id="ellipse16381"
             cy="554.56299"
             cx="797.07898"
             style="fill:#ffffff"
             r="10.0193" />
          <circle
             id="ellipse16383"
             cy="554.56299"
             cx="797.07898"
             style="fill:none;fill-opacity:0;stroke:#000000;stroke-width:1"
             r="10.0193" />
          <circle
             id="ellipse16385"
             cy="554.56299"
             cx="797.07898"
             style="fill:none;fill-opacity:0;stroke:#000000;stroke-width:1"
             r="10.0193" />
        </g>
        <g
           id="g16387">
          <circle
             id="ellipse16389"
             cy="616.729"
             cx="760.24902"
             style="fill:#ffffff"
             r="10.0193" />
          <circle
             id="ellipse16391"
             cy="616.729"
             cx="760.24902"
             style="fill:none;fill-opacity:0;stroke:#000000;stroke-width:1"
             r="10.0193" />
          <circle
             id="ellipse16393"
             cy="616.729"
             cx="760.24902"
             style="fill:none;fill-opacity:0;stroke:#000000;stroke-width:1"
             r="10.0193" />
        </g>
        <g
           id="g16395">
          <circle
             id="ellipse16397"
             cy="614.703"
             cx="799.28302"
             style="fill:#ffffff"
             r="10.0193" />
          <circle
             id="ellipse16399"
             cy="614.703"
             cx="799.28302"
             style="fill:none;fill-opacity:0;stroke:#000000;stroke-width:1"
             r="10.0193" />
          <circle
             id="ellipse16401"
             cy="614.703"
             cx="799.28302"
             style="fill:none;fill-opacity:0;stroke:#000000;stroke-width:1"
             r="10.0193" />
        </g>
        <g
           id="g16403">
          <circle
             id="ellipse16405"
             cy="644.125"
             cx="752.72699"
             style="fill:#ffffff"
             r="10.0193" />
          <circle
             id="ellipse16407"
             cy="644.125"
             cx="752.72699"
             style="fill:none;fill-opacity:0;stroke:#000000;stroke-width:1"
             r="10.0193" />
          <circle
             id="ellipse16409"
             cy="644.125"
             cx="752.72699"
             style="fill:none;fill-opacity:0;stroke:#000000;stroke-width:1"
             r="10.0193" />
        </g>
        <g
           id="g16411">
          <circle
             id="ellipse16413"
             cy="602.54498"
             cx="853.685"
             style="fill:#ffffff"
             r="10.0193" />
          <circle
             id="ellipse16415"
             cy="602.54498"
             cx="853.685"
             style="fill:none;fill-opacity:0;stroke:#000000;stroke-width:1"
             r="10.0193" />
          <circle
             id="ellipse16417"
             cy="602.54498"
             cx="853.685"
             style="fill:none;fill-opacity:0;stroke:#000000;stroke-width:1"
             r="10.0193" />
        </g>
        <g
           id="g16419">
          <circle
             id="ellipse16421"
             cy="599.547"
             cx="890.77502"
             style="fill:#ffffff"
             r="10.0193" />
          <circle
             id="ellipse16423"
             cy="599.547"
             cx="890.77502"
             style="fill:none;fill-opacity:0;stroke:#000000;stroke-width:1"
             r="10.0193" />
          <circle
             id="ellipse16425"
             cy="599.547"
             cx="890.77502"
             style="fill:none;fill-opacity:0;stroke:#000000;stroke-width:1"
             r="10.0193" />
        </g>
        <g
           id="g16427">
          <circle
             id="ellipse16429"
             cy="628.96899"
             cx="845.51501"
             style="fill:#ffffff"
             r="10.0193" />
          <circle
             id="ellipse16431"
             cy="628.96899"
             cx="845.51501"
             style="fill:none;fill-opacity:0;stroke:#000000;stroke-width:1"
             r="10.0193" />
          <circle
             id="ellipse16433"
             cy="628.96899"
             cx="845.51501"
             style="fill:none;fill-opacity:0;stroke:#000000;stroke-width:1"
             r="10.0193" />
        </g>
        <text
           id="text16435"
           y="677.25598"
           x="633.24799"
           style="font-style:normal;font-weight:normal;font-size:7.90221977px;font-family:'TeX Gyre Bonum';text-anchor:start;fill:#000000"
           font-size="7.90222">
          <tspan
             id="tspan16437"
             y="677.25598"
             x="633.24799">struct page</tspan>
        </text>
        <g
           id="g16439">
          <path
             id="path16441"
             d="m 651.354,683.33 c 2.976,0 17.856,0 20.832,0 2.975,0 2.975,0 2.975,3.818 0,3.818 0,11.455 0,15.273 0,3.818 0,3.818 -2.975,3.818 -2.976,0 -17.856,0 -20.832,0 -2.976,0 -2.976,0 -2.976,-3.818 0,-3.818 0,-11.455 0,-15.273 0,-3.818 0,-3.818 2.976,-3.818 z"
             style="fill:#ffffff"
             inkscape:connector-curvature="0" />
          <path
             id="path16443"
             d="m 651.354,683.33 c 2.976,0 17.856,0 20.832,0 2.975,0 2.975,0 2.975,3.818 0,3.818 0,11.455 0,15.273 0,3.818 0,3.818 -2.975,3.818 -2.976,0 -17.856,0 -20.832,0 -2.976,0 -2.976,0 -2.976,-3.818 0,-3.818 0,-11.455 0,-15.273 0,-3.818 0,-3.818 2.976,-3.818"
             style="fill:none;fill-opacity:0;stroke:#000000;stroke-width:1"
             inkscape:connector-curvature="0" />
          <path
             id="path16445"
             d="m 651.354,683.33 c 2.976,0 17.856,0 20.832,0 2.975,0 2.975,0 2.975,3.818 0,3.818 0,11.455 0,15.273 0,3.818 0,3.818 -2.975,3.818 -2.976,0 -17.856,0 -20.832,0 -2.976,0 -2.976,0 -2.976,-3.818 0,-3.818 0,-11.455 0,-15.273 0,-3.818 0,-3.818 2.976,-3.818"
             style="fill:none;fill-opacity:0;stroke:#000000;stroke-width:0.1"
             inkscape:connector-curvature="0" />
          <line
             id="line16447"
             y2="706.23901"
             x2="672.18597"
             y1="706.23901"
             x1="651.354"
             style="fill:none;fill-opacity:0;stroke:#000000;stroke-width:0.1" />
          <line
             id="line16449"
             y2="702.42102"
             x2="675.16101"
             y1="687.14801"
             x1="675.16101"
             style="fill:none;fill-opacity:0;stroke:#000000;stroke-width:0.1" />
          <line
             id="line16451"
             y2="702.42102"
             x2="648.37799"
             y1="687.14801"
             x1="648.37799"
             style="fill:none;fill-opacity:0;stroke:#000000;stroke-width:0.1" />
          <line
             id="line16453"
             y2="683.33002"
             x2="672.18597"
             y1="683.33002"
             x1="651.354"
             style="fill:none;fill-opacity:0;stroke:#000000;stroke-width:0.1" />
          <text
             id="text16455"
             y="698.78497"
             x="661.77002"
             style="font-style:normal;font-weight:normal;font-size:12.80000019px;font-family:sans-serif;text-anchor:middle;fill:#000000"
             font-size="12.8">
            <tspan
               id="tspan16457"
               y="698.78497"
               x="661.77002" />
          </text>
        </g>
        <g
           id="g16459">
          <rect
             id="rect16461"
             height="48.712601"
             width="140.061"
             y="493.01199"
             x="521.55402"
             style="fill:#ffffff" />
          <rect
             id="rect16463"
             height="48.712601"
             width="140.061"
             y="493.01199"
             x="521.55402"
             style="fill:none;fill-opacity:0;stroke:#000000;stroke-width:1" />
        </g>
        <g
           id="g16465">
          <path
             id="path16467"
             d="m 599.482,505.332 c 2.308,0 13.847,0 16.155,0 2.308,0 2.308,0 2.308,3.818 0,3.818 0,11.455 0,15.273 0,3.818 0,3.818 -2.308,3.818 -2.308,0 -13.847,0 -16.155,0 -2.308,0 -2.308,0 -2.308,-3.818 0,-3.818 0,-11.455 0,-15.273 0,-3.818 0,-3.818 2.308,-3.818 z"
             style="fill:#add8e6"
             inkscape:connector-curvature="0" />
          <path
             id="path16469"
             d="m 599.482,505.332 c 2.308,0 13.847,0 16.155,0 2.308,0 2.308,0 2.308,3.818 0,3.818 0,11.455 0,15.273 0,3.818 0,3.818 -2.308,3.818 -2.308,0 -13.847,0 -16.155,0 -2.308,0 -2.308,0 -2.308,-3.818 0,-3.818 0,-11.455 0,-15.273 0,-3.818 0,-3.818 2.308,-3.818"
             style="fill:none;fill-opacity:0;stroke:#000000;stroke-width:1"
             inkscape:connector-curvature="0" />
          <path
             id="path16471"
             d="m 599.482,505.332 c 2.308,0 13.847,0 16.155,0 2.308,0 2.308,0 2.308,3.818 0,3.818 0,11.455 0,15.273 0,3.818 0,3.818 -2.308,3.818 -2.308,0 -13.847,0 -16.155,0 -2.308,0 -2.308,0 -2.308,-3.818 0,-3.818 0,-11.455 0,-15.273 0,-3.818 0,-3.818 2.308,-3.818"
             style="fill:none;fill-opacity:0;stroke:#000000;stroke-width:0.1"
             inkscape:connector-curvature="0" />
          <line
             id="line16473"
             y2="528.24103"
             x2="615.63702"
             y1="528.24103"
             x1="599.48199"
             style="fill:none;fill-opacity:0;stroke:#000000;stroke-width:0.1" />
          <line
             id="line16475"
             y2="524.42297"
             x2="617.94501"
             y1="509.14999"
             x1="617.94501"
             style="fill:none;fill-opacity:0;stroke:#000000;stroke-width:0.1" />
          <line
             id="line16477"
             y2="524.42297"
             x2="597.17401"
             y1="509.14999"
             x1="597.17401"
             style="fill:none;fill-opacity:0;stroke:#000000;stroke-width:0.1" />
          <line
             id="line16479"
             y2="505.332"
             x2="615.63702"
             y1="505.332"
             x1="599.48199"
             style="fill:none;fill-opacity:0;stroke:#000000;stroke-width:0.1" />
          <text
             id="text16481"
             y="520.78699"
             x="607.55902"
             style="font-style:normal;font-weight:normal;font-size:12.80000019px;font-family:sans-serif;text-anchor:middle;fill:#000000"
             font-size="12.8">
            <tspan
               id="tspan16483"
               y="520.78699"
               x="607.55902" />
          </text>
        </g>
        <text
           id="text16485"
           y="513.47198"
           x="622.84802"
           style="font-style:normal;font-weight:normal;font-size:6.77333021px;font-family:sans-serif;text-anchor:start;fill:#000000"
           font-size="6.77333">
          <tspan
             id="tspan16487"
             y="513.47198"
             x="622.84802">per-coe</tspan>
          <tspan
             id="tspan16489"
             y="521.93903"
             x="622.84802">queue</tspan>
        </text>
        <text
           id="text16491"
           y="545.15601"
           x="580.87402"
           style="font-style:normal;font-weight:normal;font-size:12.80000019px;font-family:sans-serif;text-anchor:start;fill:#000000"
           font-size="12.8">
          <tspan
             id="tspan16493"
             y="545.15601"
             x="580.87402" />
        </text>
        <g
           id="g16495">
          <path
             id="path16497"
             d="m 536.218,504.642 c 2.308,0 13.847,0 16.155,0 2.308,0 2.308,0 2.308,3.818 0,3.818 0,11.455 0,15.273 0,3.818 0,3.818 -2.308,3.818 -2.308,0 -13.847,0 -16.155,0 -2.308,0 -2.308,0 -2.308,-3.818 0,-3.818 0,-11.455 0,-15.273 0,-3.818 0,-3.818 2.308,-3.818 z"
             style="fill:#e5e5e5"
             inkscape:connector-curvature="0" />
          <path
             id="path16499"
             d="m 536.218,504.642 c 2.308,0 13.847,0 16.155,0 2.308,0 2.308,0 2.308,3.818 0,3.818 0,11.455 0,15.273 0,3.818 0,3.818 -2.308,3.818 -2.308,0 -13.847,0 -16.155,0 -2.308,0 -2.308,0 -2.308,-3.818 0,-3.818 0,-11.455 0,-15.273 0,-3.818 0,-3.818 2.308,-3.818"
             style="fill:none;fill-opacity:0;stroke:#000000;stroke-width:1"
             inkscape:connector-curvature="0" />
          <path
             id="path16501"
             d="m 536.218,504.642 c 2.308,0 13.847,0 16.155,0 2.308,0 2.308,0 2.308,3.818 0,3.818 0,11.455 0,15.273 0,3.818 0,3.818 -2.308,3.818 -2.308,0 -13.847,0 -16.155,0 -2.308,0 -2.308,0 -2.308,-3.818 0,-3.818 0,-11.455 0,-15.273 0,-3.818 0,-3.818 2.308,-3.818"
             style="fill:none;fill-opacity:0;stroke:#000000;stroke-width:0.1"
             inkscape:connector-curvature="0" />
          <line
             id="line16503"
             y2="527.55103"
             x2="552.37299"
             y1="527.55103"
             x1="536.21802"
             style="fill:none;fill-opacity:0;stroke:#000000;stroke-width:0.1" />
          <line
             id="line16505"
             y2="523.73297"
             x2="554.68103"
             y1="508.45999"
             x1="554.68103"
             style="fill:none;fill-opacity:0;stroke:#000000;stroke-width:0.1" />
          <line
             id="line16507"
             y2="523.73297"
             x2="533.90997"
             y1="508.45999"
             x1="533.90997"
             style="fill:none;fill-opacity:0;stroke:#000000;stroke-width:0.1" />
          <line
             id="line16509"
             y2="504.642"
             x2="552.37299"
             y1="504.642"
             x1="536.21802"
             style="fill:none;fill-opacity:0;stroke:#000000;stroke-width:0.1" />
          <text
             id="text16511"
             y="520.09698"
             x="544.29498"
             style="font-style:normal;font-weight:normal;font-size:12.80000019px;font-family:sans-serif;text-anchor:middle;fill:#000000"
             font-size="12.8">
            <tspan
               id="tspan16513"
               y="520.09698"
               x="544.29498" />
          </text>
        </g>
        <text
           id="text16515"
           y="512.78198"
           x="559.58197"
           style="font-style:normal;font-weight:normal;font-size:6.77333021px;font-family:sans-serif;text-anchor:start;fill:#000000"
           font-size="6.77333">
          <tspan
             id="tspan16517"
             y="512.78198"
             x="559.58197">global</tspan>
          <tspan
             id="tspan16519"
             y="521.24902"
             x="559.58197">queue</tspan>
        </text>
      </g>
    </g>
  </g>
</svg>
