<?xml version="1.0" encoding="UTF-8" standalone="no"?>
<!-- Created with Inkscape (http://www.inkscape.org/) -->

<svg
   xmlns:dc="http://purl.org/dc/elements/1.1/"
   xmlns:cc="http://creativecommons.org/ns#"
   xmlns:rdf="http://www.w3.org/1999/02/22-rdf-syntax-ns#"
   xmlns:svg="http://www.w3.org/2000/svg"
   xmlns="http://www.w3.org/2000/svg"
   xmlns:sodipodi="http://sodipodi.sourceforge.net/DTD/sodipodi-0.dtd"
   xmlns:inkscape="http://www.inkscape.org/namespaces/inkscape"
   width="210mm"
   height="140mm"
   viewBox="0 0 744.09449 496.06299"
   id="svg2"
   version="1.1"
   inkscape:version="0.91 r13725"
   sodipodi:docname="file_rmap.svg">
  <defs
     id="defs4" />
  <sodipodi:namedview
     id="base"
     pagecolor="#ffffff"
     bordercolor="#666666"
     borderopacity="1.0"
     inkscape:pageopacity="0.0"
     inkscape:pageshadow="2"
     inkscape:zoom="0.98994949"
     inkscape:cx="128.92952"
     inkscape:cy="4.033994"
     inkscape:document-units="px"
     inkscape:current-layer="layer1"
     showgrid="false"
     inkscape:window-width="2880"
     inkscape:window-height="1577"
     inkscape:window-x="0"
     inkscape:window-y="0"
     inkscape:window-maximized="1" />
  <metadata
     id="metadata7">
    <rdf:RDF>
      <cc:Work
         rdf:about="">
        <dc:format>image/svg+xml</dc:format>
        <dc:type
           rdf:resource="http://purl.org/dc/dcmitype/StillImage" />
        <dc:title></dc:title>
      </cc:Work>
    </rdf:RDF>
  </metadata>
  <g
     inkscape:label="Layer 1"
     inkscape:groupmode="layer"
     id="layer1"
     transform="translate(0,-556.29922)">
    <g
       id="g6272"
       transform="matrix(1.8311665,0,0,1.8311665,-1078.543,-174.30417)">
      <g
         id="g5752">
        <path
           id="path5754"
           d="m 665.863,521.35 c 7.819,0 46.915,0 54.734,0 7.819,0 7.819,0 7.819,11.195 0,11.195 0,33.585 0,44.78 0,11.195 0,11.195 -7.819,11.195 -7.819,0 -46.915,0 -54.734,0 -7.819,0 -7.819,0 -7.819,-11.195 0,-11.195 0,-33.585 0,-44.78 0,-11.195 0,-11.195 7.819,-11.195 z"
           style="fill:#ffffff"
           inkscape:connector-curvature="0" />
        <path
           id="path5756"
           d="m 665.863,521.35 c 7.819,0 46.915,0 54.734,0 7.819,0 7.819,0 7.819,11.195 0,11.195 0,33.585 0,44.78 0,11.195 0,11.195 -7.819,11.195 -7.819,0 -46.915,0 -54.734,0 -7.819,0 -7.819,0 -7.819,-11.195 0,-11.195 0,-33.585 0,-44.78 0,-11.195 0,-11.195 7.819,-11.195"
           style="fill:none;fill-opacity:0;stroke:#000000;stroke-width:1"
           inkscape:connector-curvature="0" />
        <path
           id="path5758"
           d="m 665.863,521.35 c 7.819,0 46.915,0 54.734,0 7.819,0 7.819,0 7.819,11.195 0,11.195 0,33.585 0,44.78 0,11.195 0,11.195 -7.819,11.195 -7.819,0 -46.915,0 -54.734,0 -7.819,0 -7.819,0 -7.819,-11.195 0,-11.195 0,-33.585 0,-44.78 0,-11.195 0,-11.195 7.819,-11.195"
           style="fill:none;fill-opacity:0;stroke:#000000;stroke-width:0.1"
           inkscape:connector-curvature="0" />
        <line
           id="line5760"
           y2="588.52002"
           x2="720.59698"
           y1="588.52002"
           x1="665.86298"
           style="fill:none;fill-opacity:0;stroke:#000000;stroke-width:0.1" />
        <line
           id="line5762"
           y2="577.32501"
           x2="728.41602"
           y1="532.54498"
           x1="728.41602"
           style="fill:none;fill-opacity:0;stroke:#000000;stroke-width:0.1" />
        <line
           id="line5764"
           y2="577.32501"
           x2="658.04401"
           y1="532.54498"
           x1="658.04401"
           style="fill:none;fill-opacity:0;stroke:#000000;stroke-width:0.1" />
        <line
           id="line5766"
           y2="521.34998"
           x2="720.59698"
           y1="521.34998"
           x1="665.86298"
           style="fill:none;fill-opacity:0;stroke:#000000;stroke-width:0.1" />
        <text
           id="text5768"
           y="558.935"
           x="693.22998"
           style="font-style:normal;font-weight:normal;font-size:12.80000019px;font-family:sans-serif;text-anchor:middle;fill:#000000"
           font-size="12.8">
          <tspan
             id="tspan5770"
             y="558.935"
             x="693.22998" />
        </text>
      </g>
      <g
         id="g5772">
        <path
           id="path5774"
           d="m 676.06,567.132 34.312,0 c 17.156,0 17.156,0 17.156,5.576 l 0,11.153 c 0,5.577 0,5.577 -17.156,5.577 l -34.312,0 c -17.156,0 -17.156,0 -17.156,-5.577 l 0,-11.153 c 0,-5.576 0,-5.576 17.156,-5.576 z"
           style="fill:#e5e5e5"
           inkscape:connector-curvature="0" />
        <path
           id="path5776"
           d="m 676.06,567.132 34.312,0 c 17.156,0 17.156,0 17.156,5.576 l 0,11.153 c 0,5.577 0,5.577 -17.156,5.577 l -34.312,0 c -17.156,0 -17.156,0 -17.156,-5.577 l 0,-11.153 c 0,-5.576 0,-5.576 17.156,-5.576"
           style="fill:none;fill-opacity:0;stroke:#000000;stroke-width:2;stroke-dasharray:6"
           inkscape:connector-curvature="0" />
        <text
           id="text5778"
           y="578.63202"
           x="668.90399"
           style="font-style:normal;font-weight:normal;font-size:1.60000002px;font-family:sans-serif;text-anchor:start;fill:#000000"
           font-size="1.6">
          <tspan
             id="tspan5780"
             y="578.63202"
             x="668.90399" />
        </text>
      </g>
      <g
         id="g5782">
        <path
           id="path5784"
           d="m 910.987,515.21 40.625,0 c 20.313,0 20.313,0 20.313,24.178 l 0,48.357 c 0,24.178 0,24.178 -20.313,24.178 l -40.625,0 c -20.313,0 -20.313,0 -20.313,-24.178 l 0,-48.357 c 0,-24.178 0,-24.178 20.313,-24.178 z"
           style="fill:#add8e6"
           inkscape:connector-curvature="0" />
        <path
           id="path5786"
           d="m 910.987,515.21 40.625,0 c 20.313,0 20.313,0 20.313,24.178 l 0,48.357 c 0,24.178 0,24.178 -20.313,24.178 l -40.625,0 c -20.313,0 -20.313,0 -20.313,-24.178 l 0,-48.357 c 0,-24.178 0,-24.178 20.313,-24.178"
           style="fill:none;fill-opacity:0;stroke:#000000;stroke-width:2;stroke-dasharray:6"
           inkscape:connector-curvature="0" />
        <text
           id="text5788"
           y="537.10999"
           x="900.67401"
           style="font-style:normal;font-weight:normal;font-size:12.80000019px;font-family:sans-serif;text-anchor:start;fill:#000000"
           font-size="12.8">
          <tspan
             id="tspan5790"
             y="537.10999"
             x="900.67401" />
        </text>
      </g>
      <g
         id="g5792">
        <path
           id="path5794"
           d="m 762.726,594.68 59.841,0 c 29.921,0 29.921,0 29.921,11.265 l 0,22.53 c 0,11.265 0,11.265 -29.921,11.265 l -59.841,0 c -29.92,0 -29.92,0 -29.92,-11.265 l 0,-22.53 c 0,-11.265 0,-11.265 29.92,-11.265 z"
           style="fill:#e5e5e5"
           inkscape:connector-curvature="0" />
        <path
           id="path5796"
           d="m 762.726,594.68 59.841,0 c 29.921,0 29.921,0 29.921,11.265 l 0,22.53 c 0,11.265 0,11.265 -29.921,11.265 l -59.841,0 c -29.92,0 -29.92,0 -29.92,-11.265 l 0,-22.53 c 0,-11.265 0,-11.265 29.92,-11.265"
           style="fill:none;fill-opacity:0;stroke:#000000;stroke-width:2;stroke-dasharray:6"
           inkscape:connector-curvature="0" />
        <text
           id="text5798"
           y="616.58002"
           x="742.80603"
           style="font-style:normal;font-weight:normal;font-size:12.80000019px;font-family:sans-serif;text-anchor:start;fill:#000000"
           font-size="12.8">
          <tspan
             id="tspan5800"
             y="616.58002"
             x="742.80603" />
        </text>
      </g>
      <g
         id="g5802">
        <ellipse
           id="ellipse5804"
           ry="40.272499"
           rx="56.109798"
           cy="536.14099"
           cx="820.07599"
           style="fill:#ffffff" />
        <ellipse
           id="ellipse5806"
           ry="40.272499"
           rx="56.109798"
           cy="536.14099"
           cx="820.07599"
           style="fill:none;fill-opacity:0;stroke:#000000;stroke-width:1;stroke-dasharray:4" />
      </g>
      <g
         id="g5808">
        <circle
           id="ellipse5810"
           cy="612.42102"
           cx="826.11499"
           style="fill:#ffffff"
           r="9.4874096" />
        <circle
           id="ellipse5812"
           cy="612.42102"
           cx="826.11499"
           style="fill:none;fill-opacity:0;stroke:#000000;stroke-width:1"
           r="9.4874096" />
        <circle
           id="ellipse5814"
           cy="612.42102"
           cx="826.11499"
           style="fill:none;fill-opacity:0;stroke:#000000;stroke-width:1"
           r="9.4874096" />
      </g>
      <g
         id="g5816">
        <circle
           id="ellipse5818"
           cy="616.25702"
           cx="789.68103"
           style="fill:#ffffff"
           r="9.4874096" />
        <circle
           id="ellipse5820"
           cy="616.25702"
           cx="789.68103"
           style="fill:none;fill-opacity:0;stroke:#000000;stroke-width:1"
           r="9.4874096" />
        <circle
           id="ellipse5822"
           cy="616.25702"
           cx="789.68103"
           style="fill:none;fill-opacity:0;stroke:#000000;stroke-width:1"
           r="9.4874096" />
      </g>
      <g
         id="g5824">
        <circle
           id="ellipse5826"
           cy="615.24701"
           cx="754.32501"
           style="fill:#ffffff"
           r="9.4874096" />
        <circle
           id="ellipse5828"
           cy="615.24701"
           cx="754.32501"
           style="fill:none;fill-opacity:0;stroke:#000000;stroke-width:1"
           r="9.4874096" />
        <circle
           id="ellipse5830"
           cy="615.24701"
           cx="754.32501"
           style="fill:none;fill-opacity:0;stroke:#000000;stroke-width:1"
           r="9.4874096" />
      </g>
      <g
         id="g5832">
        <rect
           id="rect5834"
           height="48.712601"
           width="140.061"
           y="430.68399"
           x="626.11798"
           style="fill:#ffffff" />
        <rect
           id="rect5836"
           height="48.712601"
           width="140.061"
           y="430.68399"
           x="626.11798"
           style="fill:none;fill-opacity:0;stroke:#000000;stroke-width:1" />
      </g>
      <g
         id="g5838">
        <path
           id="path5840"
           d="m 704.046,443.006 c 2.308,0 13.847,0 16.155,0 2.308,0 2.308,0 2.308,3.818 0,3.818 0,11.455 0,15.273 0,3.818 0,3.818 -2.308,3.818 -2.308,0 -13.847,0 -16.155,0 -2.308,0 -2.308,0 -2.308,-3.818 0,-3.818 0,-11.455 0,-15.273 0,-3.818 0,-3.818 2.308,-3.818 z"
           style="fill:#add8e6"
           inkscape:connector-curvature="0" />
        <path
           id="path5842"
           d="m 704.046,443.006 c 2.308,0 13.847,0 16.155,0 2.308,0 2.308,0 2.308,3.818 0,3.818 0,11.455 0,15.273 0,3.818 0,3.818 -2.308,3.818 -2.308,0 -13.847,0 -16.155,0 -2.308,0 -2.308,0 -2.308,-3.818 0,-3.818 0,-11.455 0,-15.273 0,-3.818 0,-3.818 2.308,-3.818"
           style="fill:none;fill-opacity:0;stroke:#000000;stroke-width:1"
           inkscape:connector-curvature="0" />
        <path
           id="path5844"
           d="m 704.046,443.006 c 2.308,0 13.847,0 16.155,0 2.308,0 2.308,0 2.308,3.818 0,3.818 0,11.455 0,15.273 0,3.818 0,3.818 -2.308,3.818 -2.308,0 -13.847,0 -16.155,0 -2.308,0 -2.308,0 -2.308,-3.818 0,-3.818 0,-11.455 0,-15.273 0,-3.818 0,-3.818 2.308,-3.818"
           style="fill:none;fill-opacity:0;stroke:#000000;stroke-width:0.1"
           inkscape:connector-curvature="0" />
        <line
           id="line5846"
           y2="465.91501"
           x2="720.20099"
           y1="465.91501"
           x1="704.04602"
           style="fill:none;fill-opacity:0;stroke:#000000;stroke-width:0.1" />
        <line
           id="line5848"
           y2="462.09698"
           x2="722.50897"
           y1="446.82401"
           x1="722.50897"
           style="fill:none;fill-opacity:0;stroke:#000000;stroke-width:0.1" />
        <line
           id="line5850"
           y2="462.09698"
           x2="701.73798"
           y1="446.82401"
           x1="701.73798"
           style="fill:none;fill-opacity:0;stroke:#000000;stroke-width:0.1" />
        <line
           id="line5852"
           y2="443.00601"
           x2="720.20099"
           y1="443.00601"
           x1="704.04602"
           style="fill:none;fill-opacity:0;stroke:#000000;stroke-width:0.1" />
        <text
           id="text5854"
           y="458.461"
           x="712.12299"
           style="font-style:normal;font-weight:normal;font-size:12.80000019px;font-family:sans-serif;text-anchor:middle;fill:#000000"
           font-size="12.8">
          <tspan
             id="tspan5856"
             y="458.461"
             x="712.12299" />
        </text>
      </g>
      <text
         id="text5858"
         y="451.14401"
         x="727.41199"
         style="font-style:normal;font-weight:normal;font-size:7.90221977px;font-family:sans-serif;text-anchor:start;fill:#000000"
         font-size="7.90222">
        <tspan
           id="tspan5860"
           y="451.14401"
           x="727.41199">per-coe</tspan>
        <tspan
           id="tspan5862"
           y="461.022"
           x="727.41199">queue</tspan>
      </text>
      <text
         id="text5864"
         y="504.10001"
         x="667.146"
         style="font-style:normal;font-weight:normal;font-size:9.03110981px;font-family:'TeX Gyre Bonum';text-anchor:start;fill:#000000"
         font-size="9.03111">
        <tspan
           id="tspan5866"
           y="504.10001"
           x="667.146">struct</tspan>
        <tspan
           id="tspan5868"
           y="515.38898"
           x="667.146">address_space</tspan>
      </text>
      <text
         id="text5870"
         y="482.82999"
         x="685.43799"
         style="font-style:normal;font-weight:normal;font-size:12.80000019px;font-family:sans-serif;text-anchor:start;fill:#000000"
         font-size="12.8">
        <tspan
           id="tspan5872"
           y="482.82999"
           x="685.43799" />
      </text>
      <text
         id="text5874"
         y="440.466"
         x="795.85999"
         style="font-style:normal;font-weight:normal;font-size:9.03110981px;font-family:'TeX Gyre Bonum';text-anchor:start;fill:#000000"
         font-size="9.03111">
        <tspan
           id="tspan5876"
           y="440.466"
           x="795.85999">struct</tspan>
        <tspan
           id="tspan5878"
           y="451.755"
           x="795.85999">inode</tspan>
      </text>
      <line
         id="line5880"
         y2="498.87799"
         x2="825.69598"
         y1="518.052"
         x1="807.59998"
         style="fill:none;fill-opacity:0;stroke:#000000;stroke-width:2" />
      <line
         id="line5882"
         y2="498.23001"
         x2="825.85797"
         y1="517.49402"
         x1="844.23999"
         style="fill:none;fill-opacity:0;stroke:#000000;stroke-width:2" />
      <g
         id="g5884">
        <path
           id="path5886"
           d="m 796.411,454.354 c 4.893,0 29.358,0 34.251,0 4.893,0 4.893,0 4.893,5.172 0,5.172 0,15.517 0,20.689 0,5.172 0,5.172 -4.893,5.172 -4.893,0 -29.358,0 -34.251,0 -4.893,0 -4.893,0 -4.893,-5.172 0,-5.172 0,-15.517 0,-20.689 0,-5.172 0,-5.172 4.893,-5.172 z"
           style="fill:#ffffff"
           inkscape:connector-curvature="0" />
        <path
           id="path5888"
           d="m 796.411,454.354 c 4.893,0 29.358,0 34.251,0 4.893,0 4.893,0 4.893,5.172 0,5.172 0,15.517 0,20.689 0,5.172 0,5.172 -4.893,5.172 -4.893,0 -29.358,0 -34.251,0 -4.893,0 -4.893,0 -4.893,-5.172 0,-5.172 0,-15.517 0,-20.689 0,-5.172 0,-5.172 4.893,-5.172"
           style="fill:none;fill-opacity:0;stroke:#000000;stroke-width:2"
           inkscape:connector-curvature="0" />
        <path
           id="path5890"
           d="m 796.411,454.354 c 4.893,0 29.358,0 34.251,0 4.893,0 4.893,0 4.893,5.172 0,5.172 0,15.517 0,20.689 0,5.172 0,5.172 -4.893,5.172 -4.893,0 -29.358,0 -34.251,0 -4.893,0 -4.893,0 -4.893,-5.172 0,-5.172 0,-15.517 0,-20.689 0,-5.172 0,-5.172 4.893,-5.172"
           style="fill:none;fill-opacity:0;stroke:#000000;stroke-width:0.2"
           inkscape:connector-curvature="0" />
        <line
           id="line5892"
           y2="485.38699"
           x2="830.66199"
           y1="485.38699"
           x1="796.41101"
           style="fill:none;fill-opacity:0;stroke:#000000;stroke-width:0.2" />
        <line
           id="line5894"
           y2="480.215"
           x2="835.55499"
           y1="459.526"
           x1="835.55499"
           style="fill:none;fill-opacity:0;stroke:#000000;stroke-width:0.2" />
        <line
           id="line5896"
           y2="480.215"
           x2="791.51801"
           y1="459.526"
           x1="791.51801"
           style="fill:none;fill-opacity:0;stroke:#000000;stroke-width:0.2" />
        <line
           id="line5898"
           y2="454.354"
           x2="830.66199"
           y1="454.354"
           x1="796.41101"
           style="fill:none;fill-opacity:0;stroke:#000000;stroke-width:0.2" />
        <text
           id="text5900"
           y="473.871"
           x="813.53699"
           style="font-style:normal;font-weight:normal;font-size:12.80000019px;font-family:sans-serif;text-anchor:middle;fill:#000000"
           font-size="12.8">
          <tspan
             id="tspan5902"
             y="473.871"
             x="813.53699" />
        </text>
      </g>
      <line
         id="line5904"
         y2="533.26001"
         x2="802.42401"
         y1="542.03998"
         x1="799.09802"
         style="fill:none;fill-opacity:0;stroke:#000000;stroke-width:2" />
      <line
         id="line5906"
         y2="543.09601"
         x2="728.95203"
         y1="542.98798"
         x1="658.77802"
         style="fill:none;fill-opacity:0;stroke:#000000;stroke-width:1" />
      <g
         id="g5908">
        <path
           id="path5910"
           d="m 722.174,501.162 c 12.13,0 47.478,-31.292 59.608,-31.292"
           style="fill:none;fill-opacity:0;stroke:#000000;stroke-width:2"
           inkscape:connector-curvature="0" />
        <polygon
           id="polygon5912"
           points="724.674,506.162 714.674,501.162 724.674,496.162 722.174,501.162 "
           style="fill:#000000" />
        <polygon
           id="polygon5914"
           points="724.674,506.162 714.674,501.162 724.674,496.162 722.174,501.162 "
           style="fill:none;fill-opacity:0;stroke:#000000;stroke-width:2" />
        <polygon
           id="polygon5916"
           points="779.282,464.87 789.282,469.87 779.282,474.87 781.782,469.87 "
           style="fill:#000000" />
        <polygon
           id="polygon5918"
           points="779.282,464.87 789.282,469.87 779.282,474.87 781.782,469.87 "
           style="fill:none;fill-opacity:0;stroke:#000000;stroke-width:2" />
      </g>
      <line
         id="line5920"
         y2="566.80402"
         x2="728.77399"
         y1="566.69598"
         x1="658.59802"
         style="fill:none;fill-opacity:0;stroke:#000000;stroke-width:1" />
      <line
         id="line5922"
         y2="497.84601"
         x2="826.85199"
         y1="552.98602"
         x1="729.07397"
         style="fill:none;fill-opacity:0;stroke:#000000;stroke-width:2" />
      <text
         id="text5924"
         y="580.91998"
         x="675.72803"
         style="font-style:normal;font-weight:normal;font-size:7.90221977px;font-family:sans-serif;text-anchor:start;fill:#000000"
         font-size="7.90222">
        <tspan
           id="tspan5926"
           y="580.91998"
           x="675.72803">LOG HEAD</tspan>
      </text>
      <text
         id="text5928"
         y="558.66602"
         x="678.646"
         style="font-style:normal;font-weight:normal;font-size:7.90221977px;font-family:sans-serif;text-anchor:start;fill:#000000"
         font-size="7.90222">
        <tspan
           id="tspan5930"
           y="558.66602"
           x="678.646">ROOT</tspan>
      </text>
      <g
         id="g5932">
        <path
           id="path5934"
           d="m 893.095,445.936 c 6.792,0 40.749,0 47.54,0 6.791,0 6.791,0 6.791,5.167 0,5.167 0,15.502 0,20.669 0,5.167 0,5.167 -6.791,5.167 -6.791,0 -40.748,0 -47.54,0 -6.791,0 -6.791,0 -6.791,-5.167 0,-5.167 0,-15.502 0,-20.669 0,-5.167 0,-5.167 6.791,-5.167 z"
           style="fill:#ffffff"
           inkscape:connector-curvature="0" />
        <path
           id="path5936"
           d="m 893.095,445.936 c 6.792,0 40.749,0 47.54,0 6.791,0 6.791,0 6.791,5.167 0,5.167 0,15.502 0,20.669 0,5.167 0,5.167 -6.791,5.167 -6.791,0 -40.748,0 -47.54,0 -6.791,0 -6.791,0 -6.791,-5.167 0,-5.167 0,-15.502 0,-20.669 0,-5.167 0,-5.167 6.791,-5.167"
           style="fill:none;fill-opacity:0;stroke:#000000;stroke-width:2"
           inkscape:connector-curvature="0" />
        <path
           id="path5938"
           d="m 893.095,445.936 c 6.792,0 40.749,0 47.54,0 6.791,0 6.791,0 6.791,5.167 0,5.167 0,15.502 0,20.669 0,5.167 0,5.167 -6.791,5.167 -6.791,0 -40.748,0 -47.54,0 -6.791,0 -6.791,0 -6.791,-5.167 0,-5.167 0,-15.502 0,-20.669 0,-5.167 0,-5.167 6.791,-5.167"
           style="fill:none;fill-opacity:0;stroke:#000000;stroke-width:0.2"
           inkscape:connector-curvature="0" />
        <line
           id="line5940"
           y2="476.939"
           x2="940.63501"
           y1="476.939"
           x1="893.09497"
           style="fill:none;fill-opacity:0;stroke:#000000;stroke-width:0.2" />
        <line
           id="line5942"
           y2="471.772"
           x2="947.42603"
           y1="451.103"
           x1="947.42603"
           style="fill:none;fill-opacity:0;stroke:#000000;stroke-width:0.2" />
        <line
           id="line5944"
           y2="471.772"
           x2="886.30402"
           y1="451.103"
           x1="886.30402"
           style="fill:none;fill-opacity:0;stroke:#000000;stroke-width:0.2" />
        <line
           id="line5946"
           y2="445.936"
           x2="940.63501"
           y1="445.936"
           x1="893.09497"
           style="fill:none;fill-opacity:0;stroke:#000000;stroke-width:0.2" />
        <text
           id="text5948"
           y="465.43701"
           x="916.86499"
           style="font-style:normal;font-weight:normal;font-size:12.80000019px;font-family:sans-serif;text-anchor:middle;fill:#000000"
           font-size="12.8">
          <tspan
             id="tspan5950"
             y="465.43701"
             x="916.86499" />
        </text>
      </g>
      <path
         id="path5952"
         d="m 850.382,518.561 c 46.838,-25.568 -4.402,-57.125 35.922,-57.125"
         style="fill:none;fill-opacity:0;stroke:#000000;stroke-width:2;stroke-dasharray:4"
         inkscape:connector-curvature="0" />
      <line
         id="line5954"
         y2="588.52002"
         x2="693.22998"
         y1="615.01398"
         x1="693.25201"
         style="fill:none;fill-opacity:0;stroke:#000000;stroke-width:2" />
      <line
         id="line5956"
         y2="614.19598"
         x2="743.40601"
         y1="614.354"
         x1="692.25598"
         style="fill:none;fill-opacity:0;stroke:#000000;stroke-width:2" />
      <g
         id="g5958">
        <path
           id="path5960"
           d="m 785.779,493.662 0,-0.965 0.195,-0.779 0.193,-0.488 0.383,-0.58 0.385,-0.392 0.68,-0.587 0.388,-0.192 0.486,-0.193 0.483,-0.094 0.388,0 0.577,0.094 0.388,0.096 0.775,0.289 0.582,0.587 0.387,0.392 0.39,0.676 0.19,0.586 0.193,0.773 0,0.295 0,0.58 -1.16,-0.098 0,-0.482 0,-0.295 -0.099,-0.484 -0.192,-0.289 -0.191,-0.391 -0.199,-0.291 -0.287,-0.292 -0.389,-0.197 -0.388,-0.192 -0.291,-0.096 -0.385,0 -0.483,0 -0.386,0.197 -0.584,0.387 -0.387,0.484 -0.287,0.584 -0.096,0.484 -0.195,0.584 0.092,0.584 -1.156,-0.295 z"
           style="fill:#b7b79d"
           inkscape:connector-curvature="0" />
        <path
           id="path5962"
           d="m 783.164,497.452 2.226,-2.136 10.358,0 -2.228,2.136 -10.356,0 z"
           style="fill:#c9c9b6"
           inkscape:connector-curvature="0" />
        <path
           id="path5964"
           d="m 783.164,497.452 2.226,-2.136 10.358,0 -2.228,2.136 -10.356,0"
           style="fill:none;fill-opacity:0;stroke:#494936;stroke-width:0.02"
           inkscape:connector-curvature="0" />
        <path
           id="path5966"
           d="m 793.52,505.23 2.324,-2.241 0,-7.771 -2.324,2.331 0,7.681 z"
           style="fill:#7a7a5a"
           inkscape:connector-curvature="0" />
        <path
           id="path5968"
           d="m 793.52,505.23 2.324,-2.241 0,-7.771 -2.324,2.331 0,7.681"
           style="fill:none;fill-opacity:0;stroke:#494936;stroke-width:0.02"
           inkscape:connector-curvature="0" />
        <path
           id="path5970"
           d="m 783.164,497.452 0,7.872 10.356,0 0,-7.872 -10.356,0 z"
           style="fill:#b7b79d"
           inkscape:connector-curvature="0" />
        <path
           id="path5972"
           d="m 783.164,497.452 0,7.872 10.356,0 0,-7.872 -10.356,0"
           style="fill:none;fill-opacity:0;stroke:#494936;stroke-width:0.02"
           inkscape:connector-curvature="0" />
        <path
           id="path5974"
           d="m 789.839,500.757 0,-0.059 -0.004,-0.061 -0.007,-0.057 -0.013,-0.057 -0.011,-0.061 -0.018,-0.055 -0.019,-0.057 -0.02,-0.053 -0.024,-0.054 -0.028,-0.051 -0.031,-0.05 -0.031,-0.053 -0.037,-0.043 -0.037,-0.048 -0.04,-0.046 -0.039,-0.042 -0.046,-0.037 -0.044,-0.04 -0.048,-0.032 -0.05,-0.031 -0.053,-0.033 -0.05,-0.024 -0.055,-0.026 -0.054,-0.022 -0.055,-0.02 -0.055,-0.017 -0.059,-0.009 -0.057,-0.011 -0.059,-0.011 -0.057,0 -0.059,-0.004 0,0 -0.057,0.004 -0.063,0 -0.057,0.011 -0.059,0.011 -0.057,0.009 -0.055,0.017 -0.055,0.02 -0.054,0.022 -0.055,0.026 -0.053,0.024 -0.05,0.033 -0.052,0.031 -0.044,0.032 -0.044,0.04 -0.048,0.037 -0.042,0.042 -0.037,0.046 -0.037,0.048 -0.035,0.043 -0.031,0.053 -0.03,0.05 -0.031,0.051 -0.024,0.054 -0.02,0.053 -0.022,0.057 -0.013,0.055 -0.013,0.061 -0.011,0.057 -0.006,0.057 -0.007,0.061 0,0.059 0,0 0,0.057 0.007,0.059 0.006,0.059 0.011,0.059 0.013,0.055 0.013,0.057 0.022,0.057 0.02,0.052 0.024,0.055 0.031,0.052 0.03,0.053 0.031,0.046 0.035,0.05 0.037,0.044 0.037,0.044 0.042,0.041 0.048,0.04 0.044,0.039 0.044,0.035 0.052,0.033 0.05,0.028 0.053,0.027 0.055,0.026 0.054,0.024 0.055,0.018 0.055,0.015 0.057,0.013 0.059,0.011 0.057,0.007 0.063,0.004 0.057,0.002 0,0 0.059,-0.002 0.057,-0.004 0.059,-0.007 0.057,-0.011 0.059,-0.013 0.055,-0.015 0.055,-0.018 0.054,-0.024 0.055,-0.026 0.05,-0.027 0.053,-0.028 0.05,-0.033 0.048,-0.035 0.044,-0.039 0.046,-0.04 0.039,-0.041 0.04,-0.044 0.037,-0.044 0.037,-0.05 0.031,-0.046 0.031,-0.053 0.028,-0.052 0.024,-0.055 0.02,-0.052 0.019,-0.057 0.018,-0.057 0.011,-0.055 0.013,-0.059 0.007,-0.059 0.004,-0.059 0,-0.057 z"
           style="fill:#000000"
           inkscape:connector-curvature="0" />
        <path
           id="path5976"
           d="m 789.743,500.661 0,-0.062 -0.007,-0.056 -0.006,-0.06 -0.007,-0.056 -0.015,-0.062 -0.02,-0.054 -0.02,-0.055 -0.022,-0.055 -0.019,-0.055 -0.029,-0.05 -0.03,-0.05 -0.033,-0.053 -0.031,-0.046 -0.035,-0.048 -0.044,-0.044 -0.041,-0.039 -0.044,-0.042 -0.048,-0.037 -0.046,-0.033 -0.05,-0.035 -0.049,-0.03 -0.05,-0.029 -0.055,-0.024 -0.054,-0.02 -0.055,-0.017 -0.059,-0.022 -0.055,-0.011 -0.057,-0.011 -0.063,-0.004 -0.057,-0.007 -0.059,0 0,0 -0.061,0 -0.055,0.007 -0.057,0.004 -0.059,0.011 -0.055,0.011 -0.061,0.022 -0.055,0.017 -0.055,0.02 -0.054,0.024 -0.048,0.029 -0.055,0.03 -0.044,0.035 -0.048,0.033 -0.044,0.037 -0.046,0.042 -0.044,0.039 -0.037,0.044 -0.041,0.048 -0.031,0.046 -0.035,0.053 -0.026,0.05 -0.031,0.05 -0.024,0.055 -0.022,0.055 -0.015,0.055 -0.018,0.054 -0.017,0.062 -0.007,0.056 -0.006,0.06 -0.011,0.056 0,0.062 0,0 0,0.059 0.011,0.057 0.006,0.059 0.007,0.059 0.017,0.059 0.018,0.055 0.015,0.054 0.022,0.055 0.024,0.055 0.031,0.052 0.026,0.053 0.035,0.052 0.031,0.044 0.041,0.044 0.037,0.048 0.044,0.039 0.046,0.038 0.044,0.039 0.048,0.037 0.044,0.031 0.055,0.033 0.048,0.028 0.054,0.02 0.055,0.024 0.055,0.017 0.061,0.02 0.055,0.011 0.059,0.011 0.057,0.007 0.055,0.006 0.061,0 0,0 0.059,0 0.057,-0.006 0.063,-0.007 0.057,-0.011 0.055,-0.011 0.059,-0.02 0.055,-0.017 0.054,-0.024 0.055,-0.02 0.05,-0.028 0.049,-0.033 0.05,-0.031 0.046,-0.037 0.048,-0.039 0.044,-0.038 0.041,-0.039 0.044,-0.048 0.035,-0.044 0.031,-0.044 0.033,-0.052 0.03,-0.053 0.029,-0.052 0.019,-0.055 0.022,-0.055 0.02,-0.054 0.02,-0.055 0.015,-0.059 0.007,-0.059 0.006,-0.059 0.007,-0.057 0,-0.059"
           style="fill:none;fill-opacity:0;stroke:#000000;stroke-width:0.02"
           inkscape:connector-curvature="0" />
        <path
           id="path5978"
           d="m 788.296,500.468 0.676,0 0,3.495 -0.676,0 0,-3.495 z"
           style="fill:#000000"
           inkscape:connector-curvature="0" />
        <path
           id="path5980"
           d="m 788.296,500.468 0.674,0 0,3.493 -0.674,0 0,-3.493"
           style="fill:none;fill-opacity:0;stroke:#000000;stroke-width:0.02"
           inkscape:connector-curvature="0" />
        <path
           id="path5982"
           d="m 785.779,496.478 1.156,-1.065 1.166,0 -1.166,1.065 -1.156,0 z"
           style="fill:#93936c"
           inkscape:connector-curvature="0" />
        <path
           id="path5984"
           d="m 791.78,496.478 1.158,-1.065 1.162,0 -1.162,1.065 -1.158,0 z"
           style="fill:#93936c"
           inkscape:connector-curvature="0" />
        <path
           id="path5986"
           d="m 792.938,496.478 0,-0.015 0,-0.022 -0.007,-0.019 -0.006,-0.018 -0.007,-0.022 -0.006,-0.017 -0.009,-0.02 -0.013,-0.018 -0.013,-0.017 -0.016,-0.015 -0.019,-0.022 -0.013,-0.016 -0.022,-0.013 -0.02,-0.017 -0.02,-0.013 -0.022,-0.014 -0.022,-0.013 -0.026,-0.011 -0.026,-0.015 -0.029,-0.013 -0.026,-0.009 -0.028,-0.009 -0.029,-0.008 -0.033,-0.005 -0.026,-0.008 -0.03,-0.003 -0.031,-0.004 -0.031,-0.007 -0.033,-0.002 -0.032,0 -0.033,0 0,0 -0.031,0 -0.033,0 -0.032,0.002 -0.029,0.007 -0.033,0.004 -0.028,0.003 -0.033,0.008 -0.031,0.005 -0.026,0.008 -0.031,0.009 -0.028,0.009 -0.024,0.013 -0.026,0.015 -0.024,0.011 -0.024,0.013 -0.02,0.014 -0.024,0.013 -0.018,0.017 -0.019,0.013 -0.018,0.016 -0.017,0.022 -0.018,0.015 -0.013,0.017 -0.011,0.018 -0.011,0.02 -0.009,0.017 -0.004,0.022 -0.007,0.018 -0.006,0.019 0,0.022 0,0.015 0,0 0,0.022 0,0.018 0.006,0.022 0.007,0.019 0.004,0.016 0.009,0.022 0.011,0.017 0.011,0.022 0.013,0.015 0.018,0.018 0.017,0.017 0.018,0.018 0.019,0.015 0.018,0.015 0.024,0.016 0.02,0.013 0.024,0.013 0.024,0.011 0.026,0.013 0.024,0.009 0.028,0.011 0.031,0.011 0.026,0.006 0.031,0.009 0.033,0.004 0.028,0.007 0.033,0.002 0.029,0.002 0.032,0.007 0.033,0.002 0.031,0 0,0 0.033,0 0.032,-0.002 0.033,-0.007 0.031,-0.002 0.031,-0.002 0.03,-0.007 0.026,-0.004 0.033,-0.009 0.029,-0.006 0.028,-0.011 0.026,-0.011 0.029,-0.009 0.026,-0.013 0.026,-0.011 0.022,-0.013 0.022,-0.013 0.02,-0.016 0.02,-0.015 0.022,-0.015 0.013,-0.018 0.019,-0.017 0.016,-0.018 0.013,-0.015 0.013,-0.022 0.009,-0.017 0.006,-0.022 0.007,-0.016 0.006,-0.019 0.007,-0.022 0,-0.018 0,-0.022 z"
           style="fill:#b7b79d"
           inkscape:connector-curvature="0" />
        <path
           id="path5988"
           d="m 792.842,496.387 0,-0.02 0,-0.022 -0.007,-0.018 -0.002,-0.017 -0.011,-0.024 -0.002,-0.018 -0.013,-0.019 -0.009,-0.018 -0.011,-0.017 -0.015,-0.014 -0.018,-0.021 -0.015,-0.018 -0.016,-0.013 -0.019,-0.013 -0.02,-0.018 -0.02,-0.013 -0.022,-0.011 -0.026,-0.015 -0.022,-0.011 -0.026,-0.013 -0.026,-0.011 -0.024,-0.004 -0.024,-0.011 -0.029,-0.005 -0.026,-0.011 -0.028,-0.004 -0.033,-0.007 -0.029,-0.002 -0.028,0 -0.029,-0.002 -0.033,0 0,0 -0.026,0 -0.028,0.002 -0.033,0 -0.028,0.002 -0.031,0.007 -0.031,0.004 -0.024,0.011 -0.03,0.005 -0.025,0.011 -0.024,0.004 -0.028,0.011 -0.02,0.013 -0.024,0.011 -0.024,0.015 -0.024,0.011 -0.02,0.013 -0.022,0.018 -0.015,0.013 -0.017,0.013 -0.014,0.018 -0.017,0.021 -0.013,0.014 -0.011,0.017 -0.011,0.018 -0.013,0.019 -0.007,0.018 -0.006,0.024 -0.005,0.017 -0.006,0.018 0,0.022 0,0.02 0,0 0,0.017 0,0.02 0.006,0.022 0.005,0.017 0.006,0.024 0.007,0.016 0.013,0.017 0.011,0.022 0.011,0.017 0.013,0.014 0.017,0.017 0.014,0.022 0.017,0.013 0.015,0.015 0.022,0.016 0.02,0.013 0.024,0.011 0.024,0.015 0.024,0.013 0.02,0.011 0.028,0.009 0.024,0.006 0.025,0.007 0.03,0.009 0.024,0.004 0.031,0.011 0.031,0 0.028,0.009 0.033,0 0.028,0.002 0.026,0 0,0 0.033,0 0.029,-0.002 0.028,0 0.029,-0.009 0.033,0 0.028,-0.011 0.026,-0.004 0.029,-0.009 0.024,-0.007 0.024,-0.006 0.026,-0.009 0.026,-0.011 0.022,-0.013 0.026,-0.015 0.022,-0.011 0.02,-0.013 0.02,-0.016 0.019,-0.015 0.016,-0.013 0.015,-0.022 0.018,-0.017 0.015,-0.014 0.011,-0.017 0.009,-0.022 0.013,-0.017 0.002,-0.016 0.011,-0.024 0.002,-0.017 0.007,-0.022 0,-0.02 0,-0.017"
           style="fill:none;fill-opacity:0;stroke:#494936;stroke-width:0.02"
           inkscape:connector-curvature="0" />
        <path
           id="path5990"
           d="m 792.931,493.469 -0.002,-0.208 -0.017,-0.203 -0.022,-0.206 -0.035,-0.206 -0.042,-0.199 -0.046,-0.199 -0.063,-0.195 -0.066,-0.195 -0.076,-0.183 -0.088,-0.182 -0.09,-0.186 -0.103,-0.169 -0.109,-0.164 -0.114,-0.164 -0.127,-0.149 -0.127,-0.148 -0.135,-0.138 -0.14,-0.134 -0.156,-0.12 -0.149,-0.114 -0.157,-0.105 -0.169,-0.096 -0.16,-0.086 -0.175,-0.074 -0.17,-0.068 -0.182,-0.061 -0.177,-0.044 -0.182,-0.037 -0.184,-0.022 -0.179,-0.022 -0.184,0 -0.184,0 -0.181,0.022 -0.187,0.022 -0.179,0.037 -0.175,0.044 -0.182,0.061 -0.17,0.068 -0.171,0.074 -0.169,0.086 -0.164,0.096 -0.157,0.105 -0.149,0.114 -0.151,0.12 -0.145,0.134 -0.135,0.138 -0.127,0.148 -0.127,0.149 -0.116,0.164 -0.105,0.164 -0.103,0.169 -0.09,0.186 -0.085,0.182 -0.079,0.183 -0.068,0.195 -0.061,0.195 -0.048,0.199 -0.046,0.199 -0.033,0.206 -0.022,0.206 -0.015,0.203 -0.005,0.208"
           style="fill:none;fill-opacity:0;stroke:#494936;stroke-width:0.02"
           inkscape:connector-curvature="0" />
        <path
           id="path5992"
           d="m 791.78,493.662 1.062,0 0,2.816 -1.062,0 0,-2.816 z"
           style="fill:#b7b79d"
           inkscape:connector-curvature="0" />
        <path
           id="path5994"
           d="m 792.842,496.382 0,-2.913"
           style="fill:none;fill-opacity:0;stroke:#494936;stroke-width:0.02"
           inkscape:connector-curvature="0" />
        <path
           id="path5996"
           d="m 791.682,496.382 0,-2.913"
           style="fill:none;fill-opacity:0;stroke:#000000;stroke-width:0.02"
           inkscape:connector-curvature="0" />
        <path
           id="path5998"
           d="m 786.933,496.478 0,-0.015 0,-0.022 -0.009,-0.019 -0.002,-0.018 -0.007,-0.022 -0.011,-0.017 -0.011,-0.02 -0.009,-0.018 -0.015,-0.017 -0.015,-0.015 -0.018,-0.022 -0.017,-0.016 -0.018,-0.013 -0.019,-0.017 -0.022,-0.013 -0.02,-0.014 -0.026,-0.013 -0.024,-0.011 -0.029,-0.015 -0.024,-0.013 -0.026,-0.009 -0.031,-0.009 -0.028,-0.008 -0.031,-0.005 -0.03,-0.008 -0.031,-0.003 -0.029,-0.004 -0.03,-0.007 -0.033,-0.002 -0.031,0 -0.03,0 0,0 -0.035,0 -0.031,0 -0.035,0.002 -0.026,0.007 -0.031,0.004 -0.03,0.003 -0.031,0.008 -0.031,0.005 -0.028,0.008 -0.031,0.009 -0.028,0.009 -0.022,0.013 -0.029,0.015 -0.026,0.011 -0.022,0.013 -0.024,0.014 -0.02,0.013 -0.017,0.017 -0.02,0.013 -0.017,0.016 -0.018,0.022 -0.017,0.015 -0.013,0.017 -0.011,0.018 -0.009,0.02 -0.011,0.017 -0.007,0.022 -0.004,0.018 -0.007,0.019 -0.002,0.022 0,0.015 0,0 0,0.022 0.002,0.018 0.007,0.022 0.004,0.019 0.007,0.016 0.011,0.022 0.009,0.017 0.011,0.022 0.013,0.015 0.017,0.018 0.018,0.017 0.017,0.018 0.02,0.015 0.017,0.015 0.02,0.016 0.024,0.013 0.022,0.013 0.026,0.011 0.029,0.013 0.022,0.009 0.028,0.011 0.031,0.011 0.028,0.006 0.031,0.009 0.031,0.004 0.03,0.007 0.031,0.002 0.026,0.002 0.035,0.007 0.031,0.002 0.035,0 0,0 0.03,0 0.031,-0.002 0.033,-0.007 0.03,-0.002 0.029,-0.002 0.031,-0.007 0.03,-0.004 0.031,-0.009 0.028,-0.006 0.031,-0.011 0.026,-0.011 0.024,-0.009 0.029,-0.013 0.024,-0.011 0.026,-0.013 0.02,-0.013 0.022,-0.016 0.019,-0.015 0.018,-0.015 0.017,-0.018 0.018,-0.017 0.015,-0.018 0.015,-0.015 0.009,-0.022 0.011,-0.017 0.011,-0.022 0.007,-0.016 0.002,-0.019 0.009,-0.022 0,-0.018 0,-0.022 z"
           style="fill:#b7b79d"
           inkscape:connector-curvature="0" />
        <path
           id="path6000"
           d="m 786.843,496.387 0,-0.02 -0.007,-0.022 0,-0.018 -0.006,-0.017 -0.007,-0.024 -0.009,-0.018 -0.008,-0.019 -0.011,-0.018 -0.011,-0.017 -0.013,-0.014 -0.013,-0.021 -0.018,-0.018 -0.017,-0.013 -0.02,-0.013 -0.022,-0.018 -0.02,-0.013 -0.019,-0.011 -0.025,-0.015 -0.024,-0.011 -0.024,-0.013 -0.028,-0.011 -0.024,-0.004 -0.026,-0.011 -0.031,-0.005 -0.024,-0.011 -0.031,-0.004 -0.03,-0.007 -0.025,-0.002 -0.03,0 -0.031,-0.002 -0.03,0 0,0 -0.031,0 -0.024,0.002 -0.031,0 -0.03,0.002 -0.024,0.007 -0.031,0.004 -0.024,0.011 -0.031,0.005 -0.028,0.011 -0.027,0.004 -0.024,0.011 -0.024,0.013 -0.024,0.011 -0.028,0.015 -0.02,0.011 -0.017,0.013 -0.02,0.018 -0.022,0.013 -0.02,0.013 -0.013,0.018 -0.015,0.021 -0.015,0.014 -0.011,0.017 -0.011,0.018 -0.009,0.019 -0.009,0.018 -0.009,0.024 0,0.017 -0.006,0.018 -0.005,0.022 0,0.02 0,0 0,0.017 0.005,0.02 0.006,0.022 0,0.017 0.009,0.024 0.009,0.016 0.009,0.017 0.011,0.022 0.011,0.017 0.015,0.014 0.015,0.017 0.013,0.022 0.02,0.013 0.022,0.015 0.02,0.016 0.017,0.013 0.02,0.011 0.028,0.015 0.024,0.013 0.024,0.011 0.024,0.009 0.027,0.006 0.028,0.007 0.031,0.009 0.024,0.004 0.031,0.011 0.024,0 0.03,0.009 0.031,0 0.024,0.002 0.031,0 0,0 0.03,0 0.031,-0.002 0.03,0 0.025,-0.009 0.03,0 0.031,-0.011 0.024,-0.004 0.031,-0.009 0.026,-0.007 0.024,-0.006 0.028,-0.009 0.024,-0.011 0.024,-0.013 0.025,-0.015 0.019,-0.011 0.02,-0.013 0.022,-0.016 0.02,-0.015 0.017,-0.013 0.018,-0.022 0.013,-0.017 0.013,-0.014 0.011,-0.017 0.011,-0.022 0.008,-0.017 0.009,-0.016 0.007,-0.024 0.006,-0.017 0,-0.022 0.007,-0.02 0,-0.017"
           style="fill:none;fill-opacity:0;stroke:#494936;stroke-width:0.02"
           inkscape:connector-curvature="0" />
        <path
           id="path6002"
           d="m 785.779,493.662 1.064,0 0,2.816 -1.064,0 0,-2.816 z"
           style="fill:#7a7a5a"
           inkscape:connector-curvature="0" />
        <path
           id="path6004"
           d="m 791.774,493.66 0,-0.154 -0.011,-0.153 -0.013,-0.157 -0.02,-0.149 -0.031,-0.151 -0.035,-0.151 -0.037,-0.145 -0.044,-0.144 -0.054,-0.142 -0.055,-0.136 -0.061,-0.136 -0.066,-0.131 -0.072,-0.127 -0.075,-0.123 -0.083,-0.111 -0.085,-0.11 -0.092,-0.109 -0.096,-0.098 -0.092,-0.095 -0.103,-0.089 -0.11,-0.083 -0.105,-0.07 -0.114,-0.068 -0.109,-0.055 -0.116,-0.055 -0.116,-0.046 -0.12,-0.039 -0.123,-0.033 -0.12,-0.02 -0.123,-0.017 -0.122,-0.009 -0.125,0 -0.123,0.009 -0.118,0.017 -0.125,0.02 -0.118,0.033 -0.125,0.039 -0.118,0.046 -0.109,0.055 -0.114,0.055 -0.116,0.068 -0.103,0.07 -0.109,0.083 -0.099,0.089 -0.096,0.095 -0.098,0.098 -0.09,0.109 -0.086,0.11 -0.078,0.111 -0.075,0.123 -0.076,0.127 -0.064,0.131 -0.063,0.136 -0.055,0.136 -0.05,0.142 -0.044,0.144 -0.042,0.145 -0.03,0.151 -0.031,0.151 -0.024,0.149 -0.013,0.157 -0.009,0.153 -0.002,0.154"
           style="fill:none;fill-opacity:0;stroke:#494936;stroke-width:0.02"
           inkscape:connector-curvature="0" />
        <path
           id="path6006"
           d="m 785.779,493.662 1.064,0 0,2.816 -1.064,0 0,-2.816 z"
           style="fill:#b7b79d"
           inkscape:connector-curvature="0" />
        <path
           id="path6008"
           d="m 785.676,496.382 0,-2.913"
           style="fill:none;fill-opacity:0;stroke:#494936;stroke-width:0.02"
           inkscape:connector-curvature="0" />
        <path
           id="path6010"
           d="m 786.843,496.382 0,-2.913"
           style="fill:none;fill-opacity:0;stroke:#000000;stroke-width:0.02"
           inkscape:connector-curvature="0" />
        <path
           id="path6012"
           d="m 789.196,489.681 -0.171,-0.002 -0.171,0.011 -0.171,0.019 -0.175,0.027 -0.164,0.048 -0.164,0.054 -0.164,0.062 -0.158,0.079 -0.159,0.083 -0.156,0.096 -0.146,0.107 -0.14,0.114 -0.138,0.129 -0.136,0.134 -0.127,0.144 -0.116,0.151 -0.116,0.16 -0.107,0.166 -0.101,0.177 -0.09,0.178 -0.085,0.186"
           style="fill:none;fill-opacity:0;stroke:#dbdbce;stroke-width:0.63999999"
           inkscape:connector-curvature="0" />
      </g>
      <g
         id="g6014">
        <path
           id="path6016"
           d="m 686.497,528.029 0,-0.822 0.166,-0.664 0.164,-0.416 0.327,-0.494 0.328,-0.333 0.579,-0.5 0.33,-0.164 0.414,-0.164 0.412,-0.08 0.33,0 0.492,0.08 0.33,0.082 0.66,0.246 0.495,0.5 0.33,0.333 0.332,0.576 0.162,0.5 0.164,0.658 0,0.251 0,0.494 -0.988,-0.083 0,-0.411 0,-0.251 -0.083,-0.412 -0.164,-0.246 -0.163,-0.334 -0.169,-0.248 -0.244,-0.248 -0.332,-0.167 -0.33,-0.164 -0.248,-0.082 -0.328,0 -0.412,0 -0.328,0.167 -0.498,0.33 -0.33,0.412 -0.244,0.498 -0.082,0.412 -0.166,0.497 0.079,0.498 -0.985,-0.251 z"
           style="fill:#b7b79d"
           inkscape:connector-curvature="0" />
        <path
           id="path6018"
           d="m 684.27,531.257 1.896,-1.819 8.822,0 -1.898,1.819 -8.82,0 z"
           style="fill:#c9c9b6"
           inkscape:connector-curvature="0" />
        <path
           id="path6020"
           d="m 684.27,531.257 1.896,-1.819 8.822,0 -1.898,1.819 -8.82,0"
           style="fill:none;fill-opacity:0;stroke:#494936;stroke-width:0.02"
           inkscape:connector-curvature="0" />
        <path
           id="path6022"
           d="m 693.09,537.881 1.98,-1.908 0,-6.619 -1.98,1.985 0,6.542 z"
           style="fill:#7a7a5a"
           inkscape:connector-curvature="0" />
        <path
           id="path6024"
           d="m 693.09,537.881 1.98,-1.908 0,-6.619 -1.98,1.985 0,6.542"
           style="fill:none;fill-opacity:0;stroke:#494936;stroke-width:0.02"
           inkscape:connector-curvature="0" />
        <path
           id="path6026"
           d="m 684.27,531.257 0,6.704 8.82,0 0,-6.704 -8.82,0 z"
           style="fill:#b7b79d"
           inkscape:connector-curvature="0" />
        <path
           id="path6028"
           d="m 684.27,531.257 0,6.704 8.82,0 0,-6.704 -8.82,0"
           style="fill:none;fill-opacity:0;stroke:#494936;stroke-width:0.02"
           inkscape:connector-curvature="0" />
        <path
           id="path6030"
           d="m 689.955,534.071 0,-0.05 -0.004,-0.052 -0.005,-0.049 -0.011,-0.048 -0.01,-0.052 -0.015,-0.047 -0.017,-0.048 -0.016,-0.045 -0.021,-0.047 -0.024,-0.042 -0.026,-0.043 -0.026,-0.045 -0.032,-0.037 -0.032,-0.041 -0.033,-0.04 -0.034,-0.035 -0.039,-0.032 -0.037,-0.033 -0.041,-0.028 -0.043,-0.026 -0.045,-0.028 -0.043,-0.021 -0.046,-0.022 -0.047,-0.019 -0.046,-0.016 -0.047,-0.015 -0.05,-0.008 -0.049,-0.009 -0.05,-0.009 -0.049,0 -0.05,-0.004 0,0 -0.048,0.004 -0.054,0 -0.049,0.009 -0.05,0.009 -0.049,0.008 -0.046,0.015 -0.047,0.016 -0.046,0.019 -0.047,0.022 -0.045,0.021 -0.043,0.028 -0.044,0.026 -0.038,0.028 -0.037,0.033 -0.041,0.032 -0.035,0.035 -0.032,0.04 -0.032,0.041 -0.03,0.037 -0.026,0.045 -0.026,0.043 -0.026,0.042 -0.02,0.047 -0.017,0.045 -0.019,0.048 -0.011,0.047 -0.011,0.052 -0.009,0.048 -0.006,0.049 -0.006,0.052 0,0.05 0,0 0,0.049 0.006,0.05 0.006,0.051 0.009,0.05 0.011,0.046 0.011,0.049 0.019,0.048 0.017,0.045 0.02,0.047 0.026,0.044 0.026,0.045 0.026,0.039 0.03,0.043 0.032,0.037 0.032,0.038 0.035,0.035 0.041,0.034 0.037,0.033 0.038,0.03 0.044,0.028 0.043,0.024 0.045,0.023 0.047,0.022 0.046,0.021 0.047,0.014 0.046,0.013 0.049,0.012 0.05,0.009 0.049,0.006 0.054,0.003 0.048,0.002 0,0 0.05,-0.002 0.049,-0.003 0.05,-0.006 0.049,-0.009 0.05,-0.012 0.047,-0.013 0.046,-0.014 0.047,-0.021 0.046,-0.022 0.043,-0.023 0.045,-0.024 0.043,-0.028 0.041,-0.03 0.037,-0.033 0.039,-0.034 0.034,-0.035 0.033,-0.038 0.032,-0.037 0.032,-0.043 0.026,-0.039 0.026,-0.045 0.024,-0.044 0.021,-0.047 0.016,-0.045 0.017,-0.048 0.015,-0.049 0.01,-0.046 0.011,-0.05 0.005,-0.051 0.004,-0.05 0,-0.049 z"
           style="fill:#000000"
           inkscape:connector-curvature="0" />
        <path
           id="path6032"
           d="m 689.873,533.989 0,-0.052 -0.006,-0.048 -0.005,-0.051 -0.006,-0.048 -0.013,-0.052 -0.017,-0.047 -0.016,-0.046 -0.019,-0.047 -0.017,-0.047 -0.024,-0.042 -0.026,-0.043 -0.028,-0.045 -0.026,-0.039 -0.03,-0.041 -0.037,-0.038 -0.036,-0.033 -0.037,-0.035 -0.041,-0.032 -0.039,-0.028 -0.043,-0.03 -0.041,-0.026 -0.043,-0.024 -0.046,-0.021 -0.047,-0.017 -0.047,-0.014 -0.05,-0.019 -0.047,-0.009 -0.048,-0.01 -0.054,-0.003 -0.049,-0.006 -0.05,0 0,0 -0.052,0 -0.047,0.006 -0.048,0.003 -0.05,0.01 -0.047,0.009 -0.052,0.019 -0.047,0.014 -0.046,0.017 -0.047,0.021 -0.041,0.024 -0.047,0.026 -0.037,0.03 -0.041,0.028 -0.037,0.032 -0.039,0.035 -0.038,0.033 -0.031,0.038 -0.036,0.041 -0.026,0.039 -0.03,0.045 -0.022,0.043 -0.026,0.042 -0.021,0.047 -0.018,0.047 -0.013,0.046 -0.015,0.047 -0.015,0.052 -0.006,0.048 -0.005,0.051 -0.01,0.048 0,0.052 0,0 0,0.051 0.01,0.048 0.005,0.051 0.006,0.05 0.015,0.05 0.015,0.047 0.013,0.046 0.018,0.047 0.021,0.047 0.026,0.044 0.022,0.045 0.03,0.045 0.026,0.037 0.036,0.037 0.031,0.041 0.038,0.034 0.039,0.032 0.037,0.033 0.041,0.032 0.037,0.026 0.047,0.028 0.041,0.024 0.047,0.017 0.046,0.02 0.047,0.015 0.052,0.017 0.047,0.009 0.05,0.01 0.048,0.005 0.047,0.006 0.052,0 0,0 0.05,0 0.049,-0.006 0.054,-0.005 0.048,-0.01 0.047,-0.009 0.05,-0.017 0.047,-0.015 0.047,-0.02 0.046,-0.017 0.043,-0.024 0.041,-0.028 0.043,-0.026 0.039,-0.032 0.041,-0.033 0.037,-0.032 0.036,-0.034 0.037,-0.041 0.03,-0.037 0.026,-0.037 0.028,-0.045 0.026,-0.045 0.024,-0.044 0.017,-0.047 0.019,-0.047 0.016,-0.046 0.017,-0.047 0.013,-0.05 0.006,-0.05 0.005,-0.051 0.006,-0.048 0,-0.051"
           style="fill:none;fill-opacity:0;stroke:#000000;stroke-width:0.02"
           inkscape:connector-curvature="0" />
        <path
           id="path6034"
           d="m 688.641,533.825 0.576,0 0,2.977 -0.576,0 0,-2.977 z"
           style="fill:#000000"
           inkscape:connector-curvature="0" />
        <path
           id="path6036"
           d="m 688.641,533.825 0.574,0 0,2.975 -0.574,0 0,-2.975"
           style="fill:none;fill-opacity:0;stroke:#000000;stroke-width:0.02"
           inkscape:connector-curvature="0" />
        <path
           id="path6038"
           d="m 686.497,530.427 0.985,-0.907 0.993,0 -0.993,0.907 -0.985,0 z"
           style="fill:#93936c"
           inkscape:connector-curvature="0" />
        <path
           id="path6040"
           d="m 691.608,530.427 0.986,-0.907 0.99,0 -0.99,0.907 -0.986,0 z"
           style="fill:#93936c"
           inkscape:connector-curvature="0" />
        <path
           id="path6042"
           d="m 692.594,530.427 0,-0.013 0,-0.018 -0.005,-0.017 -0.006,-0.015 -0.005,-0.019 -0.006,-0.014 -0.007,-0.017 -0.012,-0.015 -0.011,-0.015 -0.013,-0.013 -0.017,-0.019 -0.011,-0.013 -0.018,-0.011 -0.017,-0.015 -0.017,-0.011 -0.019,-0.011 -0.018,-0.011 -0.023,-0.01 -0.022,-0.013 -0.024,-0.011 -0.023,-0.007 -0.024,-0.008 -0.024,-0.007 -0.028,-0.004 -0.022,-0.008 -0.027,-10e-4 -0.026,-0.004 -0.026,-0.006 -0.028,-0.002 -0.028,0 -0.028,0 0,0 -0.026,0 -0.028,0 -0.028,0.002 -0.024,0.006 -0.028,0.004 -0.024,10e-4 -0.028,0.008 -0.026,0.004 -0.022,0.007 -0.027,0.008 -0.024,0.007 -0.02,0.011 -0.023,0.013 -0.02,0.01 -0.021,0.011 -0.016,0.011 -0.021,0.011 -0.015,0.015 -0.017,0.011 -0.015,0.013 -0.014,0.019 -0.015,0.013 -0.012,0.015 -0.009,0.015 -0.009,0.017 -0.008,0.014 -0.003,0.019 -0.006,0.015 -0.006,0.017 0,0.018 0,0.013 0,0 0,0.019 0,0.015 0.006,0.019 0.006,0.016 0.003,0.013 0.008,0.019 0.009,0.015 0.009,0.019 0.012,0.013 0.015,0.015 0.014,0.014 0.015,0.015 0.017,0.013 0.015,0.014 0.021,0.013 0.016,0.011 0.021,0.011 0.02,0.009 0.023,0.011 0.02,0.008 0.024,0.009 0.027,0.01 0.022,0.005 0.026,0.008 0.028,0.003 0.024,0.006 0.028,0.002 0.024,0.002 0.028,0.005 0.028,0.002 0.026,0 0,0 0.028,0 0.028,-0.002 0.028,-0.005 0.026,-0.002 0.026,-0.002 0.027,-0.006 0.022,-0.003 0.028,-0.008 0.024,-0.005 0.024,-0.01 0.023,-0.009 0.024,-0.008 0.022,-0.011 0.023,-0.009 0.018,-0.011 0.019,-0.011 0.017,-0.013 0.017,-0.014 0.018,-0.013 0.011,-0.015 0.017,-0.014 0.013,-0.015 0.011,-0.013 0.012,-0.019 0.007,-0.015 0.006,-0.019 0.005,-0.013 0.006,-0.016 0.005,-0.019 0,-0.015 0,-0.019 z"
           style="fill:#b7b79d"
           inkscape:connector-curvature="0" />
        <path
           id="path6044"
           d="m 692.512,530.349 0,-0.017 0,-0.018 -0.005,-0.015 -0.002,-0.015 -0.009,-0.021 -0.002,-0.015 -0.011,-0.016 -0.008,-0.015 -0.009,-0.015 -0.013,-0.011 -0.015,-0.019 -0.013,-0.015 -0.013,-0.011 -0.017,-0.011 -0.017,-0.015 -0.017,-0.011 -0.018,-0.01 -0.023,-0.013 -0.018,-0.009 -0.023,-0.011 -0.022,-0.009 -0.021,-0.004 -0.02,-0.01 -0.024,-0.003 -0.023,-0.01 -0.024,-0.003 -0.028,-0.006 -0.024,-0.002 -0.024,0 -0.025,-0.002 -0.027,0 0,0 -0.023,0 -0.024,0.002 -0.028,0 -0.024,0.002 -0.026,0.006 -0.026,0.003 -0.021,0.01 -0.026,0.003 -0.021,0.01 -0.02,0.004 -0.024,0.009 -0.017,0.011 -0.021,0.009 -0.02,0.013 -0.021,0.01 -0.016,0.011 -0.019,0.015 -0.013,0.011 -0.015,0.011 -0.011,0.015 -0.015,0.019 -0.011,0.011 -0.01,0.015 -0.009,0.015 -0.011,0.016 -0.006,0.015 -0.005,0.021 -0.004,0.015 -0.006,0.015 0,0.018 0,0.017 0,0 0,0.015 0,0.017 0.006,0.018 0.004,0.015 0.005,0.021 0.006,0.013 0.011,0.015 0.009,0.018 0.01,0.015 0.011,0.012 0.015,0.014 0.011,0.019 0.015,0.011 0.013,0.013 0.019,0.013 0.016,0.012 0.021,0.009 0.02,0.013 0.021,0.011 0.017,0.009 0.024,0.008 0.02,0.006 0.021,0.005 0.026,0.008 0.021,0.003 0.026,0.01 0.026,0 0.024,0.007 0.028,0 0.024,0.002 0.023,0 0,0 0.027,0 0.025,-0.002 0.024,0 0.024,-0.007 0.028,0 0.024,-0.01 0.023,-0.003 0.024,-0.008 0.02,-0.005 0.021,-0.006 0.022,-0.008 0.023,-0.009 0.018,-0.011 0.023,-0.013 0.018,-0.009 0.017,-0.012 0.017,-0.013 0.017,-0.013 0.013,-0.011 0.013,-0.019 0.015,-0.014 0.013,-0.012 0.009,-0.015 0.008,-0.018 0.011,-0.015 0.002,-0.013 0.009,-0.021 0.002,-0.015 0.005,-0.018 0,-0.017 0,-0.015"
           style="fill:none;fill-opacity:0;stroke:#494936;stroke-width:0.02"
           inkscape:connector-curvature="0" />
        <path
           id="path6046"
           d="m 692.589,527.865 -0.002,-0.178 -0.015,-0.173 -0.019,-0.175 -0.029,-0.175 -0.036,-0.17 -0.039,-0.17 -0.054,-0.165 -0.056,-0.166 -0.065,-0.157 -0.075,-0.155 -0.076,-0.158 -0.088,-0.144 -0.093,-0.139 -0.097,-0.14 -0.108,-0.127 -0.108,-0.127 -0.116,-0.117 -0.119,-0.114 -0.132,-0.102 -0.127,-0.097 -0.134,-0.09 -0.144,-0.082 -0.136,-0.072 -0.149,-0.064 -0.145,-0.058 -0.155,-0.052 -0.151,-0.037 -0.155,-0.032 -0.156,-0.018 -0.153,-0.019 -0.157,0 -0.156,0 -0.155,0.019 -0.159,0.018 -0.152,0.032 -0.149,0.037 -0.155,0.052 -0.146,0.058 -0.145,0.064 -0.143,0.072 -0.14,0.082 -0.134,0.09 -0.127,0.097 -0.129,0.102 -0.123,0.114 -0.115,0.117 -0.109,0.127 -0.108,0.127 -0.098,0.14 -0.09,0.139 -0.087,0.144 -0.077,0.158 -0.073,0.155 -0.067,0.157 -0.057,0.166 -0.053,0.165 -0.041,0.17 -0.039,0.17 -0.028,0.175 -0.018,0.175 -0.013,0.173 -0.004,0.178"
           style="fill:none;fill-opacity:0;stroke:#494936;stroke-width:0.02"
           inkscape:connector-curvature="0" />
        <path
           id="path6048"
           d="m 691.608,528.029 0.904,0 0,2.398 -0.904,0 0,-2.398 z"
           style="fill:#b7b79d"
           inkscape:connector-curvature="0" />
        <path
           id="path6050"
           d="m 692.512,530.345 0,-2.48"
           style="fill:none;fill-opacity:0;stroke:#494936;stroke-width:0.02"
           inkscape:connector-curvature="0" />
        <path
           id="path6052"
           d="m 691.524,530.345 0,-2.48"
           style="fill:none;fill-opacity:0;stroke:#000000;stroke-width:0.02"
           inkscape:connector-curvature="0" />
        <path
           id="path6054"
           d="m 687.48,530.427 0,-0.013 0,-0.018 -0.008,-0.017 -0.002,-0.015 -0.005,-0.019 -0.01,-0.014 -0.009,-0.017 -0.007,-0.015 -0.013,-0.015 -0.013,-0.013 -0.015,-0.019 -0.015,-0.013 -0.015,-0.011 -0.017,-0.015 -0.019,-0.011 -0.016,-0.011 -0.023,-0.011 -0.02,-0.01 -0.024,-0.013 -0.021,-0.011 -0.022,-0.007 -0.026,-0.008 -0.025,-0.007 -0.026,-0.004 -0.026,-0.008 -0.026,-10e-4 -0.024,-0.004 -0.026,-0.006 -0.028,-0.002 -0.026,0 -0.026,0 0,0 -0.03,0 -0.026,0 -0.03,0.002 -0.022,0.006 -0.027,0.004 -0.026,10e-4 -0.026,0.008 -0.026,0.004 -0.024,0.007 -0.026,0.008 -0.024,0.007 -0.019,0.011 -0.024,0.013 -0.023,0.01 -0.018,0.011 -0.021,0.011 -0.017,0.011 -0.015,0.015 -0.016,0.011 -0.015,0.013 -0.015,0.019 -0.015,0.013 -0.011,0.015 -0.01,0.015 -0.007,0.017 -0.009,0.014 -0.006,0.019 -0.004,0.015 -0.005,0.017 -0.002,0.018 0,0.013 0,0 0,0.019 0.002,0.015 0.005,0.019 0.004,0.016 0.006,0.013 0.009,0.019 0.007,0.015 0.01,0.019 0.011,0.013 0.015,0.015 0.015,0.014 0.015,0.015 0.016,0.013 0.015,0.014 0.017,0.013 0.021,0.011 0.018,0.011 0.023,0.009 0.024,0.011 0.019,0.008 0.024,0.009 0.026,0.01 0.024,0.005 0.026,0.008 0.026,0.003 0.026,0.006 0.027,0.002 0.022,0.002 0.03,0.005 0.026,0.002 0.03,0 0,0 0.026,0 0.026,-0.002 0.028,-0.005 0.026,-0.002 0.024,-0.002 0.026,-0.006 0.026,-0.003 0.026,-0.008 0.025,-0.005 0.026,-0.01 0.022,-0.009 0.021,-0.008 0.024,-0.011 0.02,-0.009 0.023,-0.011 0.016,-0.011 0.019,-0.013 0.017,-0.014 0.015,-0.013 0.015,-0.015 0.015,-0.014 0.013,-0.015 0.013,-0.013 0.007,-0.019 0.009,-0.015 0.01,-0.019 0.005,-0.013 0.002,-0.016 0.008,-0.019 0,-0.015 0,-0.019 z"
           style="fill:#b7b79d"
           inkscape:connector-curvature="0" />
        <path
           id="path6056"
           d="m 687.403,530.349 0,-0.017 -0.005,-0.018 0,-0.015 -0.006,-0.015 -0.005,-0.021 -0.008,-0.015 -0.007,-0.016 -0.01,-0.015 -0.009,-0.015 -0.011,-0.011 -0.011,-0.019 -0.015,-0.015 -0.015,-0.011 -0.017,-0.011 -0.019,-0.015 -0.016,-0.011 -0.017,-0.01 -0.021,-0.013 -0.02,-0.009 -0.021,-0.011 -0.024,-0.009 -0.02,-0.004 -0.023,-0.01 -0.026,-0.003 -0.02,-0.01 -0.027,-0.003 -0.026,-0.006 -0.02,-0.002 -0.026,0 -0.026,-0.002 -0.026,0 0,0 -0.026,0 -0.021,0.002 -0.026,0 -0.026,0.002 -0.021,0.006 -0.026,0.003 -0.02,0.01 -0.026,0.003 -0.025,0.01 -0.022,0.004 -0.02,0.009 -0.021,0.011 -0.02,0.009 -0.025,0.013 -0.016,0.01 -0.015,0.011 -0.017,0.015 -0.019,0.011 -0.017,0.011 -0.011,0.015 -0.013,0.019 -0.013,0.011 -0.009,0.015 -0.01,0.015 -0.007,0.016 -0.007,0.015 -0.008,0.021 0,0.015 -0.005,0.015 -0.004,0.018 0,0.017 0,0 0,0.015 0.004,0.017 0.005,0.018 0,0.015 0.008,0.021 0.007,0.013 0.007,0.015 0.01,0.018 0.009,0.015 0.013,0.012 0.013,0.014 0.011,0.019 0.017,0.011 0.019,0.013 0.017,0.013 0.015,0.012 0.016,0.009 0.025,0.013 0.02,0.011 0.021,0.009 0.02,0.008 0.022,0.006 0.025,0.005 0.026,0.008 0.02,0.003 0.026,0.01 0.021,0 0.026,0.007 0.026,0 0.021,0.002 0.026,0 0,0 0.026,0 0.026,-0.002 0.026,0 0.02,-0.007 0.026,0 0.027,-0.01 0.02,-0.003 0.026,-0.008 0.023,-0.005 0.02,-0.006 0.024,-0.008 0.021,-0.009 0.02,-0.011 0.021,-0.013 0.017,-0.009 0.016,-0.012 0.019,-0.013 0.017,-0.013 0.015,-0.011 0.015,-0.019 0.011,-0.014 0.011,-0.012 0.009,-0.015 0.01,-0.018 0.007,-0.015 0.008,-0.013 0.005,-0.021 0.006,-0.015 0,-0.018 0.005,-0.017 0,-0.015"
           style="fill:none;fill-opacity:0;stroke:#494936;stroke-width:0.02"
           inkscape:connector-curvature="0" />
        <path
           id="path6058"
           d="m 686.497,528.029 0.906,0 0,2.398 -0.906,0 0,-2.398 z"
           style="fill:#7a7a5a"
           inkscape:connector-curvature="0" />
        <path
           id="path6060"
           d="m 691.603,528.027 0,-0.131 -0.01,-0.13 -0.011,-0.134 -0.017,-0.127 -0.026,-0.129 -0.029,-0.128 -0.032,-0.123 -0.037,-0.123 -0.047,-0.122 -0.047,-0.115 -0.052,-0.116 -0.056,-0.112 -0.061,-0.108 -0.064,-0.104 -0.07,-0.095 -0.073,-0.093 -0.078,-0.094 -0.082,-0.083 -0.079,-0.081 -0.087,-0.076 -0.094,-0.071 -0.089,-0.059 -0.097,-0.058 -0.093,-0.047 -0.099,-0.046 -0.099,-0.04 -0.102,-0.033 -0.105,-0.028 -0.102,-0.017 -0.104,-0.015 -0.105,-0.007 -0.106,0 -0.105,0.007 -0.1,0.015 -0.106,0.017 -0.101,0.028 -0.106,0.033 -0.101,0.04 -0.093,0.046 -0.097,0.047 -0.099,0.058 -0.087,0.059 -0.094,0.071 -0.084,0.076 -0.082,0.081 -0.083,0.083 -0.077,0.094 -0.073,0.093 -0.067,0.095 -0.063,0.104 -0.065,0.108 -0.054,0.112 -0.054,0.116 -0.047,0.115 -0.043,0.122 -0.037,0.123 -0.036,0.123 -0.026,0.128 -0.026,0.129 -0.02,0.127 -0.011,0.134 -0.008,0.13 -0.002,0.131"
           style="fill:none;fill-opacity:0;stroke:#494936;stroke-width:0.02"
           inkscape:connector-curvature="0" />
        <path
           id="path6062"
           d="m 686.497,528.029 0.906,0 0,2.398 -0.906,0 0,-2.398 z"
           style="fill:#b7b79d"
           inkscape:connector-curvature="0" />
        <path
           id="path6064"
           d="m 686.41,530.345 0,-2.48"
           style="fill:none;fill-opacity:0;stroke:#494936;stroke-width:0.02"
           inkscape:connector-curvature="0" />
        <path
           id="path6066"
           d="m 687.403,530.345 0,-2.48"
           style="fill:none;fill-opacity:0;stroke:#000000;stroke-width:0.02"
           inkscape:connector-curvature="0" />
        <path
           id="path6068"
           d="m 689.407,524.638 -0.145,-0.002 -0.146,0.009 -0.145,0.017 -0.149,0.023 -0.14,0.041 -0.14,0.046 -0.14,0.052 -0.134,0.068 -0.136,0.07 -0.132,0.082 -0.125,0.092 -0.119,0.097 -0.118,0.11 -0.115,0.113 -0.109,0.123 -0.098,0.129 -0.099,0.136 -0.091,0.142 -0.086,0.151 -0.077,0.151 -0.072,0.158"
           style="fill:none;fill-opacity:0;stroke:#dbdbce;stroke-width:0.63999999"
           inkscape:connector-curvature="0" />
      </g>
      <line
         id="line6070"
         y2="614.25598"
         x2="779.26801"
         y1="614.258"
         x1="764.82599"
         style="fill:none;fill-opacity:0;stroke:#000000;stroke-width:2" />
      <line
         id="line6072"
         y2="614.138"
         x2="817.00201"
         y1="614.14203"
         x1="802.55798"
         style="fill:none;fill-opacity:0;stroke:#000000;stroke-width:2" />
      <text
         id="text6074"
         y="608.75201"
         x="749.56"
         style="font-style:normal;font-weight:normal;font-size:6.77333021px;font-family:sans-serif;text-anchor:start;fill:#000000"
         font-size="6.77333">
        <tspan
           id="tspan6076"
           y="608.75201"
           x="749.56" />
        <tspan
           id="tspan6078"
           y="617.21899"
           x="749.56">log</tspan>
        <tspan
           id="tspan6080"
           y="625.685"
           x="749.56" />
      </text>
      <text
         id="text6082"
         y="619.14001"
         x="784.28998"
         style="font-style:normal;font-weight:normal;font-size:8.46667004px;font-family:sans-serif;text-anchor:start;fill:#000000"
         font-size="8.46667">
        <tspan
           id="tspan6084"
           y="619.14001"
           x="784.28998">log</tspan>
      </text>
      <text
         id="text6086"
         y="615.14001"
         x="820.76001"
         style="font-style:normal;font-weight:normal;font-size:8.46667004px;font-family:sans-serif;text-anchor:start;fill:#000000"
         font-size="8.46667">
        <tspan
           id="tspan6088"
           y="615.14001"
           x="820.76001">log</tspan>
      </text>
      <text
         id="text6090"
         y="605.57397"
         x="760.104"
         style="font-style:normal;font-weight:normal;font-size:12.80000019px;font-family:sans-serif;text-anchor:start;fill:#000000"
         font-size="12.8">
        <tspan
           id="tspan6092"
           y="605.57397"
           x="760.104" />
      </text>
      <g
         id="g6094">
        <circle
           id="ellipse6096"
           cy="526.005"
           cx="805.55701"
           style="fill:#ffffff"
           r="8.0331497" />
        <circle
           id="ellipse6098"
           cy="526.005"
           cx="805.55701"
           style="fill:none;fill-opacity:0;stroke:#000000;stroke-width:1"
           r="8.0331497" />
        <circle
           id="ellipse6100"
           cy="526.005"
           cx="805.55701"
           style="fill:none;fill-opacity:0;stroke:#000000;stroke-width:1"
           r="8.0331497" />
      </g>
      <g
         id="g6102">
        <circle
           id="ellipse6104"
           cy="548.80902"
           cx="796.78497"
           style="fill:#ffffff"
           r="8.0331497" />
        <circle
           id="ellipse6106"
           cy="548.80902"
           cx="796.78497"
           style="fill:none;fill-opacity:0;stroke:#000000;stroke-width:1"
           r="8.0331497" />
        <circle
           id="ellipse6108"
           cy="548.80902"
           cx="796.78497"
           style="fill:none;fill-opacity:0;stroke:#000000;stroke-width:1"
           r="8.0331497" />
      </g>
      <g
         id="g6110">
        <circle
           id="ellipse6112"
           cy="522.64099"
           cx="842.90503"
           style="fill:#ffffff"
           r="8.0331497" />
        <circle
           id="ellipse6114"
           cy="522.64099"
           cx="842.90503"
           style="fill:none;fill-opacity:0;stroke:#000000;stroke-width:1"
           r="8.0331497" />
        <circle
           id="ellipse6116"
           cy="522.64099"
           cx="842.90503"
           style="fill:none;fill-opacity:0;stroke:#000000;stroke-width:1"
           r="8.0331497" />
      </g>
      <text
         id="text6118"
         y="612.88599"
         x="608.50201"
         style="font-style:normal;font-weight:normal;font-size:9.03110981px;font-family:'TeX Gyre Bonum';text-anchor:start;fill:#000000"
         font-size="9.03111">
        <tspan
           id="tspan6120"
           y="612.88599"
           x="608.50201">struct page</tspan>
      </text>
      <g
         id="g6122">
        <path
           id="path6124"
           d="m 627.138,621.04 c 2.976,0 17.856,0 20.832,0 2.975,0 2.975,0 2.975,3.818 0,3.818 0,11.455 0,15.273 0,3.818 0,3.818 -2.975,3.818 -2.976,0 -17.856,0 -20.832,0 -2.976,0 -2.976,0 -2.976,-3.818 0,-3.818 0,-11.455 0,-15.273 0,-3.818 0,-3.818 2.976,-3.818 z"
           style="fill:#ffffff"
           inkscape:connector-curvature="0" />
        <path
           id="path6126"
           d="m 627.138,621.04 c 2.976,0 17.856,0 20.832,0 2.975,0 2.975,0 2.975,3.818 0,3.818 0,11.455 0,15.273 0,3.818 0,3.818 -2.975,3.818 -2.976,0 -17.856,0 -20.832,0 -2.976,0 -2.976,0 -2.976,-3.818 0,-3.818 0,-11.455 0,-15.273 0,-3.818 0,-3.818 2.976,-3.818"
           style="fill:none;fill-opacity:0;stroke:#000000;stroke-width:1"
           inkscape:connector-curvature="0" />
        <path
           id="path6128"
           d="m 627.138,621.04 c 2.976,0 17.856,0 20.832,0 2.975,0 2.975,0 2.975,3.818 0,3.818 0,11.455 0,15.273 0,3.818 0,3.818 -2.975,3.818 -2.976,0 -17.856,0 -20.832,0 -2.976,0 -2.976,0 -2.976,-3.818 0,-3.818 0,-11.455 0,-15.273 0,-3.818 0,-3.818 2.976,-3.818"
           style="fill:none;fill-opacity:0;stroke:#000000;stroke-width:0.1"
           inkscape:connector-curvature="0" />
        <line
           id="line6130"
           y2="643.94897"
           x2="647.96997"
           y1="643.94897"
           x1="627.138"
           style="fill:none;fill-opacity:0;stroke:#000000;stroke-width:0.1" />
        <line
           id="line6132"
           y2="640.13098"
           x2="650.94501"
           y1="624.85797"
           x1="650.94501"
           style="fill:none;fill-opacity:0;stroke:#000000;stroke-width:0.1" />
        <line
           id="line6134"
           y2="640.13098"
           x2="624.16199"
           y1="624.85797"
           x1="624.16199"
           style="fill:none;fill-opacity:0;stroke:#000000;stroke-width:0.1" />
        <line
           id="line6136"
           y2="621.03998"
           x2="647.96997"
           y1="621.03998"
           x1="627.138"
           style="fill:none;fill-opacity:0;stroke:#000000;stroke-width:0.1" />
        <text
           id="text6138"
           y="636.495"
           x="637.55402"
           style="font-style:normal;font-weight:normal;font-size:12.80000019px;font-family:sans-serif;text-anchor:middle;fill:#000000"
           font-size="12.8">
          <tspan
             id="tspan6140"
             y="636.495"
             x="637.55402" />
        </text>
      </g>
      <g
         id="g6142">
        <path
           id="path6144"
           d="m 932.784,527.04 c 2.999,0 17.998,0 20.998,0 2.999,0 2.999,0 2.999,11.231 0,11.23 0,33.691 0,44.922 0,11.231 0,11.231 -2.999,11.231 -3,0 -17.999,0 -20.998,0 -3,0 -3,0 -3,-11.231 0,-11.231 0,-33.692 0,-44.922 0,-11.231 0,-11.231 3,-11.231 z"
           style="fill:#ffffff"
           inkscape:connector-curvature="0" />
        <path
           id="path6146"
           d="m 932.784,527.04 c 2.999,0 17.998,0 20.998,0 2.999,0 2.999,0 2.999,11.231 0,11.23 0,33.691 0,44.922 0,11.231 0,11.231 -2.999,11.231 -3,0 -17.999,0 -20.998,0 -3,0 -3,0 -3,-11.231 0,-11.231 0,-33.692 0,-44.922 0,-11.231 0,-11.231 3,-11.231"
           style="fill:none;fill-opacity:0;stroke:#000000;stroke-width:1"
           inkscape:connector-curvature="0" />
        <path
           id="path6148"
           d="m 932.784,527.04 c 2.999,0 17.998,0 20.998,0 2.999,0 2.999,0 2.999,11.231 0,11.23 0,33.691 0,44.922 0,11.231 0,11.231 -2.999,11.231 -3,0 -17.999,0 -20.998,0 -3,0 -3,0 -3,-11.231 0,-11.231 0,-33.692 0,-44.922 0,-11.231 0,-11.231 3,-11.231"
           style="fill:none;fill-opacity:0;stroke:#000000;stroke-width:0.1"
           inkscape:connector-curvature="0" />
        <line
           id="line6150"
           y2="594.42401"
           x2="953.78198"
           y1="594.42401"
           x1="932.784"
           style="fill:none;fill-opacity:0;stroke:#000000;stroke-width:0.1" />
        <line
           id="line6152"
           y2="583.19299"
           x2="956.78101"
           y1="538.271"
           x1="956.78101"
           style="fill:none;fill-opacity:0;stroke:#000000;stroke-width:0.1" />
        <line
           id="line6154"
           y2="583.19299"
           x2="929.784"
           y1="538.271"
           x1="929.784"
           style="fill:none;fill-opacity:0;stroke:#000000;stroke-width:0.1" />
        <line
           id="line6156"
           y2="527.03998"
           x2="953.78198"
           y1="527.03998"
           x1="932.784"
           style="fill:none;fill-opacity:0;stroke:#000000;stroke-width:0.1" />
        <text
           id="text6158"
           y="564.73199"
           x="943.28302"
           style="font-style:normal;font-weight:normal;font-size:12.80000019px;font-family:sans-serif;text-anchor:middle;fill:#000000"
           font-size="12.8">
          <tspan
             id="tspan6160"
             y="564.73199"
             x="943.28302" />
        </text>
      </g>
      <text
         id="text6162"
         y="431.034"
         x="880.46002"
         style="font-style:normal;font-weight:normal;font-size:9.03110981px;font-family:'TeX Gyre Bonum';text-anchor:start;fill:#000000"
         font-size="9.03111">
        <tspan
           id="tspan6164"
           y="431.034"
           x="880.46002">struct</tspan>
        <tspan
           id="tspan6166"
           y="442.323"
           x="880.46002">vma_area_structs</tspan>
      </text>
      <g
         id="g6168">
        <circle
           id="ellipse6170"
           cy="560.67102"
           cx="911.617"
           style="fill:#ffffff"
           r="9.4874096" />
        <circle
           id="ellipse6172"
           cy="560.67102"
           cx="911.617"
           style="fill:none;fill-opacity:0;stroke:#000000;stroke-width:1"
           r="9.4874096" />
        <circle
           id="ellipse6174"
           cy="560.67102"
           cx="911.617"
           style="fill:none;fill-opacity:0;stroke:#000000;stroke-width:1"
           r="9.4874096" />
      </g>
      <g
         id="g6176">
        <circle
           id="ellipse6178"
           cy="536.62903"
           cx="910.10303"
           style="fill:#ffffff"
           r="9.4874096" />
        <circle
           id="ellipse6180"
           cy="536.62903"
           cx="910.10303"
           style="fill:none;fill-opacity:0;stroke:#000000;stroke-width:1"
           r="9.4874096" />
        <circle
           id="ellipse6182"
           cy="536.62903"
           cx="910.10303"
           style="fill:none;fill-opacity:0;stroke:#000000;stroke-width:1"
           r="9.4874096" />
      </g>
      <text
         id="text6184"
         y="539.76001"
         x="904.46198"
         style="font-style:normal;font-weight:normal;font-size:7.90221977px;font-family:sans-serif;text-anchor:start;fill:#000000"
         font-size="7.90222">
        <tspan
           id="tspan6186"
           y="539.76001"
           x="904.46198">log</tspan>
      </text>
      <text
         id="text6188"
         y="563.388"
         x="905.76801"
         style="font-style:normal;font-weight:normal;font-size:7.90221977px;font-family:sans-serif;text-anchor:start;fill:#000000"
         font-size="7.90222">
        <tspan
           id="tspan6190"
           y="563.388"
           x="905.76801">log</tspan>
      </text>
      <g
         id="g6192">
        <circle
           id="ellipse6194"
           cy="583.54498"
           cx="911.44098"
           style="fill:#ffffff"
           r="9.4874096" />
        <circle
           id="ellipse6196"
           cy="583.54498"
           cx="911.44098"
           style="fill:none;fill-opacity:0;stroke:#000000;stroke-width:1"
           r="9.4874096" />
        <circle
           id="ellipse6198"
           cy="583.54498"
           cx="911.44098"
           style="fill:none;fill-opacity:0;stroke:#000000;stroke-width:1"
           r="9.4874096" />
      </g>
      <text
         id="text6200"
         y="587.00201"
         x="905.59198"
         style="font-style:normal;font-weight:normal;font-size:7.90221977px;font-family:sans-serif;text-anchor:start;fill:#000000"
         font-size="7.90222">
        <tspan
           id="tspan6202"
           y="587.00201"
           x="905.59198">log</tspan>
      </text>
      <g
         id="g6204">
        <path
           id="path6206"
           d="m 640.782,442.316 c 2.308,0 13.847,0 16.155,0 2.308,0 2.308,0 2.308,3.818 0,3.818 0,11.455 0,15.273 0,3.818 0,3.818 -2.308,3.818 -2.308,0 -13.847,0 -16.155,0 -2.308,0 -2.308,0 -2.308,-3.818 0,-3.818 0,-11.455 0,-15.273 0,-3.818 0,-3.818 2.308,-3.818 z"
           style="fill:#e5e5e5"
           inkscape:connector-curvature="0" />
        <path
           id="path6208"
           d="m 640.782,442.316 c 2.308,0 13.847,0 16.155,0 2.308,0 2.308,0 2.308,3.818 0,3.818 0,11.455 0,15.273 0,3.818 0,3.818 -2.308,3.818 -2.308,0 -13.847,0 -16.155,0 -2.308,0 -2.308,0 -2.308,-3.818 0,-3.818 0,-11.455 0,-15.273 0,-3.818 0,-3.818 2.308,-3.818"
           style="fill:none;fill-opacity:0;stroke:#000000;stroke-width:1"
           inkscape:connector-curvature="0" />
        <path
           id="path6210"
           d="m 640.782,442.316 c 2.308,0 13.847,0 16.155,0 2.308,0 2.308,0 2.308,3.818 0,3.818 0,11.455 0,15.273 0,3.818 0,3.818 -2.308,3.818 -2.308,0 -13.847,0 -16.155,0 -2.308,0 -2.308,0 -2.308,-3.818 0,-3.818 0,-11.455 0,-15.273 0,-3.818 0,-3.818 2.308,-3.818"
           style="fill:none;fill-opacity:0;stroke:#000000;stroke-width:0.1"
           inkscape:connector-curvature="0" />
        <line
           id="line6212"
           y2="465.22501"
           x2="656.93701"
           y1="465.22501"
           x1="640.78198"
           style="fill:none;fill-opacity:0;stroke:#000000;stroke-width:0.1" />
        <line
           id="line6214"
           y2="461.40701"
           x2="659.245"
           y1="446.134"
           x1="659.245"
           style="fill:none;fill-opacity:0;stroke:#000000;stroke-width:0.1" />
        <line
           id="line6216"
           y2="461.40701"
           x2="638.474"
           y1="446.134"
           x1="638.474"
           style="fill:none;fill-opacity:0;stroke:#000000;stroke-width:0.1" />
        <line
           id="line6218"
           y2="442.31601"
           x2="656.93701"
           y1="442.31601"
           x1="640.78198"
           style="fill:none;fill-opacity:0;stroke:#000000;stroke-width:0.1" />
        <text
           id="text6220"
           y="457.771"
           x="648.85901"
           style="font-style:normal;font-weight:normal;font-size:12.80000019px;font-family:sans-serif;text-anchor:middle;fill:#000000"
           font-size="12.8">
          <tspan
             id="tspan6222"
             y="457.771"
             x="648.85901" />
        </text>
      </g>
      <text
         id="text6224"
         y="450.45401"
         x="664.146"
         style="font-style:normal;font-weight:normal;font-size:7.90221977px;font-family:sans-serif;text-anchor:start;fill:#000000"
         font-size="7.90222">
        <tspan
           id="tspan6226"
           y="450.45401"
           x="664.146">global</tspan>
        <tspan
           id="tspan6228"
           y="460.332"
           x="664.146">queue</tspan>
      </text>
      <g
         id="g6230">
        <path
           id="path6232"
           d="m 696.562,533.72 c 30.924,0 55.675,-35.51 76.863,-35.51"
           style="fill:none;fill-opacity:0;stroke:#000000;stroke-width:2"
           inkscape:connector-curvature="0" />
        <polygon
           id="polygon6234"
           points="770.925,493.21 780.925,498.21 770.925,503.21 773.425,498.21 "
           style="fill:#000000" />
        <polygon
           id="polygon6236"
           points="770.925,493.21 780.925,498.21 770.925,503.21 773.425,498.21 "
           style="fill:none;fill-opacity:0;stroke:#000000;stroke-width:2" />
      </g>
      <line
         id="line6238"
         y2="546.86603"
         x2="957.28998"
         y1="546.83197"
         x1="929.47803"
         style="fill:none;fill-opacity:0;stroke:#000000;stroke-width:1" />
      <line
         id="line6240"
         y2="571.5"
         x2="957.08002"
         y1="571.46802"
         x1="929.26801"
         style="fill:none;fill-opacity:0;stroke:#000000;stroke-width:1" />
      <text
         id="text6242"
         y="535.33002"
         x="933.43201"
         style="font-style:normal;font-weight:normal;font-size:7.90221977px;font-family:sans-serif;text-anchor:start;fill:#000000"
         font-size="7.90222">
        <tspan
           id="tspan6244"
           y="535.33002"
           x="933.43201">LOG</tspan>
        <tspan
           id="tspan6246"
           y="545.20801"
           x="933.43201">HEAD</tspan>
      </text>
      <text
         id="text6248"
         y="558.06799"
         x="934.28003"
         style="font-style:normal;font-weight:normal;font-size:7.90221977px;font-family:sans-serif;text-anchor:start;fill:#000000"
         font-size="7.90222">
        <tspan
           id="tspan6250"
           y="558.06799"
           x="934.28003">LOG</tspan>
        <tspan
           id="tspan6252"
           y="567.94598"
           x="934.28003">HEAD</tspan>
      </text>
      <text
         id="text6254"
         y="581.38397"
         x="934.74402"
         style="font-style:normal;font-weight:normal;font-size:7.90221977px;font-family:sans-serif;text-anchor:start;fill:#000000"
         font-size="7.90222">
        <tspan
           id="tspan6256"
           y="581.38397"
           x="934.74402">LOG</tspan>
        <tspan
           id="tspan6258"
           y="591.26202"
           x="934.74402">HEAD</tspan>
      </text>
      <text
         id="text6260"
         y="458.854"
         x="891.10199"
         style="font-style:normal;font-weight:normal;font-size:7.90221977px;font-family:sans-serif;text-anchor:start;fill:#000000"
         font-size="7.90222">
        <tspan
           id="tspan6262"
           y="458.854"
           x="891.10199">insert mark</tspan>
        <tspan
           id="tspan6264"
           y="468.73199"
           x="891.10199">remove mark</tspan>
      </text>
    </g>
  </g>
</svg>
