<?xml version="1.0" encoding="UTF-8" standalone="no"?>
<!-- Created with Inkscape (http://www.inkscape.org/) -->

<svg
   xmlns:dc="http://purl.org/dc/elements/1.1/"
   xmlns:cc="http://creativecommons.org/ns#"
   xmlns:rdf="http://www.w3.org/1999/02/22-rdf-syntax-ns#"
   xmlns:svg="http://www.w3.org/2000/svg"
   xmlns="http://www.w3.org/2000/svg"
   xmlns:sodipodi="http://sodipodi.sourceforge.net/DTD/sodipodi-0.dtd"
   xmlns:inkscape="http://www.inkscape.org/namespaces/inkscape"
   width="210mm"
   height="100mm"
   viewBox="0 0 744.09449 354.33071"
   id="svg2"
   version="1.1"
   inkscape:version="0.91 r13725"
   sodipodi:docname="file_rmap.svg">
  <defs
     id="defs4" />
  <sodipodi:namedview
     id="base"
     pagecolor="#ffffff"
     bordercolor="#666666"
     borderopacity="1.0"
     inkscape:pageopacity="0.0"
     inkscape:pageshadow="2"
     inkscape:zoom="0.98994949"
     inkscape:cx="412.78239"
     inkscape:cy="6.0542991"
     inkscape:document-units="px"
     inkscape:current-layer="layer1"
     showgrid="false"
     inkscape:window-width="2880"
     inkscape:window-height="1577"
     inkscape:window-x="0"
     inkscape:window-y="0"
     inkscape:window-maximized="1" />
  <metadata
     id="metadata7">
    <rdf:RDF>
      <cc:Work
         rdf:about="">
        <dc:format>image/svg+xml</dc:format>
        <dc:type
           rdf:resource="http://purl.org/dc/dcmitype/StillImage" />
        <dc:title></dc:title>
      </cc:Work>
    </rdf:RDF>
  </metadata>
  <g
     inkscape:label="Layer 1"
     inkscape:groupmode="layer"
     id="layer1"
     transform="translate(0,-698.0315)">
    <g
       id="g17578"
       transform="matrix(1.5526333,0,0,1.4799839,-869.96501,69.090975)">
      <g
         id="g17038">
        <path
           id="path17040"
           d="m 939.067,490.946 40.625,0 c 20.318,0 20.318,0 20.318,24.178 l 0,48.357 c 0,24.178 0,24.178 -20.318,24.178 l -40.625,0 c -20.313,0 -20.313,0 -20.313,-24.178 l 0,-48.357 c 0,-24.178 0,-24.178 20.313,-24.178 z"
           style="fill:#add8e6"
           inkscape:connector-curvature="0" />
        <path
           id="path17042"
           d="m 939.067,490.946 40.625,0 c 20.318,0 20.318,0 20.318,24.178 l 0,48.357 c 0,24.178 0,24.178 -20.318,24.178 l -40.625,0 c -20.313,0 -20.313,0 -20.313,-24.178 l 0,-48.357 c 0,-24.178 0,-24.178 20.313,-24.178"
           style="fill:none;fill-opacity:0;stroke:#000000;stroke-width:2;stroke-dasharray:6"
           inkscape:connector-curvature="0" />
        <text
           id="text17044"
           y="512.84601"
           x="928.75403"
           style="font-style:normal;font-weight:normal;font-size:12.80000019px;font-family:sans-serif;text-anchor:start;fill:#000000"
           font-size="12.8">
          <tspan
             id="tspan17046"
             y="512.84601"
             x="928.75403" />
        </text>
      </g>
      <g
         id="g17048">
        <path
           id="path17050"
           d="m 714.223,581.322 104.374,0 c 52.187,0 52.187,0 52.187,19.251 l 0,38.503 c 0,19.252 0,19.252 -52.187,19.252 l -104.374,0 c -52.187,0 -52.187,0 -52.187,-19.252 l 0,-38.503 c 0,-19.251 0,-19.251 52.187,-19.251 z"
           style="fill:#e5e5e5"
           inkscape:connector-curvature="0" />
        <path
           id="path17052"
           d="m 714.223,581.322 104.374,0 c 52.187,0 52.187,0 52.187,19.251 l 0,38.503 c 0,19.252 0,19.252 -52.187,19.252 l -104.374,0 c -52.187,0 -52.187,0 -52.187,-19.252 l 0,-38.503 c 0,-19.251 0,-19.251 52.187,-19.251"
           style="fill:none;fill-opacity:0;stroke:#000000;stroke-width:2;stroke-dasharray:6"
           inkscape:connector-curvature="0" />
        <text
           id="text17054"
           y="603.22198"
           x="672.03601"
           style="font-style:normal;font-weight:normal;font-size:12.80000019px;font-family:sans-serif;text-anchor:start;fill:#000000"
           font-size="12.8">
          <tspan
             id="tspan17056"
             y="603.22198"
             x="672.03601" />
        </text>
      </g>
      <g
         id="g17058">
        <ellipse
           id="ellipse17060"
           ry="40.272499"
           rx="56.109798"
           cy="536.14099"
           cx="820.07599"
           style="fill:#ffffff" />
        <ellipse
           id="ellipse17062"
           ry="40.272499"
           rx="56.109798"
           cy="536.14099"
           cx="820.07599"
           style="fill:none;fill-opacity:0;stroke:#000000;stroke-width:1;stroke-dasharray:4" />
      </g>
      <g
         id="g17064">
        <circle
           id="ellipse17066"
           cy="612.42102"
           cx="826.11499"
           style="fill:#ffffff"
           r="9.4874096" />
        <circle
           id="ellipse17068"
           cy="612.42102"
           cx="826.11499"
           style="fill:none;fill-opacity:0;stroke:#000000;stroke-width:1"
           r="9.4874096" />
        <circle
           id="ellipse17070"
           cy="612.42102"
           cx="826.11499"
           style="fill:none;fill-opacity:0;stroke:#000000;stroke-width:1"
           r="9.4874096" />
      </g>
      <g
         id="g17072">
        <circle
           id="ellipse17074"
           cy="616.25702"
           cx="789.68103"
           style="fill:#ffffff"
           r="9.4874096" />
        <circle
           id="ellipse17076"
           cy="616.25702"
           cx="789.68103"
           style="fill:none;fill-opacity:0;stroke:#000000;stroke-width:1"
           r="9.4874096" />
        <circle
           id="ellipse17078"
           cy="616.25702"
           cx="789.68103"
           style="fill:none;fill-opacity:0;stroke:#000000;stroke-width:1"
           r="9.4874096" />
      </g>
      <g
         id="g17080">
        <circle
           id="ellipse17082"
           cy="615.24701"
           cx="754.32501"
           style="fill:#ffffff"
           r="9.4874096" />
        <circle
           id="ellipse17084"
           cy="615.24701"
           cx="754.32501"
           style="fill:none;fill-opacity:0;stroke:#000000;stroke-width:1"
           r="9.4874096" />
        <circle
           id="ellipse17086"
           cy="615.24701"
           cx="754.32501"
           style="fill:none;fill-opacity:0;stroke:#000000;stroke-width:1"
           r="9.4874096" />
      </g>
      <g
         id="g17088">
        <rect
           id="rect17090"
           height="48.712601"
           width="140.061"
           y="430.68399"
           x="626.11798"
           style="fill:#ffffff" />
        <rect
           id="rect17092"
           height="48.712601"
           width="140.061"
           y="430.68399"
           x="626.11798"
           style="fill:none;fill-opacity:0;stroke:#000000;stroke-width:1" />
      </g>
      <g
         id="g17094">
        <path
           id="path17096"
           d="m 704.046,443.006 c 2.308,0 13.847,0 16.155,0 2.308,0 2.308,0 2.308,3.818 0,3.818 0,11.455 0,15.273 0,3.818 0,3.818 -2.308,3.818 -2.308,0 -13.847,0 -16.155,0 -2.308,0 -2.308,0 -2.308,-3.818 0,-3.818 0,-11.455 0,-15.273 0,-3.818 0,-3.818 2.308,-3.818 z"
           style="fill:#add8e6"
           inkscape:connector-curvature="0" />
        <path
           id="path17098"
           d="m 704.046,443.006 c 2.308,0 13.847,0 16.155,0 2.308,0 2.308,0 2.308,3.818 0,3.818 0,11.455 0,15.273 0,3.818 0,3.818 -2.308,3.818 -2.308,0 -13.847,0 -16.155,0 -2.308,0 -2.308,0 -2.308,-3.818 0,-3.818 0,-11.455 0,-15.273 0,-3.818 0,-3.818 2.308,-3.818"
           style="fill:none;fill-opacity:0;stroke:#000000;stroke-width:1"
           inkscape:connector-curvature="0" />
        <path
           id="path17100"
           d="m 704.046,443.006 c 2.308,0 13.847,0 16.155,0 2.308,0 2.308,0 2.308,3.818 0,3.818 0,11.455 0,15.273 0,3.818 0,3.818 -2.308,3.818 -2.308,0 -13.847,0 -16.155,0 -2.308,0 -2.308,0 -2.308,-3.818 0,-3.818 0,-11.455 0,-15.273 0,-3.818 0,-3.818 2.308,-3.818"
           style="fill:none;fill-opacity:0;stroke:#000000;stroke-width:0.1"
           inkscape:connector-curvature="0" />
        <line
           id="line17102"
           y2="465.91501"
           x2="720.20099"
           y1="465.91501"
           x1="704.04602"
           style="fill:none;fill-opacity:0;stroke:#000000;stroke-width:0.1" />
        <line
           id="line17104"
           y2="462.09698"
           x2="722.50897"
           y1="446.82401"
           x1="722.50897"
           style="fill:none;fill-opacity:0;stroke:#000000;stroke-width:0.1" />
        <line
           id="line17106"
           y2="462.09698"
           x2="701.73798"
           y1="446.82401"
           x1="701.73798"
           style="fill:none;fill-opacity:0;stroke:#000000;stroke-width:0.1" />
        <line
           id="line17108"
           y2="443.00601"
           x2="720.20099"
           y1="443.00601"
           x1="704.04602"
           style="fill:none;fill-opacity:0;stroke:#000000;stroke-width:0.1" />
        <text
           id="text17110"
           y="458.461"
           x="712.12299"
           style="font-style:normal;font-weight:normal;font-size:12.80000019px;font-family:sans-serif;text-anchor:middle;fill:#000000"
           font-size="12.8">
          <tspan
             id="tspan17112"
             y="458.461"
             x="712.12299" />
        </text>
      </g>
      <text
         id="text17114"
         y="451.14401"
         x="727.41199"
         style="font-style:normal;font-weight:normal;font-size:6.77333021px;font-family:sans-serif;text-anchor:start;fill:#000000"
         font-size="6.77333">
        <tspan
           id="tspan17116"
           y="451.14401"
           x="727.41199">per-coe</tspan>
        <tspan
           id="tspan17118"
           y="459.61099"
           x="727.41199">queue</tspan>
      </text>
      <text
         id="text17120"
         y="504.10001"
         x="667.146"
         style="font-style:normal;font-weight:normal;font-size:7.90221977px;font-family:'TeX Gyre Bonum';text-anchor:start;fill:#000000"
         font-size="7.90222">
        <tspan
           id="tspan17122"
           y="504.10001"
           x="667.146">struct</tspan>
        <tspan
           id="tspan17124"
           y="513.97803"
           x="667.146">address_space</tspan>
      </text>
      <text
         id="text17126"
         y="482.82999"
         x="685.43799"
         style="font-style:normal;font-weight:normal;font-size:12.80000019px;font-family:sans-serif;text-anchor:start;fill:#000000"
         font-size="12.8">
        <tspan
           id="tspan17128"
           y="482.82999"
           x="685.43799" />
      </text>
      <text
         id="text17130"
         y="440.466"
         x="795.85999"
         style="font-style:normal;font-weight:normal;font-size:7.90221977px;font-family:'TeX Gyre Bonum';text-anchor:start;fill:#000000"
         font-size="7.90222">
        <tspan
           id="tspan17132"
           y="440.466"
           x="795.85999">struct</tspan>
        <tspan
           id="tspan17134"
           y="450.34399"
           x="795.85999">inode</tspan>
      </text>
      <line
         id="line17136"
         y2="498.87799"
         x2="825.69598"
         y1="518.052"
         x1="807.59998"
         style="fill:none;fill-opacity:0;stroke:#000000;stroke-width:2" />
      <line
         id="line17138"
         y2="498.23001"
         x2="825.85797"
         y1="517.49402"
         x1="844.23999"
         style="fill:none;fill-opacity:0;stroke:#000000;stroke-width:2" />
      <g
         id="g17140">
        <path
           id="path17142"
           d="m 796.411,454.354 c 4.893,0 29.358,0 34.251,0 4.893,0 4.893,0 4.893,5.172 0,5.172 0,15.517 0,20.689 0,5.172 0,5.172 -4.893,5.172 -4.893,0 -29.358,0 -34.251,0 -4.893,0 -4.893,0 -4.893,-5.172 0,-5.172 0,-15.517 0,-20.689 0,-5.172 0,-5.172 4.893,-5.172 z"
           style="fill:#ffffff"
           inkscape:connector-curvature="0" />
        <path
           id="path17144"
           d="m 796.411,454.354 c 4.893,0 29.358,0 34.251,0 4.893,0 4.893,0 4.893,5.172 0,5.172 0,15.517 0,20.689 0,5.172 0,5.172 -4.893,5.172 -4.893,0 -29.358,0 -34.251,0 -4.893,0 -4.893,0 -4.893,-5.172 0,-5.172 0,-15.517 0,-20.689 0,-5.172 0,-5.172 4.893,-5.172"
           style="fill:none;fill-opacity:0;stroke:#000000;stroke-width:2"
           inkscape:connector-curvature="0" />
        <path
           id="path17146"
           d="m 796.411,454.354 c 4.893,0 29.358,0 34.251,0 4.893,0 4.893,0 4.893,5.172 0,5.172 0,15.517 0,20.689 0,5.172 0,5.172 -4.893,5.172 -4.893,0 -29.358,0 -34.251,0 -4.893,0 -4.893,0 -4.893,-5.172 0,-5.172 0,-15.517 0,-20.689 0,-5.172 0,-5.172 4.893,-5.172"
           style="fill:none;fill-opacity:0;stroke:#000000;stroke-width:0.2"
           inkscape:connector-curvature="0" />
        <line
           id="line17148"
           y2="485.38699"
           x2="830.66199"
           y1="485.38699"
           x1="796.41101"
           style="fill:none;fill-opacity:0;stroke:#000000;stroke-width:0.2" />
        <line
           id="line17150"
           y2="480.215"
           x2="835.55499"
           y1="459.526"
           x1="835.55499"
           style="fill:none;fill-opacity:0;stroke:#000000;stroke-width:0.2" />
        <line
           id="line17152"
           y2="480.215"
           x2="791.51801"
           y1="459.526"
           x1="791.51801"
           style="fill:none;fill-opacity:0;stroke:#000000;stroke-width:0.2" />
        <line
           id="line17154"
           y2="454.354"
           x2="830.66199"
           y1="454.354"
           x1="796.41101"
           style="fill:none;fill-opacity:0;stroke:#000000;stroke-width:0.2" />
        <text
           id="text17156"
           y="473.871"
           x="813.53699"
           style="font-style:normal;font-weight:normal;font-size:12.80000019px;font-family:sans-serif;text-anchor:middle;fill:#000000"
           font-size="12.8">
          <tspan
             id="tspan17158"
             y="473.871"
             x="813.53699" />
        </text>
      </g>
      <g
         id="g17160">
        <path
           id="path17162"
           d="m 665.863,521.35 c 7.819,0 46.915,0 54.734,0 7.819,0 7.819,0 7.819,11.195 0,11.195 0,33.585 0,44.78 0,11.195 0,11.195 -7.819,11.195 -7.819,0 -46.915,0 -54.734,0 -7.819,0 -7.819,0 -7.819,-11.195 0,-11.195 0,-33.585 0,-44.78 0,-11.195 0,-11.195 7.819,-11.195 z"
           style="fill:#ffffff"
           inkscape:connector-curvature="0" />
        <path
           id="path17164"
           d="m 665.863,521.35 c 7.819,0 46.915,0 54.734,0 7.819,0 7.819,0 7.819,11.195 0,11.195 0,33.585 0,44.78 0,11.195 0,11.195 -7.819,11.195 -7.819,0 -46.915,0 -54.734,0 -7.819,0 -7.819,0 -7.819,-11.195 0,-11.195 0,-33.585 0,-44.78 0,-11.195 0,-11.195 7.819,-11.195"
           style="fill:none;fill-opacity:0;stroke:#000000;stroke-width:1"
           inkscape:connector-curvature="0" />
        <path
           id="path17166"
           d="m 665.863,521.35 c 7.819,0 46.915,0 54.734,0 7.819,0 7.819,0 7.819,11.195 0,11.195 0,33.585 0,44.78 0,11.195 0,11.195 -7.819,11.195 -7.819,0 -46.915,0 -54.734,0 -7.819,0 -7.819,0 -7.819,-11.195 0,-11.195 0,-33.585 0,-44.78 0,-11.195 0,-11.195 7.819,-11.195"
           style="fill:none;fill-opacity:0;stroke:#000000;stroke-width:0.1"
           inkscape:connector-curvature="0" />
        <line
           id="line17168"
           y2="588.52002"
           x2="720.59698"
           y1="588.52002"
           x1="665.86298"
           style="fill:none;fill-opacity:0;stroke:#000000;stroke-width:0.1" />
        <line
           id="line17170"
           y2="577.32501"
           x2="728.41602"
           y1="532.54498"
           x1="728.41602"
           style="fill:none;fill-opacity:0;stroke:#000000;stroke-width:0.1" />
        <line
           id="line17172"
           y2="577.32501"
           x2="658.04401"
           y1="532.54498"
           x1="658.04401"
           style="fill:none;fill-opacity:0;stroke:#000000;stroke-width:0.1" />
        <line
           id="line17174"
           y2="521.34998"
           x2="720.59698"
           y1="521.34998"
           x1="665.86298"
           style="fill:none;fill-opacity:0;stroke:#000000;stroke-width:0.1" />
        <text
           id="text17176"
           y="558.935"
           x="693.22998"
           style="font-style:normal;font-weight:normal;font-size:12.80000019px;font-family:sans-serif;text-anchor:middle;fill:#000000"
           font-size="12.8">
          <tspan
             id="tspan17178"
             y="558.935"
             x="693.22998" />
        </text>
      </g>
      <line
         id="line17180"
         y2="533.26001"
         x2="802.42401"
         y1="542.03998"
         x1="799.09802"
         style="fill:none;fill-opacity:0;stroke:#000000;stroke-width:2" />
      <line
         id="line17182"
         y2="543.09601"
         x2="728.95203"
         y1="542.98798"
         x1="658.77802"
         style="fill:none;fill-opacity:0;stroke:#000000;stroke-width:1" />
      <g
         id="g17184">
        <path
           id="path17186"
           d="m 738.472,532.848 c 12.13,0 31.18,-62.978 43.31,-62.978"
           style="fill:none;fill-opacity:0;stroke:#000000;stroke-width:2"
           inkscape:connector-curvature="0" />
        <polygon
           id="polygon17188"
           points="740.972,527.848 738.472,532.848 740.972,537.848 730.972,532.848 "
           style="fill:#000000" />
        <polygon
           id="polygon17190"
           points="740.972,527.848 738.472,532.848 740.972,537.848 730.972,532.848 "
           style="fill:none;fill-opacity:0;stroke:#000000;stroke-width:2" />
        <polygon
           id="polygon17192"
           points="779.282,474.87 781.782,469.87 779.282,464.87 789.282,469.87 "
           style="fill:#000000" />
        <polygon
           id="polygon17194"
           points="779.282,474.87 781.782,469.87 779.282,464.87 789.282,469.87 "
           style="fill:none;fill-opacity:0;stroke:#000000;stroke-width:2" />
      </g>
      <line
         id="line17196"
         y2="566.80402"
         x2="728.77399"
         y1="566.69598"
         x1="658.59802"
         style="fill:none;fill-opacity:0;stroke:#000000;stroke-width:1" />
      <line
         id="line17198"
         y2="497.84601"
         x2="826.85199"
         y1="552.98602"
         x1="729.07397"
         style="fill:none;fill-opacity:0;stroke:#000000;stroke-width:2" />
      <text
         id="text17200"
         y="580.37402"
         x="668.64001"
         style="font-style:normal;font-weight:normal;font-size:7.90221977px;font-family:sans-serif;text-anchor:start;fill:#000000"
         font-size="7.90222">
        <tspan
           id="tspan17202"
           y="580.37402"
           x="668.64001">LOG HEAD</tspan>
      </text>
      <text
         id="text17204"
         y="558.66602"
         x="678.646"
         style="font-style:normal;font-weight:normal;font-size:7.90221977px;font-family:sans-serif;text-anchor:start;fill:#000000"
         font-size="7.90222">
        <tspan
           id="tspan17206"
           y="558.66602"
           x="678.646">ROOT</tspan>
      </text>
      <g
         id="g17208">
        <path
           id="path17210"
           d="m 899.731,446.356 c 4.386,0 26.319,0 30.706,0 4.387,0 4.387,0 4.387,6.451 0,6.452 0,19.354 0,25.806 0,6.451 0,6.451 -4.387,6.451 -4.387,0 -26.32,0 -30.706,0 -4.387,0 -4.387,0 -4.387,-6.451 0,-6.452 0,-19.354 0,-25.806 0,-6.451 0,-6.451 4.387,-6.451 z"
           style="fill:#ffffff"
           inkscape:connector-curvature="0" />
        <path
           id="path17212"
           d="m 899.731,446.356 c 4.386,0 26.319,0 30.706,0 4.387,0 4.387,0 4.387,6.451 0,6.452 0,19.354 0,25.806 0,6.451 0,6.451 -4.387,6.451 -4.387,0 -26.32,0 -30.706,0 -4.387,0 -4.387,0 -4.387,-6.451 0,-6.452 0,-19.354 0,-25.806 0,-6.451 0,-6.451 4.387,-6.451"
           style="fill:none;fill-opacity:0;stroke:#000000;stroke-width:2"
           inkscape:connector-curvature="0" />
        <path
           id="path17214"
           d="m 899.731,446.356 c 4.386,0 26.319,0 30.706,0 4.387,0 4.387,0 4.387,6.451 0,6.452 0,19.354 0,25.806 0,6.451 0,6.451 -4.387,6.451 -4.387,0 -26.32,0 -30.706,0 -4.387,0 -4.387,0 -4.387,-6.451 0,-6.452 0,-19.354 0,-25.806 0,-6.451 0,-6.451 4.387,-6.451"
           style="fill:none;fill-opacity:0;stroke:#000000;stroke-width:0.2"
           inkscape:connector-curvature="0" />
        <line
           id="line17216"
           y2="485.064"
           x2="930.43701"
           y1="485.064"
           x1="899.73102"
           style="fill:none;fill-opacity:0;stroke:#000000;stroke-width:0.2" />
        <line
           id="line17218"
           y2="478.61301"
           x2="934.82397"
           y1="452.80701"
           x1="934.82397"
           style="fill:none;fill-opacity:0;stroke:#000000;stroke-width:0.2" />
        <line
           id="line17220"
           y2="478.61301"
           x2="895.34399"
           y1="452.80701"
           x1="895.34399"
           style="fill:none;fill-opacity:0;stroke:#000000;stroke-width:0.2" />
        <line
           id="line17222"
           y2="446.35599"
           x2="930.43701"
           y1="446.35599"
           x1="899.73102"
           style="fill:none;fill-opacity:0;stroke:#000000;stroke-width:0.2" />
        <text
           id="text17224"
           y="469.70999"
           x="915.08398"
           style="font-style:normal;font-weight:normal;font-size:12.80000019px;font-family:sans-serif;text-anchor:middle;fill:#000000"
           font-size="12.8">
          <tspan
             id="tspan17226"
             y="469.70999"
             x="915.08398" />
        </text>
      </g>
      <g
         id="g17228">
        <path
           id="path17230"
           d="m 884.216,571 c 3.59,0 21.54,0 25.131,0 3.59,0 3.59,0 3.59,4 0,4 0,12 0,16 0,4 0,4 -3.59,4 -3.591,0 -21.541,0 -25.131,0 -3.59,0 -3.59,0 -3.59,-4 0,-4 0,-12 0,-16 0,-4 0,-4 3.59,-4 z"
           style="fill:#ffffff"
           inkscape:connector-curvature="0" />
        <path
           id="path17232"
           d="m 884.216,571 c 3.59,0 21.54,0 25.131,0 3.59,0 3.59,0 3.59,4 0,4 0,12 0,16 0,4 0,4 -3.59,4 -3.591,0 -21.541,0 -25.131,0 -3.59,0 -3.59,0 -3.59,-4 0,-4 0,-12 0,-16 0,-4 0,-4 3.59,-4"
           style="fill:none;fill-opacity:0;stroke:#000000;stroke-width:2"
           inkscape:connector-curvature="0" />
        <path
           id="path17234"
           d="m 884.216,571 c 3.59,0 21.54,0 25.131,0 3.59,0 3.59,0 3.59,4 0,4 0,12 0,16 0,4 0,4 -3.59,4 -3.591,0 -21.541,0 -25.131,0 -3.59,0 -3.59,0 -3.59,-4 0,-4 0,-12 0,-16 0,-4 0,-4 3.59,-4"
           style="fill:none;fill-opacity:0;stroke:#000000;stroke-width:0.2"
           inkscape:connector-curvature="0" />
        <line
           id="line17236"
           y2="595"
           x2="909.34698"
           y1="595"
           x1="884.216"
           style="fill:none;fill-opacity:0;stroke:#000000;stroke-width:0.2" />
        <line
           id="line17238"
           y2="591"
           x2="912.93701"
           y1="575"
           x1="912.93701"
           style="fill:none;fill-opacity:0;stroke:#000000;stroke-width:0.2" />
        <line
           id="line17240"
           y2="591"
           x2="880.62598"
           y1="575"
           x1="880.62598"
           style="fill:none;fill-opacity:0;stroke:#000000;stroke-width:0.2" />
        <line
           id="line17242"
           y2="571"
           x2="909.34698"
           y1="571"
           x1="884.216"
           style="fill:none;fill-opacity:0;stroke:#000000;stroke-width:0.2" />
        <text
           id="text17244"
           y="587"
           x="896.78101"
           style="font-style:normal;font-weight:normal;font-size:12.80000019px;font-family:sans-serif;text-anchor:middle;fill:#000000"
           font-size="12.8">
          <tspan
             id="tspan17246"
             y="587"
             x="896.78101" />
        </text>
      </g>
      <g
         id="g17248">
        <path
           id="path17250"
           d="m 884.216,600.06 c 3.59,0 21.54,0 25.131,0 3.59,0 3.59,0 3.59,4 0,4 0,12 0,16 0,4 0,4 -3.59,4 -3.591,0 -21.541,0 -25.131,0 -3.59,0 -3.59,0 -3.59,-4 0,-4 0,-12 0,-16 0,-4 0,-4 3.59,-4 z"
           style="fill:#ffffff"
           inkscape:connector-curvature="0" />
        <path
           id="path17252"
           d="m 884.216,600.06 c 3.59,0 21.54,0 25.131,0 3.59,0 3.59,0 3.59,4 0,4 0,12 0,16 0,4 0,4 -3.59,4 -3.591,0 -21.541,0 -25.131,0 -3.59,0 -3.59,0 -3.59,-4 0,-4 0,-12 0,-16 0,-4 0,-4 3.59,-4"
           style="fill:none;fill-opacity:0;stroke:#000000;stroke-width:2"
           inkscape:connector-curvature="0" />
        <path
           id="path17254"
           d="m 884.216,600.06 c 3.59,0 21.54,0 25.131,0 3.59,0 3.59,0 3.59,4 0,4 0,12 0,16 0,4 0,4 -3.59,4 -3.591,0 -21.541,0 -25.131,0 -3.59,0 -3.59,0 -3.59,-4 0,-4 0,-12 0,-16 0,-4 0,-4 3.59,-4"
           style="fill:none;fill-opacity:0;stroke:#000000;stroke-width:0.2"
           inkscape:connector-curvature="0" />
        <line
           id="line17256"
           y2="624.06"
           x2="909.34698"
           y1="624.06"
           x1="884.216"
           style="fill:none;fill-opacity:0;stroke:#000000;stroke-width:0.2" />
        <line
           id="line17258"
           y2="620.06"
           x2="912.93701"
           y1="604.06"
           x1="912.93701"
           style="fill:none;fill-opacity:0;stroke:#000000;stroke-width:0.2" />
        <line
           id="line17260"
           y2="620.06"
           x2="880.62598"
           y1="604.06"
           x1="880.62598"
           style="fill:none;fill-opacity:0;stroke:#000000;stroke-width:0.2" />
        <line
           id="line17262"
           y2="600.06"
           x2="909.34698"
           y1="600.06"
           x1="884.216"
           style="fill:none;fill-opacity:0;stroke:#000000;stroke-width:0.2" />
        <text
           id="text17264"
           y="616.06"
           x="896.78101"
           style="font-style:normal;font-weight:normal;font-size:12.80000019px;font-family:sans-serif;text-anchor:middle;fill:#000000"
           font-size="12.8">
          <tspan
             id="tspan17266"
             y="616.06"
             x="896.78101" />
        </text>
      </g>
      <g
         id="g17268">
        <path
           id="path17270"
           d="m 883.31,628.822 c 3.59,0 21.54,0 25.131,0 3.59,0 3.59,0 3.59,4 0,4 0,12 0,16 0,4 0,4 -3.59,4 -3.591,0 -21.541,0 -25.131,0 -3.59,0 -3.59,0 -3.59,-4 0,-4 0,-12 0,-16 0,-4 0,-4 3.59,-4 z"
           style="fill:#ffffff"
           inkscape:connector-curvature="0" />
        <path
           id="path17272"
           d="m 883.31,628.822 c 3.59,0 21.54,0 25.131,0 3.59,0 3.59,0 3.59,4 0,4 0,12 0,16 0,4 0,4 -3.59,4 -3.591,0 -21.541,0 -25.131,0 -3.59,0 -3.59,0 -3.59,-4 0,-4 0,-12 0,-16 0,-4 0,-4 3.59,-4"
           style="fill:none;fill-opacity:0;stroke:#000000;stroke-width:2"
           inkscape:connector-curvature="0" />
        <path
           id="path17274"
           d="m 883.31,628.822 c 3.59,0 21.54,0 25.131,0 3.59,0 3.59,0 3.59,4 0,4 0,12 0,16 0,4 0,4 -3.59,4 -3.591,0 -21.541,0 -25.131,0 -3.59,0 -3.59,0 -3.59,-4 0,-4 0,-12 0,-16 0,-4 0,-4 3.59,-4"
           style="fill:none;fill-opacity:0;stroke:#000000;stroke-width:0.2"
           inkscape:connector-curvature="0" />
        <line
           id="line17276"
           y2="652.82202"
           x2="908.44098"
           y1="652.82202"
           x1="883.31"
           style="fill:none;fill-opacity:0;stroke:#000000;stroke-width:0.2" />
        <line
           id="line17278"
           y2="648.82202"
           x2="912.03101"
           y1="632.82202"
           x1="912.03101"
           style="fill:none;fill-opacity:0;stroke:#000000;stroke-width:0.2" />
        <line
           id="line17280"
           y2="648.82202"
           x2="879.71997"
           y1="632.82202"
           x1="879.71997"
           style="fill:none;fill-opacity:0;stroke:#000000;stroke-width:0.2" />
        <line
           id="line17282"
           y2="628.82202"
           x2="908.44098"
           y1="628.82202"
           x1="883.31"
           style="fill:none;fill-opacity:0;stroke:#000000;stroke-width:0.2" />
        <text
           id="text17284"
           y="644.82202"
           x="895.875"
           style="font-style:normal;font-weight:normal;font-size:12.80000019px;font-family:sans-serif;text-anchor:middle;fill:#000000"
           font-size="12.8">
          <tspan
             id="tspan17286"
             y="644.82202"
             x="895.875" />
        </text>
      </g>
      <path
         id="path17288"
         d="m 807.6,527.186 c 46.838,-25.568 47.42,-61.476 87.744,-61.476"
         style="fill:none;fill-opacity:0;stroke:#000000;stroke-width:2;stroke-dasharray:4"
         inkscape:connector-curvature="0" />
      <path
         id="path17290"
         d="M 754.822,606.124 C 801.66,580.556 840.302,583 880.626,583"
         style="fill:none;fill-opacity:0;stroke:#000000;stroke-width:2;stroke-dasharray:4"
         inkscape:connector-curvature="0" />
      <path
         id="path17292"
         d="m 790.914,606.124 c 35.022,-17.756 47.388,-12.714 89.712,5.936"
         style="fill:none;fill-opacity:0;stroke:#000000;stroke-width:2;stroke-dasharray:4"
         inkscape:connector-curvature="0" />
      <line
         id="line17294"
         y2="588.52197"
         x2="693.22998"
         y1="615.01398"
         x1="693.25201"
         style="fill:none;fill-opacity:0;stroke:#000000;stroke-width:2" />
      <line
         id="line17296"
         y2="614.19598"
         x2="743.40601"
         y1="614.354"
         x1="692.25598"
         style="fill:none;fill-opacity:0;stroke:#000000;stroke-width:2" />
      <g
         id="g17298">
        <path
           id="path17300"
           d="m 822.373,493.662 0,-0.965 0.195,-0.779 0.193,-0.488 0.383,-0.58 0.385,-0.392 0.68,-0.587 0.388,-0.192 0.486,-0.193 0.483,-0.094 0.388,0 0.577,0.094 0.388,0.096 0.775,0.289 0.582,0.587 0.387,0.392 0.39,0.676 0.19,0.586 0.193,0.773 0,0.295 0,0.58 -1.16,-0.098 0,-0.482 0,-0.295 -0.099,-0.484 -0.192,-0.289 -0.191,-0.391 -0.199,-0.291 -0.287,-0.292 -0.389,-0.197 -0.388,-0.192 -0.291,-0.096 -0.385,0 -0.483,0 -0.386,0.197 -0.584,0.387 -0.387,0.484 -0.287,0.584 -0.096,0.484 -0.195,0.584 0.092,0.584 -1.156,-0.295 z"
           style="fill:#b7b79d"
           inkscape:connector-curvature="0" />
        <path
           id="path17302"
           d="m 819.758,497.452 2.226,-2.136 10.358,0 -2.228,2.136 -10.356,0 z"
           style="fill:#c9c9b6"
           inkscape:connector-curvature="0" />
        <path
           id="path17304"
           d="m 819.758,497.452 2.226,-2.136 10.358,0 -2.228,2.136 -10.356,0"
           style="fill:none;fill-opacity:0;stroke:#494936;stroke-width:0.02"
           inkscape:connector-curvature="0" />
        <path
           id="path17306"
           d="m 830.114,505.23 2.324,-2.241 0,-7.771 -2.324,2.331 0,7.681 z"
           style="fill:#7a7a5a"
           inkscape:connector-curvature="0" />
        <path
           id="path17308"
           d="m 830.114,505.23 2.324,-2.241 0,-7.771 -2.324,2.331 0,7.681"
           style="fill:none;fill-opacity:0;stroke:#494936;stroke-width:0.02"
           inkscape:connector-curvature="0" />
        <path
           id="path17310"
           d="m 819.758,497.452 0,7.872 10.356,0 0,-7.872 -10.356,0 z"
           style="fill:#b7b79d"
           inkscape:connector-curvature="0" />
        <path
           id="path17312"
           d="m 819.758,497.452 0,7.872 10.356,0 0,-7.872 -10.356,0"
           style="fill:none;fill-opacity:0;stroke:#494936;stroke-width:0.02"
           inkscape:connector-curvature="0" />
        <path
           id="path17314"
           d="m 826.433,500.757 0,-0.059 -0.004,-0.061 -0.007,-0.057 -0.013,-0.057 -0.011,-0.061 -0.018,-0.055 -0.019,-0.057 -0.02,-0.053 -0.024,-0.054 -0.028,-0.051 -0.031,-0.05 -0.031,-0.053 -0.037,-0.043 -0.037,-0.048 -0.04,-0.046 -0.039,-0.042 -0.046,-0.037 -0.044,-0.04 -0.048,-0.032 -0.05,-0.031 -0.053,-0.033 -0.05,-0.024 -0.055,-0.026 -0.054,-0.022 -0.055,-0.02 -0.055,-0.017 -0.059,-0.009 -0.057,-0.011 -0.059,-0.011 -0.057,0 -0.059,-0.004 0,0 -0.057,0.004 -0.063,0 -0.057,0.011 -0.059,0.011 -0.057,0.009 -0.055,0.017 -0.055,0.02 -0.054,0.022 -0.055,0.026 -0.053,0.024 -0.05,0.033 -0.052,0.031 -0.044,0.032 -0.044,0.04 -0.048,0.037 -0.042,0.042 -0.037,0.046 -0.037,0.048 -0.035,0.043 -0.031,0.053 -0.03,0.05 -0.031,0.051 -0.024,0.054 -0.02,0.053 -0.022,0.057 -0.013,0.055 -0.013,0.061 -0.011,0.057 -0.006,0.057 -0.007,0.061 0,0.059 0,0 0,0.057 0.007,0.059 0.006,0.059 0.011,0.059 0.013,0.055 0.013,0.057 0.022,0.057 0.02,0.052 0.024,0.055 0.031,0.052 0.03,0.053 0.031,0.046 0.035,0.05 0.037,0.044 0.037,0.044 0.042,0.041 0.048,0.04 0.044,0.039 0.044,0.035 0.052,0.033 0.05,0.028 0.053,0.027 0.055,0.026 0.054,0.024 0.055,0.018 0.055,0.015 0.057,0.013 0.059,0.011 0.057,0.007 0.063,0.004 0.057,0.002 0,0 0.059,-0.002 0.057,-0.004 0.059,-0.007 0.057,-0.011 0.059,-0.013 0.055,-0.015 0.055,-0.018 0.054,-0.024 0.055,-0.026 0.05,-0.027 0.053,-0.028 0.05,-0.033 0.048,-0.035 0.044,-0.039 0.046,-0.04 0.039,-0.041 0.04,-0.044 0.037,-0.044 0.037,-0.05 0.031,-0.046 0.031,-0.053 0.028,-0.052 0.024,-0.055 0.02,-0.052 0.019,-0.057 0.018,-0.057 0.011,-0.055 0.013,-0.059 0.007,-0.059 0.004,-0.059 0,-0.057 z"
           style="fill:#000000"
           inkscape:connector-curvature="0" />
        <path
           id="path17316"
           d="m 826.337,500.661 0,-0.062 -0.007,-0.056 -0.006,-0.06 -0.007,-0.056 -0.015,-0.062 -0.02,-0.054 -0.02,-0.055 -0.022,-0.055 -0.019,-0.055 -0.029,-0.05 -0.03,-0.05 -0.033,-0.053 -0.031,-0.046 -0.035,-0.048 -0.044,-0.044 -0.041,-0.039 -0.044,-0.042 -0.048,-0.037 -0.046,-0.033 -0.05,-0.035 -0.049,-0.03 -0.05,-0.029 -0.055,-0.024 -0.054,-0.02 -0.055,-0.017 -0.059,-0.022 -0.055,-0.011 -0.057,-0.011 -0.063,-0.004 -0.057,-0.007 -0.059,0 0,0 -0.061,0 -0.055,0.007 -0.057,0.004 -0.059,0.011 -0.055,0.011 -0.061,0.022 -0.055,0.017 -0.055,0.02 -0.054,0.024 -0.048,0.029 -0.055,0.03 -0.044,0.035 -0.048,0.033 -0.044,0.037 -0.046,0.042 -0.044,0.039 -0.037,0.044 -0.041,0.048 -0.031,0.046 -0.035,0.053 -0.026,0.05 -0.031,0.05 -0.024,0.055 -0.022,0.055 -0.015,0.055 -0.018,0.054 -0.017,0.062 -0.007,0.056 -0.006,0.06 -0.011,0.056 0,0.062 0,0 0,0.059 0.011,0.057 0.006,0.059 0.007,0.059 0.017,0.059 0.018,0.055 0.015,0.054 0.022,0.055 0.024,0.055 0.031,0.052 0.026,0.053 0.035,0.052 0.031,0.044 0.041,0.044 0.037,0.048 0.044,0.039 0.046,0.038 0.044,0.039 0.048,0.037 0.044,0.031 0.055,0.033 0.048,0.028 0.054,0.02 0.055,0.024 0.055,0.017 0.061,0.02 0.055,0.011 0.059,0.011 0.057,0.007 0.055,0.006 0.061,0 0,0 0.059,0 0.057,-0.006 0.063,-0.007 0.057,-0.011 0.055,-0.011 0.059,-0.02 0.055,-0.017 0.054,-0.024 0.055,-0.02 0.05,-0.028 0.049,-0.033 0.05,-0.031 0.046,-0.037 0.048,-0.039 0.044,-0.038 0.041,-0.039 0.044,-0.048 0.035,-0.044 0.031,-0.044 0.033,-0.052 0.03,-0.053 0.029,-0.052 0.019,-0.055 0.022,-0.055 0.02,-0.054 0.02,-0.055 0.015,-0.059 0.007,-0.059 0.006,-0.059 0.007,-0.057 0,-0.059"
           style="fill:none;fill-opacity:0;stroke:#000000;stroke-width:0.02"
           inkscape:connector-curvature="0" />
        <path
           id="path17318"
           d="m 824.89,500.468 0.676,0 0,3.495 -0.676,0 0,-3.495 z"
           style="fill:#000000"
           inkscape:connector-curvature="0" />
        <path
           id="path17320"
           d="m 824.89,500.468 0.674,0 0,3.493 -0.674,0 0,-3.493"
           style="fill:none;fill-opacity:0;stroke:#000000;stroke-width:0.02"
           inkscape:connector-curvature="0" />
        <path
           id="path17322"
           d="m 822.373,496.478 1.156,-1.065 1.166,0 -1.166,1.065 -1.156,0 z"
           style="fill:#93936c"
           inkscape:connector-curvature="0" />
        <path
           id="path17324"
           d="m 828.374,496.478 1.158,-1.065 1.162,0 -1.162,1.065 -1.158,0 z"
           style="fill:#93936c"
           inkscape:connector-curvature="0" />
        <path
           id="path17326"
           d="m 829.532,496.478 0,-0.015 0,-0.022 -0.007,-0.019 -0.006,-0.018 -0.007,-0.022 -0.006,-0.017 -0.009,-0.02 -0.013,-0.018 -0.013,-0.017 -0.016,-0.015 -0.019,-0.022 -0.013,-0.016 -0.022,-0.013 -0.02,-0.017 -0.02,-0.013 -0.022,-0.014 -0.022,-0.013 -0.026,-0.011 -0.026,-0.015 -0.029,-0.013 -0.026,-0.009 -0.028,-0.009 -0.029,-0.008 -0.033,-0.005 -0.026,-0.008 -0.03,-0.003 -0.031,-0.004 -0.031,-0.007 -0.033,-0.002 -0.032,0 -0.033,0 0,0 -0.031,0 -0.033,0 -0.032,0.002 -0.029,0.007 -0.033,0.004 -0.028,0.003 -0.033,0.008 -0.031,0.005 -0.026,0.008 -0.031,0.009 -0.028,0.009 -0.024,0.013 -0.026,0.015 -0.024,0.011 -0.024,0.013 -0.02,0.014 -0.024,0.013 -0.018,0.017 -0.019,0.013 -0.018,0.016 -0.017,0.022 -0.018,0.015 -0.013,0.017 -0.011,0.018 -0.011,0.02 -0.009,0.017 -0.004,0.022 -0.007,0.018 -0.006,0.019 0,0.022 0,0.015 0,0 0,0.022 0,0.018 0.006,0.022 0.007,0.019 0.004,0.016 0.009,0.022 0.011,0.017 0.011,0.022 0.013,0.015 0.018,0.018 0.017,0.017 0.018,0.018 0.019,0.015 0.018,0.015 0.024,0.016 0.02,0.013 0.024,0.013 0.024,0.011 0.026,0.013 0.024,0.009 0.028,0.011 0.031,0.011 0.026,0.006 0.031,0.009 0.033,0.004 0.028,0.007 0.033,0.002 0.029,0.002 0.032,0.007 0.033,0.002 0.031,0 0,0 0.033,0 0.032,-0.002 0.033,-0.007 0.031,-0.002 0.031,-0.002 0.03,-0.007 0.026,-0.004 0.033,-0.009 0.029,-0.006 0.028,-0.011 0.026,-0.011 0.029,-0.009 0.026,-0.013 0.026,-0.011 0.022,-0.013 0.022,-0.013 0.02,-0.016 0.02,-0.015 0.022,-0.015 0.013,-0.018 0.019,-0.017 0.016,-0.018 0.013,-0.015 0.013,-0.022 0.009,-0.017 0.006,-0.022 0.007,-0.016 0.006,-0.019 0.007,-0.022 0,-0.018 0,-0.022 z"
           style="fill:#b7b79d"
           inkscape:connector-curvature="0" />
        <path
           id="path17328"
           d="m 829.436,496.387 0,-0.02 0,-0.022 -0.007,-0.018 -0.002,-0.017 -0.011,-0.024 -0.002,-0.018 -0.013,-0.019 -0.009,-0.018 -0.011,-0.017 -0.015,-0.014 -0.018,-0.021 -0.015,-0.018 -0.016,-0.013 -0.019,-0.013 -0.02,-0.018 -0.02,-0.013 -0.022,-0.011 -0.026,-0.015 -0.022,-0.011 -0.026,-0.013 -0.026,-0.011 -0.024,-0.004 -0.024,-0.011 -0.029,-0.005 -0.026,-0.011 -0.028,-0.004 -0.033,-0.007 -0.029,-0.002 -0.028,0 -0.029,-0.002 -0.033,0 0,0 -0.026,0 -0.028,0.002 -0.033,0 -0.028,0.002 -0.031,0.007 -0.031,0.004 -0.024,0.011 -0.03,0.005 -0.025,0.011 -0.024,0.004 -0.028,0.011 -0.02,0.013 -0.024,0.011 -0.024,0.015 -0.024,0.011 -0.02,0.013 -0.022,0.018 -0.015,0.013 -0.017,0.013 -0.014,0.018 -0.017,0.021 -0.013,0.014 -0.011,0.017 -0.011,0.018 -0.013,0.019 -0.007,0.018 -0.006,0.024 -0.005,0.017 -0.006,0.018 0,0.022 0,0.02 0,0 0,0.017 0,0.02 0.006,0.022 0.005,0.017 0.006,0.024 0.007,0.016 0.013,0.017 0.011,0.022 0.011,0.017 0.013,0.014 0.017,0.017 0.014,0.022 0.017,0.013 0.015,0.015 0.022,0.016 0.02,0.013 0.024,0.011 0.024,0.015 0.024,0.013 0.02,0.011 0.028,0.009 0.024,0.006 0.025,0.007 0.03,0.009 0.024,0.004 0.031,0.011 0.031,0 0.028,0.009 0.033,0 0.028,0.002 0.026,0 0,0 0.033,0 0.029,-0.002 0.028,0 0.029,-0.009 0.033,0 0.028,-0.011 0.026,-0.004 0.029,-0.009 0.024,-0.007 0.024,-0.006 0.026,-0.009 0.026,-0.011 0.022,-0.013 0.026,-0.015 0.022,-0.011 0.02,-0.013 0.02,-0.016 0.019,-0.015 0.016,-0.013 0.015,-0.022 0.018,-0.017 0.015,-0.014 0.011,-0.017 0.009,-0.022 0.013,-0.017 0.002,-0.016 0.011,-0.024 0.002,-0.017 0.007,-0.022 0,-0.02 0,-0.017"
           style="fill:none;fill-opacity:0;stroke:#494936;stroke-width:0.02"
           inkscape:connector-curvature="0" />
        <path
           id="path17330"
           d="m 829.525,493.469 -0.002,-0.208 -0.017,-0.203 -0.022,-0.206 -0.035,-0.206 -0.042,-0.199 -0.046,-0.199 -0.063,-0.195 -0.066,-0.195 -0.076,-0.183 -0.088,-0.182 -0.09,-0.186 -0.103,-0.169 -0.109,-0.164 -0.114,-0.164 -0.127,-0.149 -0.127,-0.148 -0.135,-0.138 -0.14,-0.134 -0.156,-0.12 -0.149,-0.114 -0.157,-0.105 -0.169,-0.096 -0.16,-0.086 -0.175,-0.074 -0.17,-0.068 -0.182,-0.061 -0.177,-0.044 -0.182,-0.037 -0.184,-0.022 -0.179,-0.022 -0.184,0 -0.184,0 -0.181,0.022 -0.187,0.022 -0.179,0.037 -0.175,0.044 -0.182,0.061 -0.17,0.068 -0.171,0.074 -0.169,0.086 -0.164,0.096 -0.157,0.105 -0.149,0.114 -0.151,0.12 -0.145,0.134 -0.135,0.138 -0.127,0.148 -0.127,0.149 -0.116,0.164 -0.105,0.164 -0.103,0.169 -0.09,0.186 -0.085,0.182 -0.079,0.183 -0.068,0.195 -0.061,0.195 -0.048,0.199 -0.046,0.199 -0.033,0.206 -0.022,0.206 -0.015,0.203 -0.005,0.208"
           style="fill:none;fill-opacity:0;stroke:#494936;stroke-width:0.02"
           inkscape:connector-curvature="0" />
        <path
           id="path17332"
           d="m 828.374,493.662 1.062,0 0,2.816 -1.062,0 0,-2.816 z"
           style="fill:#b7b79d"
           inkscape:connector-curvature="0" />
        <path
           id="path17334"
           d="m 829.436,496.382 0,-2.913"
           style="fill:none;fill-opacity:0;stroke:#494936;stroke-width:0.02"
           inkscape:connector-curvature="0" />
        <path
           id="path17336"
           d="m 828.276,496.382 0,-2.913"
           style="fill:none;fill-opacity:0;stroke:#000000;stroke-width:0.02"
           inkscape:connector-curvature="0" />
        <path
           id="path17338"
           d="m 823.527,496.478 0,-0.015 0,-0.022 -0.009,-0.019 -0.002,-0.018 -0.007,-0.022 -0.011,-0.017 -0.011,-0.02 -0.009,-0.018 -0.015,-0.017 -0.015,-0.015 -0.018,-0.022 -0.017,-0.016 -0.018,-0.013 -0.019,-0.017 -0.022,-0.013 -0.02,-0.014 -0.026,-0.013 -0.024,-0.011 -0.029,-0.015 -0.024,-0.013 -0.026,-0.009 -0.031,-0.009 -0.028,-0.008 -0.031,-0.005 -0.03,-0.008 -0.031,-0.003 -0.029,-0.004 -0.03,-0.007 -0.033,-0.002 -0.031,0 -0.03,0 0,0 -0.035,0 -0.031,0 -0.035,0.002 -0.026,0.007 -0.031,0.004 -0.03,0.003 -0.031,0.008 -0.031,0.005 -0.028,0.008 -0.031,0.009 -0.028,0.009 -0.022,0.013 -0.029,0.015 -0.026,0.011 -0.022,0.013 -0.024,0.014 -0.02,0.013 -0.017,0.017 -0.02,0.013 -0.017,0.016 -0.018,0.022 -0.017,0.015 -0.013,0.017 -0.011,0.018 -0.009,0.02 -0.011,0.017 -0.007,0.022 -0.004,0.018 -0.007,0.019 -0.002,0.022 0,0.015 0,0 0,0.022 0.002,0.018 0.007,0.022 0.004,0.019 0.007,0.016 0.011,0.022 0.009,0.017 0.011,0.022 0.013,0.015 0.017,0.018 0.018,0.017 0.017,0.018 0.02,0.015 0.017,0.015 0.02,0.016 0.024,0.013 0.022,0.013 0.026,0.011 0.029,0.013 0.022,0.009 0.028,0.011 0.031,0.011 0.028,0.006 0.031,0.009 0.031,0.004 0.03,0.007 0.031,0.002 0.026,0.002 0.035,0.007 0.031,0.002 0.035,0 0,0 0.03,0 0.031,-0.002 0.033,-0.007 0.03,-0.002 0.029,-0.002 0.031,-0.007 0.03,-0.004 0.031,-0.009 0.028,-0.006 0.031,-0.011 0.026,-0.011 0.024,-0.009 0.029,-0.013 0.024,-0.011 0.026,-0.013 0.02,-0.013 0.022,-0.016 0.019,-0.015 0.018,-0.015 0.017,-0.018 0.018,-0.017 0.015,-0.018 0.015,-0.015 0.009,-0.022 0.011,-0.017 0.011,-0.022 0.007,-0.016 0.002,-0.019 0.009,-0.022 0,-0.018 0,-0.022 z"
           style="fill:#b7b79d"
           inkscape:connector-curvature="0" />
        <path
           id="path17340"
           d="m 823.437,496.387 0,-0.02 -0.007,-0.022 0,-0.018 -0.006,-0.017 -0.007,-0.024 -0.009,-0.018 -0.008,-0.019 -0.011,-0.018 -0.011,-0.017 -0.013,-0.014 -0.013,-0.021 -0.018,-0.018 -0.017,-0.013 -0.02,-0.013 -0.022,-0.018 -0.02,-0.013 -0.019,-0.011 -0.025,-0.015 -0.024,-0.011 -0.024,-0.013 -0.028,-0.011 -0.024,-0.004 -0.026,-0.011 -0.031,-0.005 -0.024,-0.011 -0.031,-0.004 -0.03,-0.007 -0.025,-0.002 -0.03,0 -0.031,-0.002 -0.03,0 0,0 -0.031,0 -0.024,0.002 -0.031,0 -0.03,0.002 -0.024,0.007 -0.031,0.004 -0.024,0.011 -0.031,0.005 -0.028,0.011 -0.027,0.004 -0.024,0.011 -0.024,0.013 -0.024,0.011 -0.028,0.015 -0.02,0.011 -0.017,0.013 -0.02,0.018 -0.022,0.013 -0.02,0.013 -0.013,0.018 -0.015,0.021 -0.015,0.014 -0.011,0.017 -0.011,0.018 -0.009,0.019 -0.009,0.018 -0.009,0.024 0,0.017 -0.006,0.018 -0.005,0.022 0,0.02 0,0 0,0.017 0.005,0.02 0.006,0.022 0,0.017 0.009,0.024 0.009,0.016 0.009,0.017 0.011,0.022 0.011,0.017 0.015,0.014 0.015,0.017 0.013,0.022 0.02,0.013 0.022,0.015 0.02,0.016 0.017,0.013 0.02,0.011 0.028,0.015 0.024,0.013 0.024,0.011 0.024,0.009 0.027,0.006 0.028,0.007 0.031,0.009 0.024,0.004 0.031,0.011 0.024,0 0.03,0.009 0.031,0 0.024,0.002 0.031,0 0,0 0.03,0 0.031,-0.002 0.03,0 0.025,-0.009 0.03,0 0.031,-0.011 0.024,-0.004 0.031,-0.009 0.026,-0.007 0.024,-0.006 0.028,-0.009 0.024,-0.011 0.024,-0.013 0.025,-0.015 0.019,-0.011 0.02,-0.013 0.022,-0.016 0.02,-0.015 0.017,-0.013 0.018,-0.022 0.013,-0.017 0.013,-0.014 0.011,-0.017 0.011,-0.022 0.008,-0.017 0.009,-0.016 0.007,-0.024 0.006,-0.017 0,-0.022 0.007,-0.02 0,-0.017"
           style="fill:none;fill-opacity:0;stroke:#494936;stroke-width:0.02"
           inkscape:connector-curvature="0" />
        <path
           id="path17342"
           d="m 822.373,493.662 1.064,0 0,2.816 -1.064,0 0,-2.816 z"
           style="fill:#7a7a5a"
           inkscape:connector-curvature="0" />
        <path
           id="path17344"
           d="m 828.368,493.66 0,-0.154 -0.011,-0.153 -0.013,-0.157 -0.02,-0.149 -0.031,-0.151 -0.035,-0.151 -0.037,-0.145 -0.044,-0.144 -0.054,-0.142 -0.055,-0.136 -0.061,-0.136 -0.066,-0.131 -0.072,-0.127 -0.075,-0.123 -0.083,-0.111 -0.085,-0.11 -0.092,-0.109 -0.096,-0.098 -0.092,-0.095 -0.103,-0.089 -0.11,-0.083 -0.105,-0.07 -0.114,-0.068 -0.109,-0.055 -0.116,-0.055 -0.116,-0.046 -0.12,-0.039 -0.123,-0.033 -0.12,-0.02 -0.123,-0.017 -0.122,-0.009 -0.125,0 -0.123,0.009 -0.118,0.017 -0.125,0.02 -0.118,0.033 -0.125,0.039 -0.118,0.046 -0.109,0.055 -0.114,0.055 -0.116,0.068 -0.103,0.07 -0.109,0.083 -0.099,0.089 -0.096,0.095 -0.098,0.098 -0.09,0.109 -0.086,0.11 -0.078,0.111 -0.075,0.123 -0.076,0.127 -0.064,0.131 -0.063,0.136 -0.055,0.136 -0.05,0.142 -0.044,0.144 -0.042,0.145 -0.03,0.151 -0.031,0.151 -0.024,0.149 -0.013,0.157 -0.009,0.153 -0.002,0.154"
           style="fill:none;fill-opacity:0;stroke:#494936;stroke-width:0.02"
           inkscape:connector-curvature="0" />
        <path
           id="path17346"
           d="m 822.373,493.662 1.064,0 0,2.816 -1.064,0 0,-2.816 z"
           style="fill:#b7b79d"
           inkscape:connector-curvature="0" />
        <path
           id="path17348"
           d="m 822.27,496.382 0,-2.913"
           style="fill:none;fill-opacity:0;stroke:#494936;stroke-width:0.02"
           inkscape:connector-curvature="0" />
        <path
           id="path17350"
           d="m 823.437,496.382 0,-2.913"
           style="fill:none;fill-opacity:0;stroke:#000000;stroke-width:0.02"
           inkscape:connector-curvature="0" />
        <path
           id="path17352"
           d="m 825.79,489.681 -0.171,-0.002 -0.171,0.011 -0.171,0.019 -0.175,0.027 -0.164,0.048 -0.164,0.054 -0.164,0.062 -0.158,0.079 -0.159,0.083 -0.156,0.096 -0.146,0.107 -0.14,0.114 -0.138,0.129 -0.136,0.134 -0.127,0.144 -0.116,0.151 -0.116,0.16 -0.107,0.166 -0.101,0.177 -0.09,0.178 -0.085,0.186"
           style="fill:none;fill-opacity:0;stroke:#dbdbce;stroke-width:0.63999999"
           inkscape:connector-curvature="0" />
      </g>
      <g
         id="g17354">
        <path
           id="path17356"
           d="m 686.497,528.029 0,-0.822 0.166,-0.664 0.164,-0.416 0.327,-0.494 0.328,-0.333 0.579,-0.5 0.33,-0.164 0.414,-0.164 0.412,-0.08 0.33,0 0.492,0.08 0.33,0.082 0.66,0.246 0.495,0.5 0.33,0.333 0.332,0.576 0.162,0.5 0.164,0.658 0,0.251 0,0.494 -0.988,-0.083 0,-0.411 0,-0.251 -0.083,-0.412 -0.164,-0.246 -0.163,-0.334 -0.169,-0.248 -0.244,-0.248 -0.332,-0.167 -0.33,-0.164 -0.248,-0.082 -0.328,0 -0.412,0 -0.328,0.167 -0.498,0.33 -0.33,0.412 -0.244,0.498 -0.082,0.412 -0.166,0.497 0.079,0.498 -0.985,-0.251 z"
           style="fill:#b7b79d"
           inkscape:connector-curvature="0" />
        <path
           id="path17358"
           d="m 684.27,531.257 1.896,-1.819 8.822,0 -1.898,1.819 -8.82,0 z"
           style="fill:#c9c9b6"
           inkscape:connector-curvature="0" />
        <path
           id="path17360"
           d="m 684.27,531.257 1.896,-1.819 8.822,0 -1.898,1.819 -8.82,0"
           style="fill:none;fill-opacity:0;stroke:#494936;stroke-width:0.02"
           inkscape:connector-curvature="0" />
        <path
           id="path17362"
           d="m 693.09,537.881 1.98,-1.908 0,-6.619 -1.98,1.985 0,6.542 z"
           style="fill:#7a7a5a"
           inkscape:connector-curvature="0" />
        <path
           id="path17364"
           d="m 693.09,537.881 1.98,-1.908 0,-6.619 -1.98,1.985 0,6.542"
           style="fill:none;fill-opacity:0;stroke:#494936;stroke-width:0.02"
           inkscape:connector-curvature="0" />
        <path
           id="path17366"
           d="m 684.27,531.257 0,6.704 8.82,0 0,-6.704 -8.82,0 z"
           style="fill:#b7b79d"
           inkscape:connector-curvature="0" />
        <path
           id="path17368"
           d="m 684.27,531.257 0,6.704 8.82,0 0,-6.704 -8.82,0"
           style="fill:none;fill-opacity:0;stroke:#494936;stroke-width:0.02"
           inkscape:connector-curvature="0" />
        <path
           id="path17370"
           d="m 689.955,534.071 0,-0.05 -0.004,-0.052 -0.005,-0.049 -0.011,-0.048 -0.01,-0.052 -0.015,-0.047 -0.017,-0.048 -0.016,-0.045 -0.021,-0.047 -0.024,-0.042 -0.026,-0.043 -0.026,-0.045 -0.032,-0.037 -0.032,-0.041 -0.033,-0.04 -0.034,-0.035 -0.039,-0.032 -0.037,-0.033 -0.041,-0.028 -0.043,-0.026 -0.045,-0.028 -0.043,-0.021 -0.046,-0.022 -0.047,-0.019 -0.046,-0.016 -0.047,-0.015 -0.05,-0.008 -0.049,-0.009 -0.05,-0.009 -0.049,0 -0.05,-0.004 0,0 -0.048,0.004 -0.054,0 -0.049,0.009 -0.05,0.009 -0.049,0.008 -0.046,0.015 -0.047,0.016 -0.046,0.019 -0.047,0.022 -0.045,0.021 -0.043,0.028 -0.044,0.026 -0.038,0.028 -0.037,0.033 -0.041,0.032 -0.035,0.035 -0.032,0.04 -0.032,0.041 -0.03,0.037 -0.026,0.045 -0.026,0.043 -0.026,0.042 -0.02,0.047 -0.017,0.045 -0.019,0.048 -0.011,0.047 -0.011,0.052 -0.009,0.048 -0.006,0.049 -0.006,0.052 0,0.05 0,0 0,0.049 0.006,0.05 0.006,0.051 0.009,0.05 0.011,0.046 0.011,0.049 0.019,0.048 0.017,0.045 0.02,0.047 0.026,0.044 0.026,0.045 0.026,0.039 0.03,0.043 0.032,0.037 0.032,0.038 0.035,0.035 0.041,0.034 0.037,0.033 0.038,0.03 0.044,0.028 0.043,0.024 0.045,0.023 0.047,0.022 0.046,0.021 0.047,0.014 0.046,0.013 0.049,0.012 0.05,0.009 0.049,0.006 0.054,0.003 0.048,0.002 0,0 0.05,-0.002 0.049,-0.003 0.05,-0.006 0.049,-0.009 0.05,-0.012 0.047,-0.013 0.046,-0.014 0.047,-0.021 0.046,-0.022 0.043,-0.023 0.045,-0.024 0.043,-0.028 0.041,-0.03 0.037,-0.033 0.039,-0.034 0.034,-0.035 0.033,-0.038 0.032,-0.037 0.032,-0.043 0.026,-0.039 0.026,-0.045 0.024,-0.044 0.021,-0.047 0.016,-0.045 0.017,-0.048 0.015,-0.049 0.01,-0.046 0.011,-0.05 0.005,-0.051 0.004,-0.05 0,-0.049 z"
           style="fill:#000000"
           inkscape:connector-curvature="0" />
        <path
           id="path17372"
           d="m 689.873,533.989 0,-0.052 -0.006,-0.048 -0.005,-0.051 -0.006,-0.048 -0.013,-0.052 -0.017,-0.047 -0.016,-0.046 -0.019,-0.047 -0.017,-0.047 -0.024,-0.042 -0.026,-0.043 -0.028,-0.045 -0.026,-0.039 -0.03,-0.041 -0.037,-0.038 -0.036,-0.033 -0.037,-0.035 -0.041,-0.032 -0.039,-0.028 -0.043,-0.03 -0.041,-0.026 -0.043,-0.024 -0.046,-0.021 -0.047,-0.017 -0.047,-0.014 -0.05,-0.019 -0.047,-0.009 -0.048,-0.01 -0.054,-0.003 -0.049,-0.006 -0.05,0 0,0 -0.052,0 -0.047,0.006 -0.048,0.003 -0.05,0.01 -0.047,0.009 -0.052,0.019 -0.047,0.014 -0.046,0.017 -0.047,0.021 -0.041,0.024 -0.047,0.026 -0.037,0.03 -0.041,0.028 -0.037,0.032 -0.039,0.035 -0.038,0.033 -0.031,0.038 -0.036,0.041 -0.026,0.039 -0.03,0.045 -0.022,0.043 -0.026,0.042 -0.021,0.047 -0.018,0.047 -0.013,0.046 -0.015,0.047 -0.015,0.052 -0.006,0.048 -0.005,0.051 -0.01,0.048 0,0.052 0,0 0,0.051 0.01,0.048 0.005,0.051 0.006,0.05 0.015,0.05 0.015,0.047 0.013,0.046 0.018,0.047 0.021,0.047 0.026,0.044 0.022,0.045 0.03,0.045 0.026,0.037 0.036,0.037 0.031,0.041 0.038,0.034 0.039,0.032 0.037,0.033 0.041,0.032 0.037,0.026 0.047,0.028 0.041,0.024 0.047,0.017 0.046,0.02 0.047,0.015 0.052,0.017 0.047,0.009 0.05,0.01 0.048,0.005 0.047,0.006 0.052,0 0,0 0.05,0 0.049,-0.006 0.054,-0.005 0.048,-0.01 0.047,-0.009 0.05,-0.017 0.047,-0.015 0.047,-0.02 0.046,-0.017 0.043,-0.024 0.041,-0.028 0.043,-0.026 0.039,-0.032 0.041,-0.033 0.037,-0.032 0.036,-0.034 0.037,-0.041 0.03,-0.037 0.026,-0.037 0.028,-0.045 0.026,-0.045 0.024,-0.044 0.017,-0.047 0.019,-0.047 0.016,-0.046 0.017,-0.047 0.013,-0.05 0.006,-0.05 0.005,-0.051 0.006,-0.048 0,-0.051"
           style="fill:none;fill-opacity:0;stroke:#000000;stroke-width:0.02"
           inkscape:connector-curvature="0" />
        <path
           id="path17374"
           d="m 688.641,533.825 0.576,0 0,2.977 -0.576,0 0,-2.977 z"
           style="fill:#000000"
           inkscape:connector-curvature="0" />
        <path
           id="path17376"
           d="m 688.641,533.825 0.574,0 0,2.975 -0.574,0 0,-2.975"
           style="fill:none;fill-opacity:0;stroke:#000000;stroke-width:0.02"
           inkscape:connector-curvature="0" />
        <path
           id="path17378"
           d="m 686.497,530.427 0.985,-0.907 0.993,0 -0.993,0.907 -0.985,0 z"
           style="fill:#93936c"
           inkscape:connector-curvature="0" />
        <path
           id="path17380"
           d="m 691.608,530.427 0.986,-0.907 0.99,0 -0.99,0.907 -0.986,0 z"
           style="fill:#93936c"
           inkscape:connector-curvature="0" />
        <path
           id="path17382"
           d="m 692.594,530.427 0,-0.013 0,-0.018 -0.005,-0.017 -0.006,-0.015 -0.005,-0.019 -0.006,-0.014 -0.007,-0.017 -0.012,-0.015 -0.011,-0.015 -0.013,-0.013 -0.017,-0.019 -0.011,-0.013 -0.018,-0.011 -0.017,-0.015 -0.017,-0.011 -0.019,-0.011 -0.018,-0.011 -0.023,-0.01 -0.022,-0.013 -0.024,-0.011 -0.023,-0.007 -0.024,-0.008 -0.024,-0.007 -0.028,-0.004 -0.022,-0.008 -0.027,-10e-4 -0.026,-0.004 -0.026,-0.006 -0.028,-0.002 -0.028,0 -0.028,0 0,0 -0.026,0 -0.028,0 -0.028,0.002 -0.024,0.006 -0.028,0.004 -0.024,10e-4 -0.028,0.008 -0.026,0.004 -0.022,0.007 -0.027,0.008 -0.024,0.007 -0.02,0.011 -0.023,0.013 -0.02,0.01 -0.021,0.011 -0.016,0.011 -0.021,0.011 -0.015,0.015 -0.017,0.011 -0.015,0.013 -0.014,0.019 -0.015,0.013 -0.012,0.015 -0.009,0.015 -0.009,0.017 -0.008,0.014 -0.003,0.019 -0.006,0.015 -0.006,0.017 0,0.018 0,0.013 0,0 0,0.019 0,0.015 0.006,0.019 0.006,0.016 0.003,0.013 0.008,0.019 0.009,0.015 0.009,0.019 0.012,0.013 0.015,0.015 0.014,0.014 0.015,0.015 0.017,0.013 0.015,0.014 0.021,0.013 0.016,0.011 0.021,0.011 0.02,0.009 0.023,0.011 0.02,0.008 0.024,0.009 0.027,0.01 0.022,0.005 0.026,0.008 0.028,0.003 0.024,0.006 0.028,0.002 0.024,0.002 0.028,0.005 0.028,0.002 0.026,0 0,0 0.028,0 0.028,-0.002 0.028,-0.005 0.026,-0.002 0.026,-0.002 0.027,-0.006 0.022,-0.003 0.028,-0.008 0.024,-0.005 0.024,-0.01 0.023,-0.009 0.024,-0.008 0.022,-0.011 0.023,-0.009 0.018,-0.011 0.019,-0.011 0.017,-0.013 0.017,-0.014 0.018,-0.013 0.011,-0.015 0.017,-0.014 0.013,-0.015 0.011,-0.013 0.012,-0.019 0.007,-0.015 0.006,-0.019 0.005,-0.013 0.006,-0.016 0.005,-0.019 0,-0.015 0,-0.019 z"
           style="fill:#b7b79d"
           inkscape:connector-curvature="0" />
        <path
           id="path17384"
           d="m 692.512,530.349 0,-0.017 0,-0.018 -0.005,-0.015 -0.002,-0.015 -0.009,-0.021 -0.002,-0.015 -0.011,-0.016 -0.008,-0.015 -0.009,-0.015 -0.013,-0.011 -0.015,-0.019 -0.013,-0.015 -0.013,-0.011 -0.017,-0.011 -0.017,-0.015 -0.017,-0.011 -0.018,-0.01 -0.023,-0.013 -0.018,-0.009 -0.023,-0.011 -0.022,-0.009 -0.021,-0.004 -0.02,-0.01 -0.024,-0.003 -0.023,-0.01 -0.024,-0.003 -0.028,-0.006 -0.024,-0.002 -0.024,0 -0.025,-0.002 -0.027,0 0,0 -0.023,0 -0.024,0.002 -0.028,0 -0.024,0.002 -0.026,0.006 -0.026,0.003 -0.021,0.01 -0.026,0.003 -0.021,0.01 -0.02,0.004 -0.024,0.009 -0.017,0.011 -0.021,0.009 -0.02,0.013 -0.021,0.01 -0.016,0.011 -0.019,0.015 -0.013,0.011 -0.015,0.011 -0.011,0.015 -0.015,0.019 -0.011,0.011 -0.01,0.015 -0.009,0.015 -0.011,0.016 -0.006,0.015 -0.005,0.021 -0.004,0.015 -0.006,0.015 0,0.018 0,0.017 0,0 0,0.015 0,0.017 0.006,0.018 0.004,0.015 0.005,0.021 0.006,0.013 0.011,0.015 0.009,0.018 0.01,0.015 0.011,0.012 0.015,0.014 0.011,0.019 0.015,0.011 0.013,0.013 0.019,0.013 0.016,0.012 0.021,0.009 0.02,0.013 0.021,0.011 0.017,0.009 0.024,0.008 0.02,0.006 0.021,0.005 0.026,0.008 0.021,0.003 0.026,0.01 0.026,0 0.024,0.007 0.028,0 0.024,0.002 0.023,0 0,0 0.027,0 0.025,-0.002 0.024,0 0.024,-0.007 0.028,0 0.024,-0.01 0.023,-0.003 0.024,-0.008 0.02,-0.005 0.021,-0.006 0.022,-0.008 0.023,-0.009 0.018,-0.011 0.023,-0.013 0.018,-0.009 0.017,-0.012 0.017,-0.013 0.017,-0.013 0.013,-0.011 0.013,-0.019 0.015,-0.014 0.013,-0.012 0.009,-0.015 0.008,-0.018 0.011,-0.015 0.002,-0.013 0.009,-0.021 0.002,-0.015 0.005,-0.018 0,-0.017 0,-0.015"
           style="fill:none;fill-opacity:0;stroke:#494936;stroke-width:0.02"
           inkscape:connector-curvature="0" />
        <path
           id="path17386"
           d="m 692.589,527.865 -0.002,-0.178 -0.015,-0.173 -0.019,-0.175 -0.029,-0.175 -0.036,-0.17 -0.039,-0.17 -0.054,-0.165 -0.056,-0.166 -0.065,-0.157 -0.075,-0.155 -0.076,-0.158 -0.088,-0.144 -0.093,-0.139 -0.097,-0.14 -0.108,-0.127 -0.108,-0.127 -0.116,-0.117 -0.119,-0.114 -0.132,-0.102 -0.127,-0.097 -0.134,-0.09 -0.144,-0.082 -0.136,-0.072 -0.149,-0.064 -0.145,-0.058 -0.155,-0.052 -0.151,-0.037 -0.155,-0.032 -0.156,-0.018 -0.153,-0.019 -0.157,0 -0.156,0 -0.155,0.019 -0.159,0.018 -0.152,0.032 -0.149,0.037 -0.155,0.052 -0.146,0.058 -0.145,0.064 -0.143,0.072 -0.14,0.082 -0.134,0.09 -0.127,0.097 -0.129,0.102 -0.123,0.114 -0.115,0.117 -0.109,0.127 -0.108,0.127 -0.098,0.14 -0.09,0.139 -0.087,0.144 -0.077,0.158 -0.073,0.155 -0.067,0.157 -0.057,0.166 -0.053,0.165 -0.041,0.17 -0.039,0.17 -0.028,0.175 -0.018,0.175 -0.013,0.173 -0.004,0.178"
           style="fill:none;fill-opacity:0;stroke:#494936;stroke-width:0.02"
           inkscape:connector-curvature="0" />
        <path
           id="path17388"
           d="m 691.608,528.029 0.904,0 0,2.398 -0.904,0 0,-2.398 z"
           style="fill:#b7b79d"
           inkscape:connector-curvature="0" />
        <path
           id="path17390"
           d="m 692.512,530.345 0,-2.48"
           style="fill:none;fill-opacity:0;stroke:#494936;stroke-width:0.02"
           inkscape:connector-curvature="0" />
        <path
           id="path17392"
           d="m 691.524,530.345 0,-2.48"
           style="fill:none;fill-opacity:0;stroke:#000000;stroke-width:0.02"
           inkscape:connector-curvature="0" />
        <path
           id="path17394"
           d="m 687.48,530.427 0,-0.013 0,-0.018 -0.008,-0.017 -0.002,-0.015 -0.005,-0.019 -0.01,-0.014 -0.009,-0.017 -0.007,-0.015 -0.013,-0.015 -0.013,-0.013 -0.015,-0.019 -0.015,-0.013 -0.015,-0.011 -0.017,-0.015 -0.019,-0.011 -0.016,-0.011 -0.023,-0.011 -0.02,-0.01 -0.024,-0.013 -0.021,-0.011 -0.022,-0.007 -0.026,-0.008 -0.025,-0.007 -0.026,-0.004 -0.026,-0.008 -0.026,-10e-4 -0.024,-0.004 -0.026,-0.006 -0.028,-0.002 -0.026,0 -0.026,0 0,0 -0.03,0 -0.026,0 -0.03,0.002 -0.022,0.006 -0.027,0.004 -0.026,10e-4 -0.026,0.008 -0.026,0.004 -0.024,0.007 -0.026,0.008 -0.024,0.007 -0.019,0.011 -0.024,0.013 -0.023,0.01 -0.018,0.011 -0.021,0.011 -0.017,0.011 -0.015,0.015 -0.016,0.011 -0.015,0.013 -0.015,0.019 -0.015,0.013 -0.011,0.015 -0.01,0.015 -0.007,0.017 -0.009,0.014 -0.006,0.019 -0.004,0.015 -0.005,0.017 -0.002,0.018 0,0.013 0,0 0,0.019 0.002,0.015 0.005,0.019 0.004,0.016 0.006,0.013 0.009,0.019 0.007,0.015 0.01,0.019 0.011,0.013 0.015,0.015 0.015,0.014 0.015,0.015 0.016,0.013 0.015,0.014 0.017,0.013 0.021,0.011 0.018,0.011 0.023,0.009 0.024,0.011 0.019,0.008 0.024,0.009 0.026,0.01 0.024,0.005 0.026,0.008 0.026,0.003 0.026,0.006 0.027,0.002 0.022,0.002 0.03,0.005 0.026,0.002 0.03,0 0,0 0.026,0 0.026,-0.002 0.028,-0.005 0.026,-0.002 0.024,-0.002 0.026,-0.006 0.026,-0.003 0.026,-0.008 0.025,-0.005 0.026,-0.01 0.022,-0.009 0.021,-0.008 0.024,-0.011 0.02,-0.009 0.023,-0.011 0.016,-0.011 0.019,-0.013 0.017,-0.014 0.015,-0.013 0.015,-0.015 0.015,-0.014 0.013,-0.015 0.013,-0.013 0.007,-0.019 0.009,-0.015 0.01,-0.019 0.005,-0.013 0.002,-0.016 0.008,-0.019 0,-0.015 0,-0.019 z"
           style="fill:#b7b79d"
           inkscape:connector-curvature="0" />
        <path
           id="path17396"
           d="m 687.403,530.349 0,-0.017 -0.005,-0.018 0,-0.015 -0.006,-0.015 -0.005,-0.021 -0.008,-0.015 -0.007,-0.016 -0.01,-0.015 -0.009,-0.015 -0.011,-0.011 -0.011,-0.019 -0.015,-0.015 -0.015,-0.011 -0.017,-0.011 -0.019,-0.015 -0.016,-0.011 -0.017,-0.01 -0.021,-0.013 -0.02,-0.009 -0.021,-0.011 -0.024,-0.009 -0.02,-0.004 -0.023,-0.01 -0.026,-0.003 -0.02,-0.01 -0.027,-0.003 -0.026,-0.006 -0.02,-0.002 -0.026,0 -0.026,-0.002 -0.026,0 0,0 -0.026,0 -0.021,0.002 -0.026,0 -0.026,0.002 -0.021,0.006 -0.026,0.003 -0.02,0.01 -0.026,0.003 -0.025,0.01 -0.022,0.004 -0.02,0.009 -0.021,0.011 -0.02,0.009 -0.025,0.013 -0.016,0.01 -0.015,0.011 -0.017,0.015 -0.019,0.011 -0.017,0.011 -0.011,0.015 -0.013,0.019 -0.013,0.011 -0.009,0.015 -0.01,0.015 -0.007,0.016 -0.007,0.015 -0.008,0.021 0,0.015 -0.005,0.015 -0.004,0.018 0,0.017 0,0 0,0.015 0.004,0.017 0.005,0.018 0,0.015 0.008,0.021 0.007,0.013 0.007,0.015 0.01,0.018 0.009,0.015 0.013,0.012 0.013,0.014 0.011,0.019 0.017,0.011 0.019,0.013 0.017,0.013 0.015,0.012 0.016,0.009 0.025,0.013 0.02,0.011 0.021,0.009 0.02,0.008 0.022,0.006 0.025,0.005 0.026,0.008 0.02,0.003 0.026,0.01 0.021,0 0.026,0.007 0.026,0 0.021,0.002 0.026,0 0,0 0.026,0 0.026,-0.002 0.026,0 0.02,-0.007 0.026,0 0.027,-0.01 0.02,-0.003 0.026,-0.008 0.023,-0.005 0.02,-0.006 0.024,-0.008 0.021,-0.009 0.02,-0.011 0.021,-0.013 0.017,-0.009 0.016,-0.012 0.019,-0.013 0.017,-0.013 0.015,-0.011 0.015,-0.019 0.011,-0.014 0.011,-0.012 0.009,-0.015 0.01,-0.018 0.007,-0.015 0.008,-0.013 0.005,-0.021 0.006,-0.015 0,-0.018 0.005,-0.017 0,-0.015"
           style="fill:none;fill-opacity:0;stroke:#494936;stroke-width:0.02"
           inkscape:connector-curvature="0" />
        <path
           id="path17398"
           d="m 686.497,528.029 0.906,0 0,2.398 -0.906,0 0,-2.398 z"
           style="fill:#7a7a5a"
           inkscape:connector-curvature="0" />
        <path
           id="path17400"
           d="m 691.603,528.027 0,-0.131 -0.01,-0.13 -0.011,-0.134 -0.017,-0.127 -0.026,-0.129 -0.029,-0.128 -0.032,-0.123 -0.037,-0.123 -0.047,-0.122 -0.047,-0.115 -0.052,-0.116 -0.056,-0.112 -0.061,-0.108 -0.064,-0.104 -0.07,-0.095 -0.073,-0.093 -0.078,-0.094 -0.082,-0.083 -0.079,-0.081 -0.087,-0.076 -0.094,-0.071 -0.089,-0.059 -0.097,-0.058 -0.093,-0.047 -0.099,-0.046 -0.099,-0.04 -0.102,-0.033 -0.105,-0.028 -0.102,-0.017 -0.104,-0.015 -0.105,-0.007 -0.106,0 -0.105,0.007 -0.1,0.015 -0.106,0.017 -0.101,0.028 -0.106,0.033 -0.101,0.04 -0.093,0.046 -0.097,0.047 -0.099,0.058 -0.087,0.059 -0.094,0.071 -0.084,0.076 -0.082,0.081 -0.083,0.083 -0.077,0.094 -0.073,0.093 -0.067,0.095 -0.063,0.104 -0.065,0.108 -0.054,0.112 -0.054,0.116 -0.047,0.115 -0.043,0.122 -0.037,0.123 -0.036,0.123 -0.026,0.128 -0.026,0.129 -0.02,0.127 -0.011,0.134 -0.008,0.13 -0.002,0.131"
           style="fill:none;fill-opacity:0;stroke:#494936;stroke-width:0.02"
           inkscape:connector-curvature="0" />
        <path
           id="path17402"
           d="m 686.497,528.029 0.906,0 0,2.398 -0.906,0 0,-2.398 z"
           style="fill:#b7b79d"
           inkscape:connector-curvature="0" />
        <path
           id="path17404"
           d="m 686.41,530.345 0,-2.48"
           style="fill:none;fill-opacity:0;stroke:#494936;stroke-width:0.02"
           inkscape:connector-curvature="0" />
        <path
           id="path17406"
           d="m 687.403,530.345 0,-2.48"
           style="fill:none;fill-opacity:0;stroke:#000000;stroke-width:0.02"
           inkscape:connector-curvature="0" />
        <path
           id="path17408"
           d="m 689.407,524.638 -0.145,-0.002 -0.146,0.009 -0.145,0.017 -0.149,0.023 -0.14,0.041 -0.14,0.046 -0.14,0.052 -0.134,0.068 -0.136,0.07 -0.132,0.082 -0.125,0.092 -0.119,0.097 -0.118,0.11 -0.115,0.113 -0.109,0.123 -0.098,0.129 -0.099,0.136 -0.091,0.142 -0.086,0.151 -0.077,0.151 -0.072,0.158"
           style="fill:none;fill-opacity:0;stroke:#dbdbce;stroke-width:0.63999999"
           inkscape:connector-curvature="0" />
      </g>
      <line
         id="line17410"
         y2="614.25598"
         x2="779.26801"
         y1="614.258"
         x1="764.82599"
         style="fill:none;fill-opacity:0;stroke:#000000;stroke-width:2" />
      <line
         id="line17412"
         y2="614.138"
         x2="817.00201"
         y1="614.14203"
         x1="802.55798"
         style="fill:none;fill-opacity:0;stroke:#000000;stroke-width:2" />
      <text
         id="text17414"
         y="608.75201"
         x="749.56"
         style="font-style:normal;font-weight:normal;font-size:6.77333021px;font-family:sans-serif;text-anchor:start;fill:#000000"
         font-size="6.77333">
        <tspan
           id="tspan17416"
           y="608.75201"
           x="749.56" />
        <tspan
           id="tspan17418"
           y="617.21899"
           x="749.56">log</tspan>
        <tspan
           id="tspan17420"
           y="625.685"
           x="749.56" />
      </text>
      <text
         id="text17422"
         y="619.14001"
         x="784.28998"
         style="font-style:normal;font-weight:normal;font-size:8.46667004px;font-family:sans-serif;text-anchor:start;fill:#000000"
         font-size="8.46667">
        <tspan
           id="tspan17424"
           y="619.14001"
           x="784.28998">log</tspan>
      </text>
      <text
         id="text17426"
         y="615.14001"
         x="820.76001"
         style="font-style:normal;font-weight:normal;font-size:8.46667004px;font-family:sans-serif;text-anchor:start;fill:#000000"
         font-size="8.46667">
        <tspan
           id="tspan17428"
           y="615.14001"
           x="820.76001">log</tspan>
      </text>
      <text
         id="text17430"
         y="605.57397"
         x="760.104"
         style="font-style:normal;font-weight:normal;font-size:12.80000019px;font-family:sans-serif;text-anchor:start;fill:#000000"
         font-size="12.8">
        <tspan
           id="tspan17432"
           y="605.57397"
           x="760.104" />
      </text>
      <g
         id="g17434">
        <circle
           id="ellipse17436"
           cy="526.005"
           cx="805.55701"
           style="fill:#ffffff"
           r="8.0331497" />
        <circle
           id="ellipse17438"
           cy="526.005"
           cx="805.55701"
           style="fill:none;fill-opacity:0;stroke:#000000;stroke-width:1"
           r="8.0331497" />
        <circle
           id="ellipse17440"
           cy="526.005"
           cx="805.55701"
           style="fill:none;fill-opacity:0;stroke:#000000;stroke-width:1"
           r="8.0331497" />
      </g>
      <g
         id="g17442">
        <circle
           id="ellipse17444"
           cy="548.80902"
           cx="796.78497"
           style="fill:#ffffff"
           r="8.0331497" />
        <circle
           id="ellipse17446"
           cy="548.80902"
           cx="796.78497"
           style="fill:none;fill-opacity:0;stroke:#000000;stroke-width:1"
           r="8.0331497" />
        <circle
           id="ellipse17448"
           cy="548.80902"
           cx="796.78497"
           style="fill:none;fill-opacity:0;stroke:#000000;stroke-width:1"
           r="8.0331497" />
      </g>
      <g
         id="g17450">
        <circle
           id="ellipse17452"
           cy="522.64099"
           cx="842.90503"
           style="fill:#ffffff"
           r="8.0331497" />
        <circle
           id="ellipse17454"
           cy="522.64099"
           cx="842.90503"
           style="fill:none;fill-opacity:0;stroke:#000000;stroke-width:1"
           r="8.0331497" />
        <circle
           id="ellipse17456"
           cy="522.64099"
           cx="842.90503"
           style="fill:none;fill-opacity:0;stroke:#000000;stroke-width:1"
           r="8.0331497" />
      </g>
      <text
         id="text17458"
         y="618.28802"
         x="607.26001"
         style="font-style:normal;font-weight:normal;font-size:7.90221977px;font-family:'TeX Gyre Bonum';text-anchor:start;fill:#000000"
         font-size="7.90222">
        <tspan
           id="tspan17460"
           y="618.28802"
           x="607.26001">struct page</tspan>
      </text>
      <g
         id="g17462">
        <path
           id="path17464"
           d="m 622.924,632.388 c 2.976,0 17.856,0 20.832,0 2.975,0 2.975,0 2.975,3.818 0,3.818 0,11.455 0,15.273 0,3.818 0,3.818 -2.975,3.818 -2.976,0 -17.856,0 -20.832,0 -2.976,0 -2.976,0 -2.976,-3.818 0,-3.818 0,-11.455 0,-15.273 0,-3.818 0,-3.818 2.976,-3.818 z"
           style="fill:#ffffff"
           inkscape:connector-curvature="0" />
        <path
           id="path17466"
           d="m 622.924,632.388 c 2.976,0 17.856,0 20.832,0 2.975,0 2.975,0 2.975,3.818 0,3.818 0,11.455 0,15.273 0,3.818 0,3.818 -2.975,3.818 -2.976,0 -17.856,0 -20.832,0 -2.976,0 -2.976,0 -2.976,-3.818 0,-3.818 0,-11.455 0,-15.273 0,-3.818 0,-3.818 2.976,-3.818"
           style="fill:none;fill-opacity:0;stroke:#000000;stroke-width:1"
           inkscape:connector-curvature="0" />
        <path
           id="path17468"
           d="m 622.924,632.388 c 2.976,0 17.856,0 20.832,0 2.975,0 2.975,0 2.975,3.818 0,3.818 0,11.455 0,15.273 0,3.818 0,3.818 -2.975,3.818 -2.976,0 -17.856,0 -20.832,0 -2.976,0 -2.976,0 -2.976,-3.818 0,-3.818 0,-11.455 0,-15.273 0,-3.818 0,-3.818 2.976,-3.818"
           style="fill:none;fill-opacity:0;stroke:#000000;stroke-width:0.1"
           inkscape:connector-curvature="0" />
        <line
           id="line17470"
           y2="655.297"
           x2="643.75598"
           y1="655.297"
           x1="622.92401"
           style="fill:none;fill-opacity:0;stroke:#000000;stroke-width:0.1" />
        <line
           id="line17472"
           y2="651.479"
           x2="646.73102"
           y1="636.20599"
           x1="646.73102"
           style="fill:none;fill-opacity:0;stroke:#000000;stroke-width:0.1" />
        <line
           id="line17474"
           y2="651.479"
           x2="619.948"
           y1="636.20599"
           x1="619.948"
           style="fill:none;fill-opacity:0;stroke:#000000;stroke-width:0.1" />
        <line
           id="line17476"
           y2="632.388"
           x2="643.75598"
           y1="632.388"
           x1="622.92401"
           style="fill:none;fill-opacity:0;stroke:#000000;stroke-width:0.1" />
        <text
           id="text17478"
           y="647.84302"
           x="633.34003"
           style="font-style:normal;font-weight:normal;font-size:12.80000019px;font-family:sans-serif;text-anchor:middle;fill:#000000"
           font-size="12.8">
          <tspan
             id="tspan17480"
             y="647.84302"
             x="633.34003" />
        </text>
      </g>
      <g
         id="g17482">
        <path
           id="path17484"
           d="m 960.864,498.96 c 2.999,0 17.998,0 20.998,0 2.999,0 2.999,0 2.999,11.231 0,11.23 0,33.691 0,44.922 0,11.231 0,11.231 -2.999,11.231 -3,0 -17.999,0 -20.998,0 -3,0 -3,0 -3,-11.231 0,-11.231 0,-33.692 0,-44.922 0,-11.231 0,-11.231 3,-11.231 z"
           style="fill:#ffffff"
           inkscape:connector-curvature="0" />
        <path
           id="path17486"
           d="m 960.864,498.96 c 2.999,0 17.998,0 20.998,0 2.999,0 2.999,0 2.999,11.231 0,11.23 0,33.691 0,44.922 0,11.231 0,11.231 -2.999,11.231 -3,0 -17.999,0 -20.998,0 -3,0 -3,0 -3,-11.231 0,-11.231 0,-33.692 0,-44.922 0,-11.231 0,-11.231 3,-11.231"
           style="fill:none;fill-opacity:0;stroke:#000000;stroke-width:1"
           inkscape:connector-curvature="0" />
        <path
           id="path17488"
           d="m 960.864,498.96 c 2.999,0 17.998,0 20.998,0 2.999,0 2.999,0 2.999,11.231 0,11.23 0,33.691 0,44.922 0,11.231 0,11.231 -2.999,11.231 -3,0 -17.999,0 -20.998,0 -3,0 -3,0 -3,-11.231 0,-11.231 0,-33.692 0,-44.922 0,-11.231 0,-11.231 3,-11.231"
           style="fill:none;fill-opacity:0;stroke:#000000;stroke-width:0.1"
           inkscape:connector-curvature="0" />
        <line
           id="line17490"
           y2="566.34399"
           x2="981.862"
           y1="566.34399"
           x1="960.86401"
           style="fill:none;fill-opacity:0;stroke:#000000;stroke-width:0.1" />
        <line
           id="line17492"
           y2="555.11298"
           x2="984.86102"
           y1="510.19101"
           x1="984.86102"
           style="fill:none;fill-opacity:0;stroke:#000000;stroke-width:0.1" />
        <line
           id="line17494"
           y2="555.11298"
           x2="957.86401"
           y1="510.19101"
           x1="957.86401"
           style="fill:none;fill-opacity:0;stroke:#000000;stroke-width:0.1" />
        <line
           id="line17496"
           y2="498.95999"
           x2="981.862"
           y1="498.95999"
           x1="960.86401"
           style="fill:none;fill-opacity:0;stroke:#000000;stroke-width:0.1" />
        <text
           id="text17498"
           y="536.65198"
           x="971.36298"
           style="font-style:normal;font-weight:normal;font-size:12.80000019px;font-family:sans-serif;text-anchor:middle;fill:#000000"
           font-size="12.8">
          <tspan
             id="tspan17500"
             y="536.65198"
             x="971.36298" />
        </text>
      </g>
      <path
         id="path17502"
         d="m 827.73,622.28 c 5.03,30.722 21.974,19.264 51.99,18.542"
         style="fill:none;fill-opacity:0;stroke:#000000;stroke-width:2;stroke-dasharray:4"
         inkscape:connector-curvature="0" />
      <text
         id="text17504"
         y="431.034"
         x="880.46002"
         style="font-style:normal;font-weight:normal;font-size:7.90221977px;font-family:'TeX Gyre Bonum';text-anchor:start;fill:#000000"
         font-size="7.90222">
        <tspan
           id="tspan17506"
           y="431.034"
           x="880.46002">struct</tspan>
        <tspan
           id="tspan17508"
           y="440.91199"
           x="880.46002">vma_area_structs</tspan>
      </text>
      <g
         id="g17510">
        <circle
           id="ellipse17512"
           cy="536.40698"
           cx="939.69702"
           style="fill:#ffffff"
           r="9.4874096" />
        <circle
           id="ellipse17514"
           cy="536.40698"
           cx="939.69702"
           style="fill:none;fill-opacity:0;stroke:#000000;stroke-width:1"
           r="9.4874096" />
        <circle
           id="ellipse17516"
           cy="536.40698"
           cx="939.69702"
           style="fill:none;fill-opacity:0;stroke:#000000;stroke-width:1"
           r="9.4874096" />
      </g>
      <g
         id="g17518">
        <circle
           id="ellipse17520"
           cy="512.36499"
           cx="938.18298"
           style="fill:#ffffff"
           r="9.4874096" />
        <circle
           id="ellipse17522"
           cy="512.36499"
           cx="938.18298"
           style="fill:none;fill-opacity:0;stroke:#000000;stroke-width:1"
           r="9.4874096" />
        <circle
           id="ellipse17524"
           cy="512.36499"
           cx="938.18298"
           style="fill:none;fill-opacity:0;stroke:#000000;stroke-width:1"
           r="9.4874096" />
      </g>
      <text
         id="text17526"
         y="515.49597"
         x="932.54199"
         style="font-style:normal;font-weight:normal;font-size:8.46667004px;font-family:sans-serif;text-anchor:start;fill:#000000"
         font-size="8.46667">
        <tspan
           id="tspan17528"
           y="515.49597"
           x="932.54199">log</tspan>
      </text>
      <text
         id="text17530"
         y="539.12402"
         x="933.84802"
         style="font-style:normal;font-weight:normal;font-size:8.46667004px;font-family:sans-serif;text-anchor:start;fill:#000000"
         font-size="8.46667">
        <tspan
           id="tspan17532"
           y="539.12402"
           x="933.84802">log</tspan>
      </text>
      <g
         id="g17534">
        <circle
           id="ellipse17536"
           cy="559.28101"
           cx="939.521"
           style="fill:#ffffff"
           r="9.4874096" />
        <circle
           id="ellipse17538"
           cy="559.28101"
           cx="939.521"
           style="fill:none;fill-opacity:0;stroke:#000000;stroke-width:1"
           r="9.4874096" />
        <circle
           id="ellipse17540"
           cy="559.28101"
           cx="939.521"
           style="fill:none;fill-opacity:0;stroke:#000000;stroke-width:1"
           r="9.4874096" />
      </g>
      <text
         id="text17542"
         y="562.73798"
         x="933.672"
         style="font-style:normal;font-weight:normal;font-size:8.46667004px;font-family:sans-serif;text-anchor:start;fill:#000000"
         font-size="8.46667">
        <tspan
           id="tspan17544"
           y="562.73798"
           x="933.672">log</tspan>
      </text>
      <g
         id="g17546">
        <path
           id="path17548"
           d="m 640.782,442.316 c 2.308,0 13.847,0 16.155,0 2.308,0 2.308,0 2.308,3.818 0,3.818 0,11.455 0,15.273 0,3.818 0,3.818 -2.308,3.818 -2.308,0 -13.847,0 -16.155,0 -2.308,0 -2.308,0 -2.308,-3.818 0,-3.818 0,-11.455 0,-15.273 0,-3.818 0,-3.818 2.308,-3.818 z"
           style="fill:#e5e5e5"
           inkscape:connector-curvature="0" />
        <path
           id="path17550"
           d="m 640.782,442.316 c 2.308,0 13.847,0 16.155,0 2.308,0 2.308,0 2.308,3.818 0,3.818 0,11.455 0,15.273 0,3.818 0,3.818 -2.308,3.818 -2.308,0 -13.847,0 -16.155,0 -2.308,0 -2.308,0 -2.308,-3.818 0,-3.818 0,-11.455 0,-15.273 0,-3.818 0,-3.818 2.308,-3.818"
           style="fill:none;fill-opacity:0;stroke:#000000;stroke-width:1"
           inkscape:connector-curvature="0" />
        <path
           id="path17552"
           d="m 640.782,442.316 c 2.308,0 13.847,0 16.155,0 2.308,0 2.308,0 2.308,3.818 0,3.818 0,11.455 0,15.273 0,3.818 0,3.818 -2.308,3.818 -2.308,0 -13.847,0 -16.155,0 -2.308,0 -2.308,0 -2.308,-3.818 0,-3.818 0,-11.455 0,-15.273 0,-3.818 0,-3.818 2.308,-3.818"
           style="fill:none;fill-opacity:0;stroke:#000000;stroke-width:0.1"
           inkscape:connector-curvature="0" />
        <line
           id="line17554"
           y2="465.22501"
           x2="656.93701"
           y1="465.22501"
           x1="640.78198"
           style="fill:none;fill-opacity:0;stroke:#000000;stroke-width:0.1" />
        <line
           id="line17556"
           y2="461.40701"
           x2="659.245"
           y1="446.134"
           x1="659.245"
           style="fill:none;fill-opacity:0;stroke:#000000;stroke-width:0.1" />
        <line
           id="line17558"
           y2="461.40701"
           x2="638.474"
           y1="446.134"
           x1="638.474"
           style="fill:none;fill-opacity:0;stroke:#000000;stroke-width:0.1" />
        <line
           id="line17560"
           y2="442.31601"
           x2="656.93701"
           y1="442.31601"
           x1="640.78198"
           style="fill:none;fill-opacity:0;stroke:#000000;stroke-width:0.1" />
        <text
           id="text17562"
           y="457.771"
           x="648.85901"
           style="font-style:normal;font-weight:normal;font-size:12.80000019px;font-family:sans-serif;text-anchor:middle;fill:#000000"
           font-size="12.8">
          <tspan
             id="tspan17564"
             y="457.771"
             x="648.85901" />
        </text>
      </g>
      <text
         id="text17566"
         y="450.45401"
         x="664.146"
         style="font-style:normal;font-weight:normal;font-size:6.77333021px;font-family:sans-serif;text-anchor:start;fill:#000000"
         font-size="6.77333">
        <tspan
           id="tspan17568"
           y="450.45401"
           x="664.146">global</tspan>
        <tspan
           id="tspan17570"
           y="458.92099"
           x="664.146">queue</tspan>
      </text>
    </g>
  </g>
</svg>
